<svg width="796" height="500" viewBox="0 0 796 500" fill="none" xmlns="http://www.w3.org/2000/svg">
<rect width="796" height="500" fill="#E5E5E5"/>
<g clip-path="url(#clip0)">
<path d="M401.117 482.274C530.246 482.274 634.926 374.313 634.926 241.137C634.926 107.961 530.246 0 401.117 0C271.987 0 167.307 107.961 167.307 241.137C167.307 374.313 271.987 482.274 401.117 482.274Z" fill="#F2F2F2"/>
<path d="M669.125 56.1662L654.827 93.2991C657.594 106.215 660.3 120.781 662.472 136.292L687.929 81.347L688.346 82.0094C682.514 71.614 675.882 62.6451 668.686 55.5544L669.125 56.1662Z" fill="#6C63FF"/>
<path d="M654.338 91.0342L668.189 55.0648C660.068 47.1896 651.239 41.7061 642.028 39.286C641.549 39.1601 641.072 39.05 640.595 38.9417C641.706 42.3505 648.099 62.4029 654.338 91.0342Z" fill="#6C63FF"/>
<path d="M712.84 170.693L713.162 171.517C712.82 165.91 712.284 160.364 711.553 154.878L667.297 211.921L667.136 211.55C667.04 214.917 666.897 218.237 666.705 221.512L712.84 170.693Z" fill="#6C63FF"/>
<path d="M704.762 122.71L705.135 123.466C701.25 109.27 695.75 95.5987 688.747 82.7371L662.804 138.729C664.776 153.276 666.095 167.313 666.762 180.841L704.762 122.71Z" fill="#6C63FF"/>
<path d="M581.743 86.4137C578.446 96.3546 576.132 106.613 574.834 117.034L665.15 171.452C664.342 159.73 663.119 148.515 661.701 138.151L581.646 87.2948L581.743 86.4137Z" fill="#6C63FF"/>
<path d="M573.642 129.193L573.724 128.307L665.752 181.972C665.622 179.093 665.465 176.239 665.281 173.409L574.633 118.791L574.721 117.906C574.261 121.578 573.901 125.341 573.642 129.193Z" fill="#6C63FF"/>
<path d="M711.064 153.028L711.41 153.822C710.049 143.885 708.039 134.055 705.394 124.397L666.88 183.315C667.275 192.338 667.374 201.098 667.178 209.596L711.064 153.028Z" fill="#6C63FF"/>
<path d="M662.146 258.662C658.474 277.454 652.843 294.212 645.3 308.744C655.847 299.469 697.719 260.194 710.112 211.129L662.146 258.662Z" fill="#6C63FF"/>
<path d="M576.105 171.812C578.078 181.236 580.661 190.512 583.837 199.579L583.98 198.619L661.319 256.634C663.279 246.098 664.623 235.451 665.346 224.748L576.105 171.812Z" fill="#6C63FF"/>
<path d="M653.341 91.2833C646.583 60.308 639.658 39.4883 639.558 39.1898L639.991 38.8068C625.842 35.8074 612.824 40.5704 602.108 51.2674L653.341 91.2833Z" fill="#6C63FF"/>
<path d="M666.543 224.046C666.476 225.061 666.414 226.08 666.338 227.086C665.626 236.734 664.405 246.335 662.681 255.846L710.192 208.764L710.487 209.58C712.599 200.923 713.639 192.025 713.582 183.098C713.545 179.591 713.426 176.099 713.228 172.621L666.543 224.046Z" fill="#6C63FF"/>
<path d="M661.413 136.084C659.255 120.751 656.576 106.358 653.84 93.5923L601.432 52.6578L601.569 51.8051C593.567 60.0003 586.883 71.5398 582.011 85.6417L661.413 136.084Z" fill="#6C63FF"/>
<path d="M661.001 258.306L584.228 200.715C603.255 255.09 640.363 307.328 642.739 310.644C651.532 294.724 657.357 276.872 661.001 258.306Z" fill="#6C63FF"/>
<path d="M665.428 222.92L665.472 222.871C666.271 209.895 666.391 196.885 665.833 183.896L573.579 130.098C573.251 135.319 573.113 140.688 573.167 146.203C573.31 154.091 574.15 161.95 575.676 169.681L665.428 222.92Z" fill="#6C63FF"/>
<path d="M795.326 262.832L761.349 282.026C755.492 293.794 748.569 306.793 740.649 320.168L794.236 294.595L794.147 295.38C796.085 283.537 796.523 272.267 795.366 262.072L795.326 262.832Z" fill="#6C63FF"/>
<path d="M762.373 279.96L795.286 261.368C793.901 249.96 790.492 239.929 784.895 232.007C784.604 231.594 784.305 231.196 784.004 230.799C782.752 234.155 775.275 253.805 762.373 279.96Z" fill="#6C63FF"/>
<path d="M758.167 379.796L757.906 380.641C761.11 376.099 764.127 371.474 766.957 366.768L697.594 381.59L697.699 381.199C695.543 383.728 693.379 386.192 691.207 388.588L758.167 379.796Z" fill="#6C63FF"/>
<path d="M781.62 337.525L781.439 338.353C787.227 324.864 791.445 310.716 794.006 296.204L739.398 322.263C731.92 334.764 724.255 346.443 716.403 357.301L781.62 337.525Z" fill="#6C63FF"/>
<path d="M709.319 228.648C700.632 234.136 692.505 240.515 685.061 247.687L720.968 349.009C727.595 339.449 733.588 330.007 738.905 321.092L708.699 229.263L709.319 228.648Z" fill="#6C63FF"/>
<path d="M676.623 256.268L677.235 255.639L714.925 357.508C716.605 355.204 718.25 352.903 719.858 350.603L683.819 248.908L684.434 248.284C681.809 250.81 679.206 253.471 676.623 256.268Z" fill="#6C63FF"/>
<path d="M767.724 365.022L767.5 365.861C772.596 357.312 777.128 348.418 781.063 339.24L714.963 359.283C709.687 366.493 704.346 373.305 698.94 379.721L767.724 365.022Z" fill="#6C63FF"/>
<path d="M664.721 414.201C650.271 426.26 635.57 435.462 620.774 441.693C634.633 441.487 691.171 438.781 731.059 409.144L664.721 414.201Z" fill="#6C63FF"/>
<path d="M652.163 290.712C647.855 299.268 644.108 308.112 640.946 317.184L641.65 316.539L665.338 412.096C673.362 405.27 680.983 397.954 688.158 390.187L652.163 290.712Z" fill="#6C63FF"/>
<path d="M761.451 279.496C775.403 251.194 782.945 230.603 783.052 230.308L783.623 230.298C774.58 218.68 761.608 213.785 746.74 214.975L761.451 279.496Z" fill="#6C63FF"/>
<path d="M689.514 390.432C688.835 391.17 688.157 391.914 687.476 392.639C680.961 399.602 674.083 406.193 666.874 412.385L732.583 407.375L732.306 408.198C739.287 402.92 745.59 396.751 751.067 389.838C753.207 387.112 755.276 384.345 757.273 381.535L689.514 390.432Z" fill="#6C63FF"/>
<path d="M739.962 319.311C747.783 306.082 754.62 293.234 760.408 281.603L745.359 215.601L745.992 215.034C734.761 216.083 722.476 220.574 710.002 228.23L739.962 319.311Z" fill="#6C63FF"/>
<path d="M664.058 413.174L640.545 318.316C621.572 372.712 617.847 437.354 617.626 441.471C634.243 434.994 649.77 425.076 664.058 413.174Z" fill="#6C63FF"/>
<path d="M689.352 388.831L689.416 388.823C698.056 379.355 706.195 369.414 713.798 359.043L676.015 256.924C672.533 260.728 669.107 264.773 665.738 269.056C660.969 275.225 656.756 281.83 653.151 288.789L689.352 388.831Z" fill="#6C63FF"/>
<path d="M567.117 202.895L564.648 242.767C571.15 254.169 578.09 267.159 584.804 281.218L592.547 220.848L593.142 221.345C584.48 213.318 575.485 206.903 566.516 202.453L567.117 202.895Z" fill="#6C63FF"/>
<path d="M563.504 240.769L565.896 202.146C555.813 197.245 545.773 194.845 536.288 195.48C535.794 195.513 535.308 195.56 534.822 195.609C536.9 198.497 548.99 215.529 563.504 240.769Z" fill="#6C63FF"/>
<path d="M643.016 297.878L643.568 298.559C641.563 293.336 639.391 288.232 637.051 283.247L612.059 351.605L611.795 351.304C612.712 354.536 613.571 357.74 614.371 360.915L643.016 297.878Z" fill="#6C63FF"/>
<path d="M620.952 254.819L621.534 255.42C613.585 243.158 604.256 231.909 593.741 221.91L585.85 283.429C592.085 296.636 597.546 309.565 602.235 322.218L620.952 254.819Z" fill="#6C63FF"/>
<path d="M493.08 259.517C492.923 270.022 493.797 280.517 495.686 290.841L597.888 313.802C593.607 302.912 589.082 292.636 584.627 283.232L493.251 260.386L493.08 259.517Z" fill="#6C63FF"/>
<path d="M498.196 302.784L498.009 301.915L601.613 323.616C600.627 320.919 599.622 318.255 598.6 315.622L496.021 292.576L495.839 291.707C496.503 295.345 497.288 299.038 498.196 302.784Z" fill="#6C63FF"/>
<path d="M636.033 281.644L636.6 282.289C632.327 273.273 627.469 264.565 622.059 256.223L603.089 324.533C606.169 332.988 608.888 341.288 611.248 349.432L636.033 281.644Z" fill="#6C63FF"/>
<path d="M621.169 397.699C623.309 416.742 622.976 434.474 620.158 450.699C627.408 438.516 655.458 387.816 652.539 337.204L621.169 397.699Z" fill="#6C63FF"/>
<path d="M513.312 342.531C518.013 350.864 523.249 358.863 528.987 366.474L528.835 365.515L619.775 396.035C618.48 385.39 616.568 374.835 614.048 364.426L513.312 342.531Z" fill="#6C63FF"/>
<path d="M562.63 241.324C546.92 214.02 534.094 196.428 533.91 196.176L534.207 195.673C519.852 197.331 508.899 206.011 501.914 219.6L562.63 241.324Z" fill="#6C63FF"/>
<path d="M614.975 363.377C615.216 364.363 615.462 365.353 615.692 366.334C617.906 375.736 619.623 385.256 620.834 394.851L651.907 334.929L652.432 335.61C651.847 326.704 650.169 317.91 647.439 309.439C646.352 306.116 645.193 302.832 643.962 299.588L614.975 363.377Z" fill="#6C63FF"/>
<path d="M583.734 281.358C577.087 267.463 570.225 254.629 563.797 243.361L501.688 221.138L501.562 220.283C496.408 230.628 493.51 243.733 493.102 258.698L583.734 281.358Z" fill="#6C63FF"/>
<path d="M619.973 397.726L529.699 367.429C564.091 413.076 615.037 450.926 618.291 453.323C621.882 435.38 622.071 416.544 619.973 397.726Z" fill="#6C63FF"/>
<path d="M613.577 362.661L613.605 362.601C610.476 350.006 606.691 337.594 602.268 325.419L498.408 303.665C499.66 308.735 501.138 313.885 502.843 319.113C505.342 326.569 508.496 333.775 512.265 340.641L613.577 362.661Z" fill="#6C63FF"/>
<path d="M519.293 438.368C589.978 437.508 660.66 438.001 731.34 439.847C737.42 440.006 743.73 440.21 749.099 441.871C754.469 443.532 758.601 447.094 757.132 450.517C729.541 451.359 701.921 451.619 674.273 451.297C668.252 454.339 661.642 458.92 665.342 463.022C667.903 465.861 674.223 466.706 679.75 466.712C689.761 466.724 699.813 465.03 709.676 466.024C719.539 467.018 729.38 472.368 726.491 477.922C724.297 482.14 715.973 484.228 708.398 484.601C700.823 484.974 693.067 484.198 685.662 485.197C678.626 486.146 672.53 488.612 665.944 490.334C655.557 493.05 644.042 493.889 632.712 494.603C545.718 500.084 458.003 500.04 370.496 499.991C335.07 499.971 299.163 499.915 264.953 494.582C245.453 491.541 226.766 486.82 207.02 484.37C183.434 481.444 159.057 481.841 134.936 481.929C92.5912 482.083 50.2823 481.241 8.00907 479.404C4.86325 479.267 1.00185 478.804 0.152885 477.043C-0.837895 474.989 3.18307 473.385 6.5819 472.566C25.8411 467.968 45.424 464.955 65.1457 463.556C75.1337 462.832 85.4261 462.463 94.6124 460.079C103.799 457.694 111.824 452.694 111.738 446.861C111.712 445.082 110.984 443.179 112.424 441.607C114.335 439.52 119.039 439.041 123.098 438.814C168.088 436.292 213.324 435.239 258.518 435.662C274.416 435.811 290.379 436.14 306.164 435.036C319.098 434.131 331.766 432.273 344.513 430.713C361.623 428.62 436.084 417.774 446.946 426.574C455.078 433.162 438.29 434.584 460.098 437.272C479.087 439.612 500.034 438.602 519.293 438.368Z" fill="#F2F2F2"/>
<path d="M480.22 209.371C503.417 209.371 522.222 189.976 522.222 166.053C522.222 142.129 503.417 122.734 480.22 122.734C457.023 122.734 438.218 142.129 438.218 166.053C438.218 189.976 457.023 209.371 480.22 209.371Z" fill="#2F2E41"/>
<path d="M525.722 152.335C548.919 152.335 567.724 132.941 567.724 109.017C567.724 85.0932 548.919 65.6991 525.722 65.6991C502.525 65.6991 483.72 85.0932 483.72 109.017C483.72 132.941 502.525 152.335 525.722 152.335Z" fill="#2F2E41"/>
<path d="M561.95 144.887C556.514 148.94 550.216 151.59 543.583 152.617C536.949 153.645 530.174 153.019 523.824 150.792C517.473 148.565 511.732 144.801 507.081 139.817C502.429 134.833 499.003 128.772 497.089 122.142C497.813 128.083 499.724 133.805 502.701 138.947C505.678 144.088 509.656 148.537 514.384 152.013C519.113 155.489 524.488 157.916 530.172 159.141C535.856 160.366 541.724 160.363 547.406 159.131C553.088 157.899 558.461 155.465 563.185 151.983C567.91 148.502 571.883 144.048 574.854 138.903C577.825 133.758 579.729 128.033 580.447 122.091C581.164 116.148 580.679 110.117 579.023 104.377C579.964 112.088 578.875 119.918 575.871 127.046C572.867 134.174 568.059 140.336 561.95 144.887V144.887Z" fill="#2F2E41"/>
<path d="M469.369 218.395C488.314 218.395 503.671 202.557 503.671 183.019C503.671 163.481 488.314 147.642 469.369 147.642C450.425 147.642 435.068 163.481 435.068 183.019C435.068 202.557 450.425 218.395 469.369 218.395Z" fill="#A0616A"/>
<path d="M457.469 211.897C457.469 211.897 471.47 233.556 469.369 242.942C469.369 242.942 460.269 247.274 460.269 248.718C460.269 250.162 451.869 263.879 451.869 263.879L442.068 277.596L437.868 295.646H458.169L480.57 277.596L502.271 253.05C502.271 253.05 516.971 245.83 524.672 251.606L528.872 255.215C528.872 255.215 514.171 235 507.171 230.669C507.171 230.669 494.571 214.785 495.971 198.902L457.469 211.897Z" fill="#A0616A"/>
<path d="M463.069 242.22C463.069 242.22 449.069 250.162 443.468 265.323C437.868 280.484 412.667 331.022 412.667 331.022C412.667 331.022 410.567 363.511 411.967 364.954C413.367 366.398 429.468 350.515 432.268 346.183C435.068 341.852 446.269 289.87 446.269 289.87L464.469 259.547L467.969 242.22H463.069Z" fill="#A0616A"/>
<path d="M418.967 333.188L412.667 331.022C412.667 331.022 374.166 306.475 372.065 295.646C369.965 284.816 339.164 248.718 338.464 268.211C337.764 287.704 360.865 309.363 360.865 309.363C360.865 309.363 411.267 382.282 414.067 361.345L418.967 333.188Z" fill="#A0616A"/>
<path d="M482.67 283.372C482.67 283.372 483.37 303.587 510.671 310.807C510.671 310.807 538.672 349.793 541.472 367.12C544.273 384.448 617.776 473.25 617.776 473.25C617.776 473.25 685.679 481.913 685.679 473.25C685.679 464.586 628.976 457.366 628.976 457.366C628.976 457.366 569.474 366.398 566.674 354.125C563.873 341.852 537.272 250.884 524.672 251.606C524.672 251.606 512.771 245.83 505.771 250.162C498.771 254.494 482.67 283.372 482.67 283.372Z" fill="#A0616A"/>
<path d="M400.767 364.954C400.767 364.954 351.765 297.09 341.264 292.758C330.764 288.426 317.463 285.538 309.763 295.646C302.063 305.753 211.059 424.156 211.059 424.156C211.059 424.156 178.857 458.088 162.757 451.59C162.757 451.59 154.356 458.81 173.957 460.254C193.558 461.698 211.759 455.922 211.759 455.922C211.759 455.922 223.659 458.088 232.06 460.254C240.46 462.42 250.96 463.142 250.26 457.366L247.46 434.263C247.46 434.263 319.563 372.896 321.663 346.905C321.663 346.905 320.263 334.632 321.663 336.076C323.063 337.52 352.465 370.008 365.765 377.228C379.066 384.448 411.967 394.555 411.967 394.555L400.767 364.954Z" fill="#A0616A"/>
<path opacity="0.1" d="M400.767 364.954C400.767 364.954 351.765 297.09 341.264 292.758C330.764 288.426 317.463 285.538 309.763 295.646C302.063 305.753 211.059 424.156 211.059 424.156C211.059 424.156 178.857 458.088 162.757 451.59C162.757 451.59 154.356 458.81 173.957 460.254C193.558 461.698 211.759 455.922 211.759 455.922C211.759 455.922 223.659 458.088 232.06 460.254C240.46 462.42 250.96 463.142 250.26 457.366L247.46 434.263C247.46 434.263 319.563 372.896 321.663 346.905C321.663 346.905 320.263 334.632 321.663 336.076C323.063 337.52 352.465 370.008 365.765 377.228C379.066 384.448 411.967 394.555 411.967 394.555L400.767 364.954Z" fill="black"/>
<path d="M408.467 374.34C408.467 374.34 344.064 349.071 335.664 343.295C327.264 337.52 297.162 325.968 281.762 338.964C266.361 351.959 191.458 411.882 166.257 417.658C141.056 423.434 97.654 437.151 97.654 437.151C97.654 437.151 69.6529 439.317 99.7541 451.591C99.7541 451.591 136.856 455.2 143.156 460.976C149.456 466.752 170.457 473.972 171.857 464.586C173.257 455.2 177.457 442.927 185.158 441.483C192.858 440.039 285.262 414.048 299.262 385.892C299.262 385.892 330.764 403.941 350.365 424.878C369.965 445.815 416.167 457.366 416.167 457.366L408.467 374.34Z" fill="#A0616A"/>
<path d="M431.568 351.237C431.568 351.237 400.882 359.649 398.374 356.526C395.866 353.403 382.566 370.73 395.166 405.385C407.767 440.039 404.967 455.922 411.967 460.976C418.967 466.03 451.869 458.088 461.669 461.698C471.47 465.308 484.07 468.196 488.27 447.259C492.47 426.322 502.971 389.501 500.871 384.448C498.771 379.394 487.57 367.842 487.57 367.842L464.469 355.569L431.568 351.237Z" fill="#3F3D56"/>
<path d="M537.622 270.016C537.622 270.016 532.749 255.937 523.702 253.297C522.937 253.082 522.183 252.828 521.443 252.533C518.045 251.142 507.679 248.104 500.171 258.825C491.07 271.821 482.67 286.982 489.67 295.646C496.671 304.309 510.671 309.363 510.671 309.363L521.172 323.08C521.172 323.08 500.171 362.067 500.171 380.116C500.171 380.116 499.471 387.336 487.57 374.34C475.67 361.345 426.969 352.36 426.969 352.36C426.969 352.36 437.168 338.242 429.468 331.744C421.767 325.246 414.718 299.365 432.943 289.203L464.119 241.859L469.719 242.581C469.719 242.581 462.369 249.44 461.669 253.05C460.969 256.659 432.968 281.928 444.168 286.26C455.369 290.592 473.57 281.206 481.27 270.377C485.505 264.421 491.434 256.28 498.941 251.121C502.796 248.527 507.246 247.026 511.843 246.772C516.439 246.517 521.019 247.518 525.121 249.672L527.472 250.884C532.048 254.187 535.638 258.743 537.838 264.038L538.672 266.045L537.622 270.016Z" fill="#2F2E41"/>
<path d="M491.42 205.039C508.431 205.039 522.222 190.816 522.222 173.272C522.222 155.728 508.431 141.506 491.42 141.506C474.409 141.506 460.619 155.728 460.619 173.272C460.619 190.816 474.409 205.039 491.42 205.039Z" fill="#2F2E41"/>
<path d="M465.519 183.38C480.597 183.38 492.82 173.521 492.82 161.36C492.82 149.198 480.597 139.34 465.519 139.34C450.441 139.34 438.218 149.198 438.218 161.36C438.218 173.521 450.441 183.38 465.519 183.38Z" fill="#2F2E41"/>
<path d="M475.67 204.317C478.183 204.317 480.22 200.6 480.22 196.014C480.22 191.429 478.183 187.711 475.67 187.711C473.157 187.711 471.12 191.429 471.12 196.014C471.12 200.6 473.157 204.317 475.67 204.317Z" fill="#A0616A"/>
<path d="M483.37 122.994V180.492H467.269V122.994C467.269 121.968 467.665 120.984 468.368 120.258C469.072 119.532 470.026 119.125 471.021 119.125H479.618C480.613 119.125 481.567 119.532 482.271 120.258C482.975 120.984 483.37 121.968 483.37 122.994Z" fill="#FF6584"/>
<path d="M475.32 210.093C484.985 210.093 492.82 202.012 492.82 192.043C492.82 182.075 484.985 173.994 475.32 173.994C465.654 173.994 457.819 182.075 457.819 192.043C457.819 202.012 465.654 210.093 475.32 210.093Z" fill="#6C63FF"/>
<path d="M475.32 199.985C479.572 199.985 483.02 196.429 483.02 192.043C483.02 187.657 479.572 184.102 475.32 184.102C471.067 184.102 467.619 187.657 467.619 192.043C467.619 196.429 471.067 199.985 475.32 199.985Z" fill="#F2F2F2"/>
<path d="M475.32 194.209C476.48 194.209 477.42 193.24 477.42 192.043C477.42 190.847 476.48 189.877 475.32 189.877C474.16 189.877 473.22 190.847 473.22 192.043C473.22 193.24 474.16 194.209 475.32 194.209Z" fill="#FF6584"/>
<path opacity="0.1" d="M483.37 122.994V125.622H467.269V122.994C467.269 121.968 467.665 120.984 468.368 120.258C469.072 119.532 470.026 119.125 471.021 119.125H479.618C480.613 119.125 481.567 119.532 482.271 120.258C482.975 120.984 483.37 121.968 483.37 122.994Z" fill="black"/>
<path d="M296.36 265.429L337.578 222.919C338.292 222.183 339.139 221.599 340.072 221.2C341.005 220.802 342.005 220.597 343.014 220.597C344.024 220.597 345.024 220.802 345.956 221.2C346.889 221.599 347.737 222.183 348.451 222.919L385.53 261.16C386.971 262.647 387.782 264.664 387.782 266.767C387.782 268.87 386.971 270.887 385.53 272.374L347.018 312.092C345.645 313.508 343.803 314.336 341.862 314.409C339.921 314.482 338.025 313.795 336.555 312.485L296.77 277.036C295.97 276.323 295.322 275.448 294.865 274.466C294.407 273.483 294.152 272.414 294.113 271.324C294.075 270.235 294.254 269.149 294.641 268.135C295.027 267.121 295.613 266.199 296.36 265.429V265.429Z" fill="#2F2E41"/>
<path d="M308.013 272.182L344.064 235L373.815 265.684L339.164 301.421L308.013 272.182Z" fill="#F2F2F2"/>
<path d="M341.614 285.618C351.129 285.618 358.843 277.663 358.843 267.85C358.843 258.037 351.129 250.082 341.614 250.082C332.099 250.082 324.386 258.037 324.386 267.85C324.386 277.663 332.099 285.618 341.614 285.618Z" fill="#6C63FF"/>
<path opacity="0.1" d="M333.946 282.994C331.064 280.201 329.201 276.471 328.671 272.429C328.14 268.387 328.974 264.28 331.032 260.798C333.09 257.315 336.247 254.669 339.974 253.303C343.7 251.937 347.769 251.935 351.496 253.297C349.482 251.842 347.19 250.849 344.773 250.384C342.356 249.919 339.871 249.993 337.484 250.601C335.097 251.209 332.864 252.337 330.935 253.908C329.006 255.48 327.425 257.46 326.299 259.714C325.173 261.968 324.528 264.444 324.407 266.977C324.286 269.51 324.692 272.039 325.598 274.397C326.504 276.754 327.888 278.884 329.659 280.644C331.429 282.403 333.544 283.752 335.861 284.598C335.187 284.111 334.547 283.575 333.946 282.994V282.994Z" fill="black"/>
<path d="M350.084 264.319C352.139 266.31 352.248 273.477 349.111 276.92C345.974 280.364 340.779 278.779 338.724 276.788C336.67 274.797 338.533 273.154 341.67 269.71C344.807 266.267 348.03 262.328 350.084 264.319Z" fill="#F2F2F2"/>
<path d="M332.595 273.404C335.414 273.404 337.699 271.047 337.699 268.14C337.699 265.232 335.414 262.875 332.595 262.875C329.775 262.875 327.49 265.232 327.49 268.14C327.49 271.047 329.775 273.404 332.595 273.404Z" fill="#2F2E41"/>
<path d="M341.77 263.333C344.59 263.333 346.875 260.976 346.875 258.068C346.875 255.16 344.59 252.803 341.77 252.803C338.951 252.803 336.666 255.16 336.666 258.068C336.666 260.976 338.951 263.333 341.77 263.333Z" fill="#2F2E41"/>
<path d="M332.595 269.456C333.299 269.456 333.871 268.866 333.871 268.139C333.871 267.413 333.299 266.823 332.595 266.823C331.89 266.823 331.318 267.413 331.318 268.139C331.318 268.866 331.89 269.456 332.595 269.456Z" fill="#F2F2F2"/>
<path d="M332.045 265.556C332.398 265.556 332.683 265.262 332.683 264.898C332.683 264.535 332.398 264.24 332.045 264.24C331.693 264.24 331.407 264.535 331.407 264.898C331.407 265.262 331.693 265.556 332.045 265.556Z" fill="#F2F2F2"/>
<path d="M341.221 255.485C341.573 255.485 341.859 255.19 341.859 254.827C341.859 254.463 341.573 254.169 341.221 254.169C340.869 254.169 340.583 254.463 340.583 254.827C340.583 255.19 340.869 255.485 341.221 255.485Z" fill="#F2F2F2"/>
<path d="M341.77 259.384C342.475 259.384 343.046 258.795 343.046 258.068C343.046 257.341 342.475 256.752 341.77 256.752C341.065 256.752 340.494 257.341 340.494 258.068C340.494 258.795 341.065 259.384 341.77 259.384Z" fill="#F2F2F2"/>
<path d="M250.184 263H243.434V211.812H250.184V263ZM268.605 263H262.102V209H268.605V263ZM286.113 263H279.609V209H286.113V263ZM320.039 259.238C317.508 262.215 313.793 263.703 308.895 263.703C304.84 263.703 301.746 262.531 299.613 260.188C297.504 257.82 296.438 254.328 296.414 249.711V224.961H302.918V249.535C302.918 255.301 305.262 258.184 309.949 258.184C314.918 258.184 318.223 256.332 319.863 252.629V224.961H326.367V263H320.18L320.039 259.238ZM358.43 252.91C358.43 251.152 357.762 249.793 356.426 248.832C355.113 247.848 352.805 247.004 349.5 246.301C346.219 245.598 343.605 244.754 341.66 243.77C339.738 242.785 338.309 241.613 337.371 240.254C336.457 238.895 336 237.277 336 235.402C336 232.285 337.312 229.648 339.938 227.492C342.586 225.336 345.961 224.258 350.062 224.258C354.375 224.258 357.867 225.371 360.539 227.598C363.234 229.824 364.582 232.672 364.582 236.141H358.043C358.043 234.359 357.281 232.824 355.758 231.535C354.258 230.246 352.359 229.602 350.062 229.602C347.695 229.602 345.844 230.117 344.508 231.148C343.172 232.18 342.504 233.527 342.504 235.191C342.504 236.762 343.125 237.945 344.367 238.742C345.609 239.539 347.848 240.301 351.082 241.027C354.34 241.754 356.977 242.621 358.992 243.629C361.008 244.637 362.496 245.855 363.457 247.285C364.441 248.691 364.934 250.414 364.934 252.453C364.934 255.852 363.574 258.582 360.855 260.645C358.137 262.684 354.609 263.703 350.273 263.703C347.227 263.703 344.531 263.164 342.188 262.086C339.844 261.008 338.004 259.508 336.668 257.586C335.355 255.641 334.699 253.543 334.699 251.293H341.203C341.32 253.473 342.188 255.207 343.805 256.496C345.445 257.762 347.602 258.395 350.273 258.395C352.734 258.395 354.703 257.902 356.18 256.918C357.68 255.91 358.43 254.574 358.43 252.91ZM382.23 215.75V224.961H389.332V229.988H382.23V253.578C382.23 255.102 382.547 256.25 383.18 257.023C383.812 257.773 384.891 258.148 386.414 258.148C387.164 258.148 388.195 258.008 389.508 257.727V263C387.797 263.469 386.133 263.703 384.516 263.703C381.609 263.703 379.418 262.824 377.941 261.066C376.465 259.309 375.727 256.812 375.727 253.578V229.988H368.801V224.961H375.727V215.75H382.23ZM415.348 230.797C414.363 230.633 413.297 230.551 412.148 230.551C407.883 230.551 404.988 232.367 403.465 236V263H396.961V224.961H403.289L403.395 229.355C405.527 225.957 408.551 224.258 412.465 224.258C413.73 224.258 414.691 224.422 415.348 224.75V230.797ZM443.438 263C443.062 262.25 442.758 260.914 442.523 258.992C439.5 262.133 435.891 263.703 431.695 263.703C427.945 263.703 424.863 262.648 422.449 260.539C420.059 258.406 418.863 255.711 418.863 252.453C418.863 248.492 420.363 245.422 423.363 243.242C426.387 241.039 430.629 239.938 436.09 239.938H442.418V236.949C442.418 234.676 441.738 232.871 440.379 231.535C439.02 230.176 437.016 229.496 434.367 229.496C432.047 229.496 430.102 230.082 428.531 231.254C426.961 232.426 426.176 233.844 426.176 235.508H419.637C419.637 233.609 420.305 231.781 421.641 230.023C423 228.242 424.828 226.836 427.125 225.805C429.445 224.773 431.988 224.258 434.754 224.258C439.137 224.258 442.57 225.359 445.055 227.562C447.539 229.742 448.828 232.754 448.922 236.598V254.105C448.922 257.598 449.367 260.375 450.258 262.438V263H443.438ZM432.645 258.043C434.684 258.043 436.617 257.516 438.445 256.461C440.273 255.406 441.598 254.035 442.418 252.348V244.543H437.32C429.352 244.543 425.367 246.875 425.367 251.539C425.367 253.578 426.047 255.172 427.406 256.32C428.766 257.469 430.512 258.043 432.645 258.043ZM467.941 215.75V224.961H475.043V229.988H467.941V253.578C467.941 255.102 468.258 256.25 468.891 257.023C469.523 257.773 470.602 258.148 472.125 258.148C472.875 258.148 473.906 258.008 475.219 257.727V263C473.508 263.469 471.844 263.703 470.227 263.703C467.32 263.703 465.129 262.824 463.652 261.066C462.176 259.309 461.438 256.812 461.438 253.578V229.988H454.512V224.961H461.438V215.75H467.941ZM489.738 263H483.234V224.961H489.738V263ZM482.707 214.871C482.707 213.816 483.023 212.926 483.656 212.199C484.312 211.473 485.273 211.109 486.539 211.109C487.805 211.109 488.766 211.473 489.422 212.199C490.078 212.926 490.406 213.816 490.406 214.871C490.406 215.926 490.078 216.805 489.422 217.508C488.766 218.211 487.805 218.562 486.539 218.562C485.273 218.562 484.312 218.211 483.656 217.508C483.023 216.805 482.707 215.926 482.707 214.871ZM498.457 243.629C498.457 239.902 499.184 236.551 500.637 233.574C502.113 230.598 504.152 228.301 506.754 226.684C509.379 225.066 512.367 224.258 515.719 224.258C520.898 224.258 525.082 226.051 528.27 229.637C531.48 233.223 533.086 237.992 533.086 243.945V244.402C533.086 248.105 532.371 251.434 530.941 254.387C529.535 257.316 527.508 259.602 524.859 261.242C522.234 262.883 519.211 263.703 515.789 263.703C510.633 263.703 506.449 261.91 503.238 258.324C500.051 254.738 498.457 249.992 498.457 244.086V243.629ZM504.996 244.402C504.996 248.621 505.969 252.008 507.914 254.562C509.883 257.117 512.508 258.395 515.789 258.395C519.094 258.395 521.719 257.105 523.664 254.527C525.609 251.926 526.582 248.293 526.582 243.629C526.582 239.457 525.586 236.082 523.594 233.504C521.625 230.902 519 229.602 515.719 229.602C512.508 229.602 509.918 230.879 507.949 233.434C505.98 235.988 504.996 239.645 504.996 244.402ZM547.395 224.961L547.605 229.742C550.512 226.086 554.309 224.258 558.996 224.258C567.035 224.258 571.09 228.793 571.16 237.863V263H564.656V237.828C564.633 235.086 564 233.059 562.758 231.746C561.539 230.434 559.629 229.777 557.027 229.777C554.918 229.777 553.066 230.34 551.473 231.465C549.879 232.59 548.637 234.066 547.746 235.895V263H541.242V224.961H547.395ZM603.117 252.91C603.117 251.152 602.449 249.793 601.113 248.832C599.801 247.848 597.492 247.004 594.188 246.301C590.906 245.598 588.293 244.754 586.348 243.77C584.426 242.785 582.996 241.613 582.059 240.254C581.145 238.895 580.688 237.277 580.688 235.402C580.688 232.285 582 229.648 584.625 227.492C587.273 225.336 590.648 224.258 594.75 224.258C599.062 224.258 602.555 225.371 605.227 227.598C607.922 229.824 609.27 232.672 609.27 236.141H602.73C602.73 234.359 601.969 232.824 600.445 231.535C598.945 230.246 597.047 229.602 594.75 229.602C592.383 229.602 590.531 230.117 589.195 231.148C587.859 232.18 587.191 233.527 587.191 235.191C587.191 236.762 587.812 237.945 589.055 238.742C590.297 239.539 592.535 240.301 595.77 241.027C599.027 241.754 601.664 242.621 603.68 243.629C605.695 244.637 607.184 245.855 608.145 247.285C609.129 248.691 609.621 250.414 609.621 252.453C609.621 255.852 608.262 258.582 605.543 260.645C602.824 262.684 599.297 263.703 594.961 263.703C591.914 263.703 589.219 263.164 586.875 262.086C584.531 261.008 582.691 259.508 581.355 257.586C580.043 255.641 579.387 253.543 579.387 251.293H585.891C586.008 253.473 586.875 255.207 588.492 256.496C590.133 257.762 592.289 258.395 594.961 258.395C597.422 258.395 599.391 257.902 600.867 256.918C602.367 255.91 603.117 254.574 603.117 252.91Z" fill="black" fill-opacity="0.33"/>
</g>
<defs>
<clipPath id="clip0">
<rect width="796" height="500" fill="white"/>
</clipPath>
</defs>
</svg>
