<svg width="883" height="625" viewBox="0 0 883 625" fill="none" xmlns="http://www.w3.org/2000/svg">
<g clip-path="url(#clip0)">
<path d="M469.975 275.342L465.737 281.903L522.322 318.453L526.56 311.892L469.975 275.342Z" fill="#2F2E41"/>
<path d="M529.363 318.35C536.384 307.481 539.873 297.246 537.156 295.491C534.438 293.735 526.543 301.124 519.522 311.994C512.501 322.864 509.012 333.099 511.729 334.854C514.447 336.609 522.342 329.22 529.363 318.35Z" fill="#2F2E41"/>
<path d="M472.777 281.801C479.798 270.931 483.287 260.696 480.569 258.941C477.852 257.185 469.957 264.574 462.936 275.444C455.914 286.314 452.426 296.549 455.143 298.304C457.86 300.059 465.755 292.67 472.777 281.801Z" fill="#2F2E41"/>
<path d="M657.206 624.264C781.718 624.264 882.655 616.566 882.655 607.069C882.655 597.572 781.718 589.874 657.206 589.874C532.694 589.874 431.757 597.572 431.757 607.069C431.757 616.566 532.694 624.264 657.206 624.264Z" fill="#E6E6E6"/>
<path d="M225.449 541.849C349.961 541.849 450.897 534.15 450.897 524.654C450.897 515.157 349.961 507.459 225.449 507.459C100.937 507.459 0 515.157 0 524.654C0 534.15 100.937 541.849 225.449 541.849Z" fill="#E6E6E6"/>
<path d="M842.656 524.617C841.917 552.243 837.289 579.627 828.91 605.962C828.719 606.573 828.518 607.175 828.318 607.786H777.019C777.073 607.239 777.128 606.627 777.183 605.962C780.603 566.639 800.324 327.311 776.745 286.383C778.806 289.703 846.633 399.671 842.656 524.617Z" fill="#E6E6E6"/>
<path d="M838.807 605.962C838.379 606.573 837.932 607.184 837.476 607.786H798.992C799.284 607.266 799.622 606.655 800.014 605.962C806.371 594.487 825.189 560.181 842.656 524.617C861.428 486.398 878.65 446.729 877.199 432.372C877.646 435.61 890.635 534.322 838.807 605.962Z" fill="#E6E6E6"/>
<path d="M479.167 565.571C479.543 579.593 481.892 593.493 486.145 606.86C486.242 607.17 486.344 607.476 486.446 607.786H512.484C512.456 607.508 512.428 607.198 512.401 606.86C510.664 586.9 500.655 465.421 512.623 444.647C511.577 446.332 477.149 502.15 479.167 565.571Z" fill="#E6E6E6"/>
<path d="M481.121 606.86C481.339 607.17 481.566 607.48 481.797 607.786H501.331C501.182 607.522 501.011 607.212 500.812 606.86C497.585 601.035 488.034 583.622 479.167 565.57C469.639 546.171 460.898 526.036 461.634 518.748C461.407 520.392 454.814 570.497 481.121 606.86Z" fill="#E6E6E6"/>
<path d="M512.401 261.939C512.401 261.939 468.9 304.571 487.17 309.791C505.441 315.011 526.321 270.64 526.321 270.64L512.401 261.939Z" fill="#A0616A"/>
<path d="M555.902 405.493L550.682 429.854L589.833 431.594L583.743 405.493H555.902Z" fill="#A0616A"/>
<path d="M679.446 556.007L674.226 580.368L713.377 582.108L707.286 556.007H679.446Z" fill="#A0616A"/>
<path d="M610.714 242.799L614.194 256.719C614.194 256.719 517.621 237.579 522.841 286.3C528.062 335.021 550.682 382.003 550.682 382.003C550.682 382.003 548.942 397.663 552.422 400.273C555.902 402.883 552.422 411.584 552.422 411.584C552.422 411.584 584.613 415.934 585.483 408.103C585.949 402.869 585.656 397.594 584.613 392.443C584.613 392.443 586.353 392.443 584.613 383.743C582.873 375.043 575.844 304.877 570.624 295.307C570.624 295.307 616.804 330.671 641.165 326.321C641.165 326.321 637.685 361.122 651.605 407.233C665.525 453.345 665.525 458.565 665.525 458.565C665.525 458.565 682.056 546.437 677.706 556.878L676.836 561.228H709.027C709.027 561.228 706.416 515.116 709.027 509.026C711.637 502.936 711.637 450.735 696.846 424.634C686.372 406.15 688.323 352.557 694.052 331.374C698.863 313.585 700.078 299.893 697.258 281.682C694.242 262.207 685.236 252.027 674.226 242.799H610.714Z" fill="#2F2E41"/>
<path d="M636.38 111.86C653.678 111.86 667.7 97.8375 667.7 80.5394C667.7 63.2414 653.678 49.2186 636.38 49.2186C619.081 49.2186 605.059 63.2414 605.059 80.5394C605.059 97.8375 619.081 111.86 636.38 111.86Z" fill="#A0616A"/>
<path d="M628.114 102.725C628.114 102.725 637.685 130.566 636.815 135.786C635.945 141.006 664.655 125.346 664.655 125.346C664.655 125.346 653.345 97.5049 656.825 89.6747L628.114 102.725Z" fill="#A0616A"/>
<path d="M662.915 115.775L632.465 127.956L634.204 138.396C634.204 138.396 631.594 141.876 632.465 143.616C633.335 145.356 621.154 152.316 622.894 154.926C624.634 157.537 612.454 167.977 613.324 170.587C614.194 173.197 585.483 188.857 601.144 219.308C601.144 219.308 609.263 229.864 608.246 242.346C608.21 242.785 608.163 243.226 608.104 243.669C606.364 256.719 674.226 241.929 674.226 241.929V227.138C674.226 227.138 680.316 224.528 679.446 213.218C678.576 201.908 673.356 207.128 679.446 201.038C685.536 194.948 685.536 195.818 684.666 190.597C684.319 188.513 684.249 181.018 684.29 172.765C684.37 155.329 678.691 138.354 668.136 124.476V124.476L662.915 115.775Z" fill="#6C63FF"/>
<path d="M646.385 138.396L589.833 197.558L507.181 262.809L525.451 277.6L677.706 175.807C677.706 175.807 690.756 120.126 646.385 138.396Z" fill="#6C63FF"/>
<path d="M558.512 418.544C558.512 418.544 552.422 408.103 548.072 411.584L517.621 435.944C517.621 435.944 463.68 451.605 515.881 463.785C515.881 463.785 544.592 468.135 550.682 463.785C556.772 459.435 566.343 460.305 568.953 462.045C571.563 463.785 604.624 461.175 604.624 454.215C604.624 447.255 586.39 416.835 586.39 416.835C586.39 416.835 575.913 428.984 558.512 418.544Z" fill="#2F2E41"/>
<path d="M682.056 569.058C682.056 569.058 675.966 558.618 671.615 562.098L641.165 586.458C641.165 586.458 587.223 602.119 639.425 614.299C639.425 614.299 668.135 618.649 674.226 614.299C680.316 609.949 689.886 610.819 692.496 612.559C695.106 614.299 728.167 611.689 728.167 604.729C728.167 597.769 709.933 567.35 709.933 567.35C709.933 567.35 699.456 579.498 682.056 569.058Z" fill="#2F2E41"/>
<path d="M598.844 68.1181C598.844 68.1181 604.14 21.5661 649.433 34.7838C649.433 34.7838 681.475 28.2663 692.792 68.2854L704.279 110.243L699.021 107.51L696.697 112.86L688.306 115.157L684.56 108.064L682.981 116.795L625.03 128.512C625.03 128.512 644.629 106.119 644.49 73.3227L638.718 79.6623L598.844 68.1181Z" fill="#2F2E41"/>
<path d="M287.622 30.265H215.175V120.608H287.622V30.265Z" fill="#2F2E41"/>
<path d="M155.351 451.681L145.472 488.038L161.938 500.157L166.328 496.852L174.012 459.393L155.351 451.681Z" fill="#FFB8B8"/>
<path d="M279.389 448.376L276.096 492.445H296.952V451.681L279.389 448.376Z" fill="#FFB8B8"/>
<path d="M213.528 169.635V196.077L254.143 202.687L289.268 188.365L282.682 171.838L213.528 169.635Z" fill="#FFB8B8"/>
<path d="M246.459 191.67L211.333 185.06L202.552 256.673L180.598 345.914C180.598 345.914 147.668 421.934 152.059 439.562L154.254 445.07L152.059 454.986L174.012 463.8L182.794 449.477C182.794 449.477 189.38 459.393 200.356 438.46C211.333 417.527 257.436 287.521 257.436 287.521L265.119 309.556C263.132 316.354 262.756 323.521 264.022 330.489C266.217 341.507 268.412 375.661 268.412 375.661C268.412 375.661 256.338 435.155 272.803 439.562L276.096 452.783L299.147 454.986L303.538 441.765C303.538 441.765 325.492 434.053 320.003 395.492C314.515 356.931 312.32 230.231 312.32 230.231L290.695 176.715L246.459 191.67Z" fill="#2F2E41"/>
<path d="M152.058 485.835C152.058 485.835 146.57 481.428 144.375 482.53C142.179 483.631 119.128 513.378 119.128 513.378C119.128 513.378 94.9791 532.108 112.542 534.311C130.105 536.515 178.403 512.277 178.403 506.768C178.403 501.259 168.254 487.463 168.254 487.463C168.254 487.463 160.84 493.547 152.058 485.835Z" fill="#2F2E41"/>
<path d="M273.901 482.53C273.901 482.53 293.659 481.298 296.952 484.668C300.245 488.038 299.147 504.564 299.147 504.564C299.147 504.564 301.343 534.311 283.78 534.311C266.217 534.311 270.608 514.48 270.608 514.48L273.901 482.53Z" fill="#2F2E41"/>
<path d="M254.143 72.682C269.298 72.682 281.585 60.3503 281.585 45.1385C281.585 29.9266 269.298 17.5949 254.143 17.5949C238.987 17.5949 226.701 29.9266 226.701 45.1385C226.701 60.3503 238.987 72.682 254.143 72.682Z" fill="#FFB8B8"/>
<path d="M236.031 62.2154C236.031 62.2154 251.398 80.945 220.663 95.2677C189.928 109.59 242.617 169.084 242.617 169.084C242.617 169.084 304.087 145.948 298.599 100.776C298.599 100.776 261.277 94.1659 270.059 63.3172L236.031 62.2154Z" fill="#FFB8B8"/>
<path d="M219.566 94.1659C219.566 94.1659 194.319 90.8607 193.221 111.794C192.124 132.727 193.221 183.407 193.221 183.407C193.221 183.407 182.245 227.477 187.733 266.037C187.733 266.037 181.147 311.209 198.71 309.005C216.273 306.802 203.101 262.732 203.101 262.732L210.784 191.119L207.491 138.236L221.761 106.285L219.566 94.1659Z" fill="#FFB8B8"/>
<path d="M292.225 99.0332C292.225 99.0332 316.161 98.5729 317.259 116.201C318.357 133.829 309.575 187.814 309.575 187.814L296.403 194.424L284.329 156.965L292.225 99.0332Z" fill="#FFB8B8"/>
<path d="M299.147 189.467L296.952 194.975L303.538 211.501C303.538 211.501 277.194 232.434 279.389 236.841C281.584 241.248 293.659 231.333 293.659 231.333L311.222 240.147C311.222 240.147 325.492 224.722 318.906 210.4C315.257 202.7 312.205 194.731 309.776 186.565C309.776 186.565 300.245 186.161 299.147 189.467Z" fill="#FFB8B8"/>
<path d="M214.626 90.3098L211.333 126.667C211.333 126.667 195.966 142.092 213.528 163.025L211.333 179.551C211.333 179.551 251.947 177.347 259.631 179.551C267.315 181.754 291.044 177.777 291.044 177.777L291.464 165.228C291.464 165.228 302.44 149.804 299.147 126.667C295.854 103.531 299.147 95.8185 299.147 95.8185L291.464 94.7168C291.464 94.7168 286.524 128.32 252.496 131.625C252.496 131.625 210.235 135.481 222.31 90.3098L214.626 90.3098Z" fill="#E6E6E6"/>
<path d="M256.887 0.517906C256.887 0.517906 228.347 -1.25791 221.761 16.5551C215.175 34.3681 203.649 43.7198 203.649 43.7198C203.649 43.7198 185.494 56.3868 194.572 78.9993C194.572 78.9993 166.328 98.0492 184.989 114.971C184.989 114.971 183.891 131.894 194.868 143.472C194.868 143.472 203.649 147.925 200.356 150.597C197.063 153.269 222.31 151.488 220.115 127.44C217.919 103.393 232.738 86.4537 232.738 86.4537C232.738 86.4537 218.468 55.2753 225.054 44.5876C229.053 38.0986 230.77 33.2596 234.09 30.459C235.939 28.9361 237.653 27.2567 239.214 25.4395C240.686 23.5676 242.69 22.1851 244.963 21.4737C247.236 20.7623 249.671 20.7553 251.947 21.4536C261.826 24.1255 264.022 32.1413 264.022 32.1413C264.022 32.1413 271.157 51.2902 283.231 60.1967C295.306 69.1032 273.901 84.6894 273.901 84.6894C273.901 84.6894 277.621 103.04 287.287 113.904C296.952 124.769 284.501 134.239 283.78 135.456C282.133 138.236 275.558 155.786 302.72 155.863C302.72 155.863 309.027 142.581 317.808 134.566C326.589 126.55 320.003 103.393 320.003 103.393C320.003 103.393 333.176 95.3772 318.906 75.783C318.906 75.783 323.296 57.9701 311.222 46.3917C311.222 46.3917 294.208 -5.7166 256.887 0.517906Z" fill="#2F2E41"/>
<path d="M224.505 48.9945C226.021 48.9945 227.249 47.0215 227.249 44.5876C227.249 42.1537 226.021 40.1806 224.505 40.1806C222.99 40.1806 221.761 42.1537 221.761 44.5876C221.761 47.0215 222.99 48.9945 224.505 48.9945Z" fill="#FFB8B8"/>
<path d="M93.4334 499.035H26.0705V506.845H93.4334V499.035Z" fill="#2F2E41"/>
<path d="M93.4335 526.371C96.6686 526.371 99.2911 515.881 99.2911 502.94C99.2911 490 96.6686 479.51 93.4335 479.51C90.1984 479.51 87.5758 490 87.5758 502.94C87.5758 515.881 90.1984 526.371 93.4335 526.371Z" fill="#2F2E41"/>
<path d="M26.0705 526.371C29.3056 526.371 31.9282 515.881 31.9282 502.94C31.9282 490 29.3056 479.51 26.0705 479.51C22.8354 479.51 20.2128 490 20.2128 502.94C20.2128 515.881 22.8354 526.371 26.0705 526.371Z" fill="#2F2E41"/>
<path d="M77.4424 499.035H10.0795V506.845H77.4424V499.035Z" fill="#2F2E41"/>
<path d="M77.4424 526.371C80.6775 526.371 83.3001 515.881 83.3001 502.94C83.3001 490 80.6775 479.51 77.4424 479.51C74.2073 479.51 71.5848 490 71.5848 502.94C71.5848 515.881 74.2073 526.371 77.4424 526.371Z" fill="#2F2E41"/>
<path d="M10.0795 526.371C13.3146 526.371 15.9372 515.881 15.9372 502.94C15.9372 490 13.3146 479.51 10.0795 479.51C6.8444 479.51 4.22183 490 4.22183 502.94C4.22183 515.881 6.8444 526.371 10.0795 526.371Z" fill="#2F2E41"/>
<path d="M843.781 577.76H776.418V585.57H843.781V577.76Z" fill="#2F2E41"/>
<path d="M843.781 605.096C847.016 605.096 849.638 594.606 849.638 581.665C849.638 568.725 847.016 558.235 843.781 558.235C840.546 558.235 837.923 568.725 837.923 581.665C837.923 594.606 840.546 605.096 843.781 605.096Z" fill="#2F2E41"/>
<path d="M776.418 605.096C779.653 605.096 782.275 594.606 782.275 581.665C782.275 568.725 779.653 558.235 776.418 558.235C773.183 558.235 770.56 568.725 770.56 581.665C770.56 594.606 773.183 605.096 776.418 605.096Z" fill="#2F2E41"/>
<path d="M242.184 237H235.434V185.812H242.184V237ZM260.605 237H254.102V183H260.605V237ZM278.113 237H271.609V183H278.113V237ZM312.039 233.238C309.508 236.215 305.793 237.703 300.895 237.703C296.84 237.703 293.746 236.531 291.613 234.188C289.504 231.82 288.438 228.328 288.414 223.711V198.961H294.918V223.535C294.918 229.301 297.262 232.184 301.949 232.184C306.918 232.184 310.223 230.332 311.863 226.629V198.961H318.367V237H312.18L312.039 233.238ZM350.43 226.91C350.43 225.152 349.762 223.793 348.426 222.832C347.113 221.848 344.805 221.004 341.5 220.301C338.219 219.598 335.605 218.754 333.66 217.77C331.738 216.785 330.309 215.613 329.371 214.254C328.457 212.895 328 211.277 328 209.402C328 206.285 329.312 203.648 331.938 201.492C334.586 199.336 337.961 198.258 342.062 198.258C346.375 198.258 349.867 199.371 352.539 201.598C355.234 203.824 356.582 206.672 356.582 210.141H350.043C350.043 208.359 349.281 206.824 347.758 205.535C346.258 204.246 344.359 203.602 342.062 203.602C339.695 203.602 337.844 204.117 336.508 205.148C335.172 206.18 334.504 207.527 334.504 209.191C334.504 210.762 335.125 211.945 336.367 212.742C337.609 213.539 339.848 214.301 343.082 215.027C346.34 215.754 348.977 216.621 350.992 217.629C353.008 218.637 354.496 219.855 355.457 221.285C356.441 222.691 356.934 224.414 356.934 226.453C356.934 229.852 355.574 232.582 352.855 234.645C350.137 236.684 346.609 237.703 342.273 237.703C339.227 237.703 336.531 237.164 334.188 236.086C331.844 235.008 330.004 233.508 328.668 231.586C327.355 229.641 326.699 227.543 326.699 225.293H333.203C333.32 227.473 334.188 229.207 335.805 230.496C337.445 231.762 339.602 232.395 342.273 232.395C344.734 232.395 346.703 231.902 348.18 230.918C349.68 229.91 350.43 228.574 350.43 226.91ZM374.23 189.75V198.961H381.332V203.988H374.23V227.578C374.23 229.102 374.547 230.25 375.18 231.023C375.812 231.773 376.891 232.148 378.414 232.148C379.164 232.148 380.195 232.008 381.508 231.727V237C379.797 237.469 378.133 237.703 376.516 237.703C373.609 237.703 371.418 236.824 369.941 235.066C368.465 233.309 367.727 230.812 367.727 227.578V203.988H360.801V198.961H367.727V189.75H374.23ZM407.348 204.797C406.363 204.633 405.297 204.551 404.148 204.551C399.883 204.551 396.988 206.367 395.465 210V237H388.961V198.961H395.289L395.395 203.355C397.527 199.957 400.551 198.258 404.465 198.258C405.73 198.258 406.691 198.422 407.348 198.75V204.797ZM435.438 237C435.062 236.25 434.758 234.914 434.523 232.992C431.5 236.133 427.891 237.703 423.695 237.703C419.945 237.703 416.863 236.648 414.449 234.539C412.059 232.406 410.863 229.711 410.863 226.453C410.863 222.492 412.363 219.422 415.363 217.242C418.387 215.039 422.629 213.938 428.09 213.938H434.418V210.949C434.418 208.676 433.738 206.871 432.379 205.535C431.02 204.176 429.016 203.496 426.367 203.496C424.047 203.496 422.102 204.082 420.531 205.254C418.961 206.426 418.176 207.844 418.176 209.508H411.637C411.637 207.609 412.305 205.781 413.641 204.023C415 202.242 416.828 200.836 419.125 199.805C421.445 198.773 423.988 198.258 426.754 198.258C431.137 198.258 434.57 199.359 437.055 201.562C439.539 203.742 440.828 206.754 440.922 210.598V228.105C440.922 231.598 441.367 234.375 442.258 236.438V237H435.438ZM424.645 232.043C426.684 232.043 428.617 231.516 430.445 230.461C432.273 229.406 433.598 228.035 434.418 226.348V218.543H429.32C421.352 218.543 417.367 220.875 417.367 225.539C417.367 227.578 418.047 229.172 419.406 230.32C420.766 231.469 422.512 232.043 424.645 232.043ZM459.941 189.75V198.961H467.043V203.988H459.941V227.578C459.941 229.102 460.258 230.25 460.891 231.023C461.523 231.773 462.602 232.148 464.125 232.148C464.875 232.148 465.906 232.008 467.219 231.727V237C465.508 237.469 463.844 237.703 462.227 237.703C459.32 237.703 457.129 236.824 455.652 235.066C454.176 233.309 453.438 230.812 453.438 227.578V203.988H446.512V198.961H453.438V189.75H459.941ZM481.738 237H475.234V198.961H481.738V237ZM474.707 188.871C474.707 187.816 475.023 186.926 475.656 186.199C476.312 185.473 477.273 185.109 478.539 185.109C479.805 185.109 480.766 185.473 481.422 186.199C482.078 186.926 482.406 187.816 482.406 188.871C482.406 189.926 482.078 190.805 481.422 191.508C480.766 192.211 479.805 192.562 478.539 192.562C477.273 192.562 476.312 192.211 475.656 191.508C475.023 190.805 474.707 189.926 474.707 188.871ZM490.457 217.629C490.457 213.902 491.184 210.551 492.637 207.574C494.113 204.598 496.152 202.301 498.754 200.684C501.379 199.066 504.367 198.258 507.719 198.258C512.898 198.258 517.082 200.051 520.27 203.637C523.48 207.223 525.086 211.992 525.086 217.945V218.402C525.086 222.105 524.371 225.434 522.941 228.387C521.535 231.316 519.508 233.602 516.859 235.242C514.234 236.883 511.211 237.703 507.789 237.703C502.633 237.703 498.449 235.91 495.238 232.324C492.051 228.738 490.457 223.992 490.457 218.086V217.629ZM496.996 218.402C496.996 222.621 497.969 226.008 499.914 228.562C501.883 231.117 504.508 232.395 507.789 232.395C511.094 232.395 513.719 231.105 515.664 228.527C517.609 225.926 518.582 222.293 518.582 217.629C518.582 213.457 517.586 210.082 515.594 207.504C513.625 204.902 511 203.602 507.719 203.602C504.508 203.602 501.918 204.879 499.949 207.434C497.98 209.988 496.996 213.645 496.996 218.402ZM539.395 198.961L539.605 203.742C542.512 200.086 546.309 198.258 550.996 198.258C559.035 198.258 563.09 202.793 563.16 211.863V237H556.656V211.828C556.633 209.086 556 207.059 554.758 205.746C553.539 204.434 551.629 203.777 549.027 203.777C546.918 203.777 545.066 204.34 543.473 205.465C541.879 206.59 540.637 208.066 539.746 209.895V237H533.242V198.961H539.395ZM595.117 226.91C595.117 225.152 594.449 223.793 593.113 222.832C591.801 221.848 589.492 221.004 586.188 220.301C582.906 219.598 580.293 218.754 578.348 217.77C576.426 216.785 574.996 215.613 574.059 214.254C573.145 212.895 572.688 211.277 572.688 209.402C572.688 206.285 574 203.648 576.625 201.492C579.273 199.336 582.648 198.258 586.75 198.258C591.062 198.258 594.555 199.371 597.227 201.598C599.922 203.824 601.27 206.672 601.27 210.141H594.73C594.73 208.359 593.969 206.824 592.445 205.535C590.945 204.246 589.047 203.602 586.75 203.602C584.383 203.602 582.531 204.117 581.195 205.148C579.859 206.18 579.191 207.527 579.191 209.191C579.191 210.762 579.812 211.945 581.055 212.742C582.297 213.539 584.535 214.301 587.77 215.027C591.027 215.754 593.664 216.621 595.68 217.629C597.695 218.637 599.184 219.855 600.145 221.285C601.129 222.691 601.621 224.414 601.621 226.453C601.621 229.852 600.262 232.582 597.543 234.645C594.824 236.684 591.297 237.703 586.961 237.703C583.914 237.703 581.219 237.164 578.875 236.086C576.531 235.008 574.691 233.508 573.355 231.586C572.043 229.641 571.387 227.543 571.387 225.293H577.891C578.008 227.473 578.875 229.207 580.492 230.496C582.133 231.762 584.289 232.395 586.961 232.395C589.422 232.395 591.391 231.902 592.867 230.918C594.367 229.91 595.117 228.574 595.117 226.91Z" fill="black" fill-opacity="0.33"/>
</g>
<defs>
<clipPath id="clip0">
<rect width="882.655" height="624.264" fill="white"/>
</clipPath>
</defs>
</svg>
