<svg width="896" height="748" viewBox="0 0 896 748" fill="none" xmlns="http://www.w3.org/2000/svg">
<rect width="896" height="748" fill="#E5E5E5"/>
<g clip-path="url(#clip0)">
<path d="M41.634 712.738C54.0624 735.787 80.44 745.681 80.44 745.681C80.44 745.681 86.6671 718.206 74.2387 695.157C61.8103 672.108 35.4327 662.214 35.4327 662.214C35.4327 662.214 29.2056 689.689 41.634 712.738Z" fill="#2F2E41"/>
<path d="M50.1765 705.155C72.6149 718.655 81.2567 745.469 81.2567 745.469C81.2567 745.469 53.5186 750.396 31.0802 736.896C8.64174 723.396 0 696.582 0 696.582C0 696.582 27.7381 691.655 50.1765 705.155Z" fill="#6C63FF"/>
<path d="M553.248 35.9078H413.249V37.9078H553.248V35.9078Z" fill="#F2F2F2"/>
<path d="M515.248 37.4078H513.248V55.9078H515.248V37.4078Z" fill="#F2F2F2"/>
<path d="M454.249 37.4078H452.249V55.9078H454.249V37.4078Z" fill="#F2F2F2"/>
<path d="M624.248 131.908H484.249V133.908H624.248V131.908Z" fill="#F2F2F2"/>
<path d="M524.248 113.908H522.248V132.408H524.248V113.908Z" fill="#F2F2F2"/>
<path d="M585.248 113.908H583.248V132.408H585.248V113.908Z" fill="#F2F2F2"/>
<path d="M810.248 176.908H670.248V178.908H810.248V176.908Z" fill="#F2F2F2"/>
<path d="M710.248 158.908H708.248V177.408H710.248V158.908Z" fill="#F2F2F2"/>
<path d="M771.248 158.908H769.248V177.408H771.248V158.908Z" fill="#F2F2F2"/>
<path d="M796.248 640.908H656.248V642.908H796.248V640.908Z" fill="#F2F2F2"/>
<path d="M696.248 622.908H694.248V641.408H696.248V622.908Z" fill="#F2F2F2"/>
<path d="M757.248 622.908H755.248V641.408H757.248V622.908Z" fill="#F2F2F2"/>
<path d="M557.248 319.908H417.249V321.908H557.248V319.908Z" fill="#F2F2F2"/>
<path d="M457.249 301.908H455.249V320.408H457.249V301.908Z" fill="#F2F2F2"/>
<path d="M518.248 301.908H516.248V320.408H518.248V301.908Z" fill="#F2F2F2"/>
<path d="M601.248 560.908H461.249V562.908H601.248V560.908Z" fill="#F2F2F2"/>
<path d="M501.249 542.908H499.249V561.408H501.249V542.908Z" fill="#F2F2F2"/>
<path d="M562.248 542.908H560.248V561.408H562.248V542.908Z" fill="#F2F2F2"/>
<path d="M825.248 487.908H685.248V489.908H825.248V487.908Z" fill="#F2F2F2"/>
<path d="M725.248 469.908H723.248V488.408H725.248V469.908Z" fill="#F2F2F2"/>
<path d="M786.248 469.908H784.248V488.408H786.248V469.908Z" fill="#F2F2F2"/>
<path d="M362.06 702.184H125.274V700.481H360.356V617.861H145.18L134.727 596.084L136.263 595.347L146.252 616.157H362.06V702.184Z" fill="#2F2E41"/>
<path d="M156.789 743.92C166.667 743.92 174.675 735.912 174.675 726.033C174.675 716.154 166.667 708.146 156.789 708.146C146.91 708.146 138.902 716.154 138.902 726.033C138.902 735.912 146.91 743.92 156.789 743.92Z" fill="#3F3D56"/>
<path d="M333.101 743.92C342.979 743.92 350.987 735.912 350.987 726.033C350.987 716.154 342.979 708.146 333.101 708.146C323.222 708.146 315.214 716.154 315.214 726.033C315.214 735.912 323.222 743.92 333.101 743.92Z" fill="#3F3D56"/>
<path d="M540.927 357.226C547.043 357.226 552 352.268 552 346.153C552 340.038 547.043 335.08 540.927 335.08C534.812 335.08 529.854 340.038 529.854 346.153C529.854 352.268 534.812 357.226 540.927 357.226Z" fill="#3F3D56"/>
<path d="M387.385 589.753H121.237L63.6484 401.517H446.693L446.344 402.624L387.385 589.753ZM122.497 588.05H386.136L444.37 403.22H65.9508L122.497 588.05Z" fill="#2F2E41"/>
<path d="M366.61 579.958H132.842L82.26 413.015H418.701L418.395 413.998L366.61 579.958Z" fill="#F2F2F2"/>
<path d="M451.465 384.7L449.818 384.263L461.059 341.894H526.448V343.598H462.37L451.465 384.7Z" fill="#2F2E41"/>
<path d="M427.552 458.584H82.2584V460.287H427.552V458.584Z" fill="#2F2E41"/>
<path d="M407.777 521.344H101.459V523.047H407.777V521.344Z" fill="#2F2E41"/>
<path d="M256.017 402.368H254.314V588.901H256.017V402.368Z" fill="#2F2E41"/>
<path d="M332.286 402.315L320.058 588.843L321.758 588.955L333.986 402.426L332.286 402.315Z" fill="#2F2E41"/>
<path d="M178.081 402.313L176.38 402.424L188.538 588.957L190.238 588.846L178.081 402.313Z" fill="#2F2E41"/>
<path d="M896 745H0V747H896V745Z" fill="#2F2E41"/>
<path d="M595.411 61.876C595.411 61.876 610.029 103.482 601.033 109.883C592.037 116.284 631.394 168.559 631.394 168.559L678.623 155.757L652.76 112.017C652.76 112.017 649.386 68.2769 649.386 61.876C649.386 55.475 595.411 61.876 595.411 61.876Z" fill="#A0616A"/>
<path opacity="0.1" d="M595.411 61.876C595.411 61.876 610.029 103.482 601.033 109.883C592.037 116.284 631.394 168.559 631.394 168.559L678.623 155.757L652.76 112.017C652.76 112.017 649.386 68.2769 649.386 61.876C649.386 55.475 595.411 61.876 595.411 61.876Z" fill="black"/>
<path d="M570.874 358.454C570.874 358.454 566.606 411.795 570.874 439.533C575.141 467.27 581.542 544.082 581.542 544.082C581.542 544.082 581.542 689.171 605.012 691.304C628.482 693.438 645.552 695.572 647.685 687.037C649.819 678.502 637.017 674.235 643.418 669.968C649.819 665.7 651.953 650.765 643.418 633.696C634.883 616.626 643.418 443.8 643.418 443.8L683.957 552.617C683.957 552.617 688.225 642.23 692.492 655.032C696.759 667.834 688.225 691.304 703.16 693.438C718.096 695.572 735.165 682.77 743.7 678.502C752.234 674.235 730.898 674.235 735.165 672.101C739.432 669.968 752.234 663.567 747.967 661.433C743.7 659.299 739.432 556.884 739.432 556.884C739.432 556.884 727.697 338.184 712.762 329.65C697.826 321.115 688.225 335.815 688.225 335.815L570.874 358.454Z" fill="#2F2E41"/>
<path d="M609.279 682.77V699.839C609.279 699.839 590.077 746.238 609.279 746.238C628.482 746.238 643.418 751.047 643.418 744.646V687.037L609.279 682.77Z" fill="#2F2E41"/>
<path d="M735.165 682.739V699.809C735.165 699.809 754.368 746.208 735.165 746.208C715.962 746.208 701.027 751.016 701.027 744.615V687.007L735.165 682.739Z" fill="#2F2E41"/>
<path d="M625.282 92.814C646.493 92.814 663.688 75.6191 663.688 54.4082C663.688 33.1973 646.493 16.0024 625.282 16.0024C604.071 16.0024 586.876 33.1973 586.876 54.4082C586.876 75.6191 604.071 92.814 625.282 92.814Z" fill="#A0616A"/>
<path d="M613.547 125.886C613.547 125.886 624.215 157.89 641.284 151.49L658.354 145.089L688.225 349.919C688.225 349.919 664.754 384.058 630.616 362.721C596.477 341.385 613.547 125.886 613.547 125.886Z" fill="#6C63FF"/>
<path d="M643.418 119.485L653.019 99.215C653.019 99.215 709.561 125.886 718.096 134.42C726.63 142.955 726.63 155.757 726.63 155.757L711.695 209.098C711.695 209.098 715.962 326.449 715.962 330.717C715.962 334.984 730.898 358.454 720.229 349.919C709.561 341.385 707.428 332.85 698.893 345.652C690.358 358.454 671.155 373.39 671.155 373.39L643.418 119.485Z" fill="#3F3D56"/>
<path d="M718.096 273.108L711.695 332.85C711.695 332.85 673.289 366.989 681.824 369.122C690.358 371.256 694.626 362.721 694.626 362.721C694.626 362.721 709.561 377.657 718.096 369.122C726.63 360.588 747.967 279.509 747.967 279.509L718.096 273.108Z" fill="#A0616A"/>
<path d="M626.1 0.129871C617.586 -0.174499 608.475 -0.32506 601.296 4.26308C597.993 6.56567 595.096 9.40154 592.724 12.6546C585.732 21.4931 579.691 32.6139 582.288 43.58L585.304 42.4036C585.304 45.3308 584.654 48.2214 583.399 50.8662C583.824 49.6311 585.246 51.6277 584.866 52.877L581.543 63.7777C587.005 61.7753 593.8 65.8296 594.631 71.5874C595.011 58.9262 596.324 44.4078 606.595 36.9941C611.775 33.2554 618.33 32.1141 624.637 31.1006C630.455 30.1656 636.555 29.274 642.128 31.1895C647.701 33.1049 652.446 38.8045 651.183 44.5604C653.753 43.6752 656.626 45.466 657.896 47.8689C659.166 50.2718 659.233 53.1064 659.271 55.824C662.01 57.7598 665.128 53.9158 666.244 50.7529C668.864 43.3285 671.193 35.4255 669.782 27.6799C668.37 19.9343 662.058 12.5322 654.185 12.5059C655.141 11.4562 655.651 10.076 655.607 8.65715L649.118 8.10884C650.765 7.87558 652.28 7.07679 653.404 5.8493C650.798 8.71623 630.313 0.280481 626.1 0.129871Z" fill="#2F2E41"/>
<path d="M624.215 113.084C624.215 113.084 606.846 96.0629 600.595 97.1055C594.344 98.1481 585.809 113.084 585.809 113.084C585.809 113.084 534.602 130.153 536.735 147.222C538.869 164.291 562.339 247.504 562.339 247.504C562.339 247.504 581.542 347.786 564.473 358.454C547.403 369.122 645.552 396.86 647.685 384.058C649.819 371.256 654.086 243.237 647.685 224.034C641.284 204.831 624.215 113.084 624.215 113.084Z" fill="#3F3D56"/>
<path d="M698.893 147.222H725.276C725.276 147.222 743.7 228.301 745.833 236.836C747.967 245.37 752.234 285.91 750.101 285.91C747.967 285.91 705.294 277.375 705.294 283.776L698.893 147.222Z" fill="#3F3D56"/>
<path d="M698 348H597C587.144 302.66 586.32 258.853 597 217H698C681.701 258.101 680.682 301.607 698 348Z" fill="#F2F2F2"/>
<path d="M555.938 292.311L585.809 305.113C585.809 305.113 643.418 313.647 643.418 290.177C643.418 266.707 585.809 279.509 585.809 279.509L566.605 273.369L555.938 292.311Z" fill="#A0616A"/>
<path d="M562.339 134.42L536.735 140.821L517.532 253.905C517.532 253.905 511.131 283.776 521.8 285.91C532.468 288.043 562.339 305.113 562.339 305.113C562.339 305.113 566.606 273.108 575.141 273.108L553.804 256.039L566.606 181.361L562.339 134.42Z" fill="#3F3D56"/>
<path d="M200.248 352.908H60.2485V354.908H200.248V352.908Z" fill="#F2F2F2"/>
<path d="M100.248 334.908H98.2485V353.408H100.248V334.908Z" fill="#F2F2F2"/>
<path d="M161.249 334.908H159.249V353.408H161.249V334.908Z" fill="#F2F2F2"/>
<path d="M249.248 56.9078H109.248V58.9078H249.248V56.9078Z" fill="#F2F2F2"/>
<path d="M211.249 58.4078H209.249V76.9078H211.249V58.4078Z" fill="#F2F2F2"/>
<path d="M150.249 58.4078H148.249V76.9078H150.249V58.4078Z" fill="#F2F2F2"/>
<path d="M390.249 253.908H250.249V255.908H390.249V253.908Z" fill="#F2F2F2"/>
<path d="M352.249 255.408H350.249V273.908H352.249V255.408Z" fill="#F2F2F2"/>
<path d="M291.249 255.408H289.249V273.908H291.249V255.408Z" fill="#F2F2F2"/>
<path d="M152.248 252.908H12.2485V254.908H152.248V252.908Z" fill="#F2F2F2"/>
<path d="M114.248 254.408H112.248V272.908H114.248V254.408Z" fill="#F2F2F2"/>
<path d="M53.2485 254.408H51.2485V272.908H53.2485V254.408Z" fill="#F2F2F2"/>
<path d="M320.249 152.908H180.249V154.908H320.249V152.908Z" fill="#F2F2F2"/>
<path d="M220.249 134.908H218.249V153.408H220.249V134.908Z" fill="#F2F2F2"/>
<path d="M281.249 134.908H279.249V153.408H281.249V134.908Z" fill="#F2F2F2"/>
<path d="M283.184 328H276.434V276.812H283.184V328ZM301.605 328H295.102V274H301.605V328ZM319.113 328H312.609V274H319.113V328ZM353.039 324.238C350.508 327.215 346.793 328.703 341.895 328.703C337.84 328.703 334.746 327.531 332.613 325.188C330.504 322.82 329.438 319.328 329.414 314.711V289.961H335.918V314.535C335.918 320.301 338.262 323.184 342.949 323.184C347.918 323.184 351.223 321.332 352.863 317.629V289.961H359.367V328H353.18L353.039 324.238ZM391.43 317.91C391.43 316.152 390.762 314.793 389.426 313.832C388.113 312.848 385.805 312.004 382.5 311.301C379.219 310.598 376.605 309.754 374.66 308.77C372.738 307.785 371.309 306.613 370.371 305.254C369.457 303.895 369 302.277 369 300.402C369 297.285 370.312 294.648 372.938 292.492C375.586 290.336 378.961 289.258 383.062 289.258C387.375 289.258 390.867 290.371 393.539 292.598C396.234 294.824 397.582 297.672 397.582 301.141H391.043C391.043 299.359 390.281 297.824 388.758 296.535C387.258 295.246 385.359 294.602 383.062 294.602C380.695 294.602 378.844 295.117 377.508 296.148C376.172 297.18 375.504 298.527 375.504 300.191C375.504 301.762 376.125 302.945 377.367 303.742C378.609 304.539 380.848 305.301 384.082 306.027C387.34 306.754 389.977 307.621 391.992 308.629C394.008 309.637 395.496 310.855 396.457 312.285C397.441 313.691 397.934 315.414 397.934 317.453C397.934 320.852 396.574 323.582 393.855 325.645C391.137 327.684 387.609 328.703 383.273 328.703C380.227 328.703 377.531 328.164 375.188 327.086C372.844 326.008 371.004 324.508 369.668 322.586C368.355 320.641 367.699 318.543 367.699 316.293H374.203C374.32 318.473 375.188 320.207 376.805 321.496C378.445 322.762 380.602 323.395 383.273 323.395C385.734 323.395 387.703 322.902 389.18 321.918C390.68 320.91 391.43 319.574 391.43 317.91ZM415.23 280.75V289.961H422.332V294.988H415.23V318.578C415.23 320.102 415.547 321.25 416.18 322.023C416.812 322.773 417.891 323.148 419.414 323.148C420.164 323.148 421.195 323.008 422.508 322.727V328C420.797 328.469 419.133 328.703 417.516 328.703C414.609 328.703 412.418 327.824 410.941 326.066C409.465 324.309 408.727 321.812 408.727 318.578V294.988H401.801V289.961H408.727V280.75H415.23ZM448.348 295.797C447.363 295.633 446.297 295.551 445.148 295.551C440.883 295.551 437.988 297.367 436.465 301V328H429.961V289.961H436.289L436.395 294.355C438.527 290.957 441.551 289.258 445.465 289.258C446.73 289.258 447.691 289.422 448.348 289.75V295.797ZM476.438 328C476.062 327.25 475.758 325.914 475.523 323.992C472.5 327.133 468.891 328.703 464.695 328.703C460.945 328.703 457.863 327.648 455.449 325.539C453.059 323.406 451.863 320.711 451.863 317.453C451.863 313.492 453.363 310.422 456.363 308.242C459.387 306.039 463.629 304.938 469.09 304.938H475.418V301.949C475.418 299.676 474.738 297.871 473.379 296.535C472.02 295.176 470.016 294.496 467.367 294.496C465.047 294.496 463.102 295.082 461.531 296.254C459.961 297.426 459.176 298.844 459.176 300.508H452.637C452.637 298.609 453.305 296.781 454.641 295.023C456 293.242 457.828 291.836 460.125 290.805C462.445 289.773 464.988 289.258 467.754 289.258C472.137 289.258 475.57 290.359 478.055 292.562C480.539 294.742 481.828 297.754 481.922 301.598V319.105C481.922 322.598 482.367 325.375 483.258 327.438V328H476.438ZM465.645 323.043C467.684 323.043 469.617 322.516 471.445 321.461C473.273 320.406 474.598 319.035 475.418 317.348V309.543H470.32C462.352 309.543 458.367 311.875 458.367 316.539C458.367 318.578 459.047 320.172 460.406 321.32C461.766 322.469 463.512 323.043 465.645 323.043ZM500.941 280.75V289.961H508.043V294.988H500.941V318.578C500.941 320.102 501.258 321.25 501.891 322.023C502.523 322.773 503.602 323.148 505.125 323.148C505.875 323.148 506.906 323.008 508.219 322.727V328C506.508 328.469 504.844 328.703 503.227 328.703C500.32 328.703 498.129 327.824 496.652 326.066C495.176 324.309 494.438 321.812 494.438 318.578V294.988H487.512V289.961H494.438V280.75H500.941ZM522.738 328H516.234V289.961H522.738V328ZM515.707 279.871C515.707 278.816 516.023 277.926 516.656 277.199C517.312 276.473 518.273 276.109 519.539 276.109C520.805 276.109 521.766 276.473 522.422 277.199C523.078 277.926 523.406 278.816 523.406 279.871C523.406 280.926 523.078 281.805 522.422 282.508C521.766 283.211 520.805 283.562 519.539 283.562C518.273 283.562 517.312 283.211 516.656 282.508C516.023 281.805 515.707 280.926 515.707 279.871ZM531.457 308.629C531.457 304.902 532.184 301.551 533.637 298.574C535.113 295.598 537.152 293.301 539.754 291.684C542.379 290.066 545.367 289.258 548.719 289.258C553.898 289.258 558.082 291.051 561.27 294.637C564.48 298.223 566.086 302.992 566.086 308.945V309.402C566.086 313.105 565.371 316.434 563.941 319.387C562.535 322.316 560.508 324.602 557.859 326.242C555.234 327.883 552.211 328.703 548.789 328.703C543.633 328.703 539.449 326.91 536.238 323.324C533.051 319.738 531.457 314.992 531.457 309.086V308.629ZM537.996 309.402C537.996 313.621 538.969 317.008 540.914 319.562C542.883 322.117 545.508 323.395 548.789 323.395C552.094 323.395 554.719 322.105 556.664 319.527C558.609 316.926 559.582 313.293 559.582 308.629C559.582 304.457 558.586 301.082 556.594 298.504C554.625 295.902 552 294.602 548.719 294.602C545.508 294.602 542.918 295.879 540.949 298.434C538.98 300.988 537.996 304.645 537.996 309.402ZM580.395 289.961L580.605 294.742C583.512 291.086 587.309 289.258 591.996 289.258C600.035 289.258 604.09 293.793 604.16 302.863V328H597.656V302.828C597.633 300.086 597 298.059 595.758 296.746C594.539 295.434 592.629 294.777 590.027 294.777C587.918 294.777 586.066 295.34 584.473 296.465C582.879 297.59 581.637 299.066 580.746 300.895V328H574.242V289.961H580.395ZM636.117 317.91C636.117 316.152 635.449 314.793 634.113 313.832C632.801 312.848 630.492 312.004 627.188 311.301C623.906 310.598 621.293 309.754 619.348 308.77C617.426 307.785 615.996 306.613 615.059 305.254C614.145 303.895 613.688 302.277 613.688 300.402C613.688 297.285 615 294.648 617.625 292.492C620.273 290.336 623.648 289.258 627.75 289.258C632.062 289.258 635.555 290.371 638.227 292.598C640.922 294.824 642.27 297.672 642.27 301.141H635.73C635.73 299.359 634.969 297.824 633.445 296.535C631.945 295.246 630.047 294.602 627.75 294.602C625.383 294.602 623.531 295.117 622.195 296.148C620.859 297.18 620.191 298.527 620.191 300.191C620.191 301.762 620.812 302.945 622.055 303.742C623.297 304.539 625.535 305.301 628.77 306.027C632.027 306.754 634.664 307.621 636.68 308.629C638.695 309.637 640.184 310.855 641.145 312.285C642.129 313.691 642.621 315.414 642.621 317.453C642.621 320.852 641.262 323.582 638.543 325.645C635.824 327.684 632.297 328.703 627.961 328.703C624.914 328.703 622.219 328.164 619.875 327.086C617.531 326.008 615.691 324.508 614.355 322.586C613.043 320.641 612.387 318.543 612.387 316.293H618.891C619.008 318.473 619.875 320.207 621.492 321.496C623.133 322.762 625.289 323.395 627.961 323.395C630.422 323.395 632.391 322.902 633.867 321.918C635.367 320.91 636.117 319.574 636.117 317.91Z" fill="black" fill-opacity="0.33"/>
</g>
<defs>
<clipPath id="clip0">
<rect width="896" height="747.971" fill="white"/>
</clipPath>
</defs>
</svg>
