<svg width="896" height="530" viewBox="0 0 896 530" fill="none" xmlns="http://www.w3.org/2000/svg">
<rect width="896" height="530" fill="#E5E5E5"/>
<g clip-path="url(#clip0)">
<path d="M674.067 437.341C674.067 437.341 647.69 447.235 635.261 470.284C622.833 493.333 629.06 520.809 629.06 520.809C629.06 520.809 655.438 510.914 667.866 487.865C680.294 464.816 674.067 437.341 674.067 437.341Z" fill="#3F3D56"/>
<path d="M709.5 471.709C709.5 471.709 700.858 498.523 678.42 512.023C655.981 525.523 628.243 520.596 628.243 520.596C628.243 520.596 636.885 493.782 659.323 480.282C681.762 466.782 709.5 471.709 709.5 471.709Z" fill="#6C63FF"/>
<path d="M896 527.113H0V529.113H896V527.113Z" fill="#2F2E41"/>
<path d="M361.872 435.088C349.098 432.754 336.934 427.838 326.124 420.641L327.306 419.028C337.891 426.063 349.8 430.863 362.305 433.133C381.237 436.535 409.566 434.865 437.012 407.606C490.426 354.558 541.405 349.215 541.914 349.168L542.1 351.16C541.599 351.207 491.332 356.477 438.422 409.026C416.809 430.49 394.63 436.428 376.704 436.428C371.73 436.424 366.767 435.975 361.872 435.088Z" fill="#2F2E41"/>
<path d="M515.153 393.113C521.78 393.113 527.153 387.74 527.153 381.113C527.153 374.485 521.78 369.113 515.153 369.113C508.525 369.113 503.153 374.485 503.153 381.113C503.153 387.74 508.525 393.113 515.153 393.113Z" fill="#2F2E41"/>
<path d="M430.153 449.113C436.78 449.113 442.153 443.74 442.153 437.113C442.153 430.485 436.78 425.113 430.153 425.113C423.525 425.113 418.153 430.485 418.153 437.113C418.153 443.74 423.525 449.113 430.153 449.113Z" fill="#2F2E41"/>
<path d="M683.5 528.113C683.5 528.113 666.038 522.7 631.239 517.271L632 506.613C638 446.613 598 356.613 598 356.613C613.281 401.33 620.549 448.394 619.469 495.638C614.132 486.325 603.821 476.279 584 470.113C584 470.113 609.778 492.219 617.159 515.215C583.315 510.733 549.262 507.99 515.137 506.999L524 486.613L507 503.613C507 503.613 500 452.613 485 450.613L496 500.613C496 500.613 483 490.613 480 491.613L487.397 506.408C437.578 505.891 378.313 508.143 309.632 515.36L318 496.113L301 513.113C301 513.113 294 462.113 279 460.113L290 510.113C290 510.113 277 500.113 274 501.113L282.643 518.399C260.198 521.068 236.818 524.306 212.5 528.113H683.5Z" fill="#3F3D56"/>
<path d="M407.648 44.4911C396.749 56.2389 425.246 84.7506 425.246 84.7506C425.246 84.7506 367.539 94.4812 372.118 93.8915C376.697 93.3018 374.324 44.76 374.324 44.76C374.324 44.76 418.548 32.7432 407.648 44.4911Z" fill="#A0616A"/>
<path d="M447.812 170.222L397.673 195.836L370.444 211.442C370.444 211.442 338.345 251.874 332.357 275.835C326.368 299.796 358.286 344.082 361.9 348.658C363.764 350.991 365.433 353.474 366.889 356.081C368.137 357.937 378.919 355.54 390.693 353.016C402.467 350.491 389.13 333.052 389.13 333.052C389.13 333.052 374.103 294.657 372.983 293.793C371.938 292.986 368.382 286.346 370.94 283.44C373.339 280.873 375.191 277.846 376.385 274.542C377.376 271.7 378.787 269.023 380.572 266.6C380.572 266.6 425.933 229.764 440.1 217.222C454.267 204.68 491.929 212.564 491.929 212.564C491.929 212.564 474.148 280.764 469.7 285.37C465.251 289.976 464.771 294.071 466.784 301.877C468.798 309.684 495.066 302.268 495.066 302.268L504.766 275.812C504.766 275.812 520.515 241.52 529.065 206.138C533.341 188.447 525.177 177.903 515.945 171.783C507.067 166.025 496.321 163.886 485.915 165.805L439.566 173.936L471.714 160.086L447.812 170.222Z" fill="#2F2E41"/>
<path d="M262.878 104.304L203.024 85.7979C203.024 85.7979 178.845 54.631 190.235 49.131C201.626 43.631 215.887 76.0752 215.887 76.0752L257.573 78.7727L262.878 104.304Z" fill="#A0616A"/>
<path d="M514.494 71.8997L567.706 38.832C567.706 38.832 583.2 2.55583 570.787 0.12136C558.374 -2.31311 552.799 32.6857 552.799 32.6857L513.157 45.8572L514.494 71.8997Z" fill="#A0616A"/>
<path d="M524.453 34.5131L525.467 73.7046L435.78 89.7296C448.972 117.954 445.621 150.076 478.827 164.156L366.903 218.9C371.89 175.862 351.085 143.444 331.64 103.141C307.954 94.5554 280.444 100.851 251.303 113.488L246.066 72.8233L369.945 63.9273L390.293 71.7066L412.112 62.5299C444.179 53.0024 490.221 34.8887 524.453 34.5131Z" fill="#6C63FF"/>
<path d="M468.64 300.63C465.92 302.997 463.388 322.48 463.29 329.55C463.193 336.621 472.502 338.447 477.589 338.8C482.676 339.153 482.067 342.256 485.426 344.848C488.784 347.441 499.822 347.027 514.316 342.136C528.81 337.245 504.563 321.21 502.452 320.474C500.34 319.738 491.452 297.692 491.452 297.692C491.452 297.692 471.36 298.263 468.64 300.63Z" fill="#2F2E41"/>
<path d="M389.368 345.12C392.599 346.72 399.985 364.926 401.871 371.741C403.757 378.556 395.214 382.681 390.382 384.312C385.551 385.942 386.926 388.79 384.334 392.148C381.741 395.507 370.959 397.904 355.699 396.844C340.439 395.785 359.832 374.13 361.687 372.883C363.543 371.636 366.556 348.058 366.556 348.058C366.556 348.058 386.137 343.52 389.368 345.12Z" fill="#2F2E41"/>
<path d="M389.471 59.4249C402.723 59.4249 413.467 48.6816 413.467 35.429C413.467 22.1765 402.723 11.4332 389.471 11.4332C376.218 11.4332 365.475 22.1765 365.475 35.429C365.475 48.6816 376.218 59.4249 389.471 59.4249Z" fill="#A0616A"/>
<path d="M361.734 33.0221C360.297 30.1554 359.48 27.0181 359.337 23.8146C359.193 20.611 359.726 17.4131 360.901 14.4293C363.26 8.61402 368.492 2.77363 379.774 1.02932C404.388 -2.7764 417.486 14.4647 416.798 20.1038C416.11 25.7429 412.805 39.3743 412.805 39.3743C412.805 39.3743 414.281 26.4681 407.947 26.0123C401.612 25.5565 377.045 23.634 370.824 30.1573C369.039 31.9291 367.755 34.1423 367.103 36.5716C366.452 39.001 366.455 41.5596 367.114 43.9871L361.734 33.0221Z" fill="#2F2E41"/>
<path d="M191.184 265H184.434V213.812H191.184V265ZM209.605 265H203.102V211H209.605V265ZM227.113 265H220.609V211H227.113V265ZM261.039 261.238C258.508 264.215 254.793 265.703 249.895 265.703C245.84 265.703 242.746 264.531 240.613 262.188C238.504 259.82 237.438 256.328 237.414 251.711V226.961H243.918V251.535C243.918 257.301 246.262 260.184 250.949 260.184C255.918 260.184 259.223 258.332 260.863 254.629V226.961H267.367V265H261.18L261.039 261.238ZM299.43 254.91C299.43 253.152 298.762 251.793 297.426 250.832C296.113 249.848 293.805 249.004 290.5 248.301C287.219 247.598 284.605 246.754 282.66 245.77C280.738 244.785 279.309 243.613 278.371 242.254C277.457 240.895 277 239.277 277 237.402C277 234.285 278.312 231.648 280.938 229.492C283.586 227.336 286.961 226.258 291.062 226.258C295.375 226.258 298.867 227.371 301.539 229.598C304.234 231.824 305.582 234.672 305.582 238.141H299.043C299.043 236.359 298.281 234.824 296.758 233.535C295.258 232.246 293.359 231.602 291.062 231.602C288.695 231.602 286.844 232.117 285.508 233.148C284.172 234.18 283.504 235.527 283.504 237.191C283.504 238.762 284.125 239.945 285.367 240.742C286.609 241.539 288.848 242.301 292.082 243.027C295.34 243.754 297.977 244.621 299.992 245.629C302.008 246.637 303.496 247.855 304.457 249.285C305.441 250.691 305.934 252.414 305.934 254.453C305.934 257.852 304.574 260.582 301.855 262.645C299.137 264.684 295.609 265.703 291.273 265.703C288.227 265.703 285.531 265.164 283.188 264.086C280.844 263.008 279.004 261.508 277.668 259.586C276.355 257.641 275.699 255.543 275.699 253.293H282.203C282.32 255.473 283.188 257.207 284.805 258.496C286.445 259.762 288.602 260.395 291.273 260.395C293.734 260.395 295.703 259.902 297.18 258.918C298.68 257.91 299.43 256.574 299.43 254.91ZM323.23 217.75V226.961H330.332V231.988H323.23V255.578C323.23 257.102 323.547 258.25 324.18 259.023C324.812 259.773 325.891 260.148 327.414 260.148C328.164 260.148 329.195 260.008 330.508 259.727V265C328.797 265.469 327.133 265.703 325.516 265.703C322.609 265.703 320.418 264.824 318.941 263.066C317.465 261.309 316.727 258.812 316.727 255.578V231.988H309.801V226.961H316.727V217.75H323.23ZM356.348 232.797C355.363 232.633 354.297 232.551 353.148 232.551C348.883 232.551 345.988 234.367 344.465 238V265H337.961V226.961H344.289L344.395 231.355C346.527 227.957 349.551 226.258 353.465 226.258C354.73 226.258 355.691 226.422 356.348 226.75V232.797ZM384.438 265C384.062 264.25 383.758 262.914 383.523 260.992C380.5 264.133 376.891 265.703 372.695 265.703C368.945 265.703 365.863 264.648 363.449 262.539C361.059 260.406 359.863 257.711 359.863 254.453C359.863 250.492 361.363 247.422 364.363 245.242C367.387 243.039 371.629 241.938 377.09 241.938H383.418V238.949C383.418 236.676 382.738 234.871 381.379 233.535C380.02 232.176 378.016 231.496 375.367 231.496C373.047 231.496 371.102 232.082 369.531 233.254C367.961 234.426 367.176 235.844 367.176 237.508H360.637C360.637 235.609 361.305 233.781 362.641 232.023C364 230.242 365.828 228.836 368.125 227.805C370.445 226.773 372.988 226.258 375.754 226.258C380.137 226.258 383.57 227.359 386.055 229.562C388.539 231.742 389.828 234.754 389.922 238.598V256.105C389.922 259.598 390.367 262.375 391.258 264.438V265H384.438ZM373.645 260.043C375.684 260.043 377.617 259.516 379.445 258.461C381.273 257.406 382.598 256.035 383.418 254.348V246.543H378.32C370.352 246.543 366.367 248.875 366.367 253.539C366.367 255.578 367.047 257.172 368.406 258.32C369.766 259.469 371.512 260.043 373.645 260.043ZM408.941 217.75V226.961H416.043V231.988H408.941V255.578C408.941 257.102 409.258 258.25 409.891 259.023C410.523 259.773 411.602 260.148 413.125 260.148C413.875 260.148 414.906 260.008 416.219 259.727V265C414.508 265.469 412.844 265.703 411.227 265.703C408.32 265.703 406.129 264.824 404.652 263.066C403.176 261.309 402.438 258.812 402.438 255.578V231.988H395.512V226.961H402.438V217.75H408.941ZM430.738 265H424.234V226.961H430.738V265ZM423.707 216.871C423.707 215.816 424.023 214.926 424.656 214.199C425.312 213.473 426.273 213.109 427.539 213.109C428.805 213.109 429.766 213.473 430.422 214.199C431.078 214.926 431.406 215.816 431.406 216.871C431.406 217.926 431.078 218.805 430.422 219.508C429.766 220.211 428.805 220.562 427.539 220.562C426.273 220.562 425.312 220.211 424.656 219.508C424.023 218.805 423.707 217.926 423.707 216.871ZM439.457 245.629C439.457 241.902 440.184 238.551 441.637 235.574C443.113 232.598 445.152 230.301 447.754 228.684C450.379 227.066 453.367 226.258 456.719 226.258C461.898 226.258 466.082 228.051 469.27 231.637C472.48 235.223 474.086 239.992 474.086 245.945V246.402C474.086 250.105 473.371 253.434 471.941 256.387C470.535 259.316 468.508 261.602 465.859 263.242C463.234 264.883 460.211 265.703 456.789 265.703C451.633 265.703 447.449 263.91 444.238 260.324C441.051 256.738 439.457 251.992 439.457 246.086V245.629ZM445.996 246.402C445.996 250.621 446.969 254.008 448.914 256.562C450.883 259.117 453.508 260.395 456.789 260.395C460.094 260.395 462.719 259.105 464.664 256.527C466.609 253.926 467.582 250.293 467.582 245.629C467.582 241.457 466.586 238.082 464.594 235.504C462.625 232.902 460 231.602 456.719 231.602C453.508 231.602 450.918 232.879 448.949 235.434C446.98 237.988 445.996 241.645 445.996 246.402ZM488.395 226.961L488.605 231.742C491.512 228.086 495.309 226.258 499.996 226.258C508.035 226.258 512.09 230.793 512.16 239.863V265H505.656V239.828C505.633 237.086 505 235.059 503.758 233.746C502.539 232.434 500.629 231.777 498.027 231.777C495.918 231.777 494.066 232.34 492.473 233.465C490.879 234.59 489.637 236.066 488.746 237.895V265H482.242V226.961H488.395ZM544.117 254.91C544.117 253.152 543.449 251.793 542.113 250.832C540.801 249.848 538.492 249.004 535.188 248.301C531.906 247.598 529.293 246.754 527.348 245.77C525.426 244.785 523.996 243.613 523.059 242.254C522.145 240.895 521.688 239.277 521.688 237.402C521.688 234.285 523 231.648 525.625 229.492C528.273 227.336 531.648 226.258 535.75 226.258C540.062 226.258 543.555 227.371 546.227 229.598C548.922 231.824 550.27 234.672 550.27 238.141H543.73C543.73 236.359 542.969 234.824 541.445 233.535C539.945 232.246 538.047 231.602 535.75 231.602C533.383 231.602 531.531 232.117 530.195 233.148C528.859 234.18 528.191 235.527 528.191 237.191C528.191 238.762 528.812 239.945 530.055 240.742C531.297 241.539 533.535 242.301 536.77 243.027C540.027 243.754 542.664 244.621 544.68 245.629C546.695 246.637 548.184 247.855 549.145 249.285C550.129 250.691 550.621 252.414 550.621 254.453C550.621 257.852 549.262 260.582 546.543 262.645C543.824 264.684 540.297 265.703 535.961 265.703C532.914 265.703 530.219 265.164 527.875 264.086C525.531 263.008 523.691 261.508 522.355 259.586C521.043 257.641 520.387 255.543 520.387 253.293H526.891C527.008 255.473 527.875 257.207 529.492 258.496C531.133 259.762 533.289 260.395 535.961 260.395C538.422 260.395 540.391 259.902 541.867 258.918C543.367 257.91 544.117 256.574 544.117 254.91Z" fill="black" fill-opacity="0.33"/>
</g>
<defs>
<clipPath id="clip0">
<rect width="896" height="529.113" fill="white"/>
</clipPath>
</defs>
</svg>
