<svg width="752" height="823" viewBox="0 0 752 823" fill="none" xmlns="http://www.w3.org/2000/svg">
<rect width="752" height="823" fill="#E5E5E5"/>
<path d="M376 752C583.659 752 752 583.659 752 376C752 168.341 583.659 0 376 0C168.341 0 0 168.341 0 376C0 583.659 168.341 752 376 752Z" fill="#6C63FF"/>
<path d="M416.4 823L456.485 677.271C456.485 677.271 564.679 574.726 558.37 492.709C558.162 489.995 558.37 489.786 558.37 489.786L556.983 469.199C556.892 467.862 556.405 466.583 555.584 465.525C554.762 464.466 553.643 463.678 552.37 463.26C551.097 462.841 549.729 462.813 548.439 463.177C547.15 463.542 545.999 464.283 545.134 465.305L523.713 490.621L516 501C516 501 496.989 524.026 461.914 513.587L450.64 511.917C450.64 511.917 422.454 525.487 384.456 503.774C384.456 503.774 397.818 519.642 365.248 487.072C332.678 454.502 288.834 403.559 288.834 403.559C282.026 396.276 286.796 375.948 296.748 375.343C319.335 373.968 345.084 367.923 352.324 359.835C355.085 356.732 357.168 353.088 358.441 349.134C359.836 344.85 360.256 340.308 359.672 335.84C359.087 331.373 357.511 327.092 355.061 323.311C352.61 319.53 349.346 316.344 345.506 313.986C341.667 311.628 337.349 310.158 332.869 309.682C306.615 306.924 263.912 304.794 251.701 309.484C250.544 309.935 249.411 310.443 248.305 311.007C240.87 314.838 234.541 320.51 229.92 327.481C225.299 334.453 222.541 342.492 221.908 350.832C218.475 392.798 213.964 484.809 234.68 533.837L260.44 594.803L180.686 821.121L416.4 823Z" fill="#2F2E41"/>
<path d="M531 480C531 480 497.599 489.19 496.597 456.616C496.597 456.616 494.255 303.731 379.948 358.714C265.641 413.697 322.125 491.982 322.125 491.982C322.125 491.982 337.824 492.336 334.744 504.176C331.665 516.015 326.82 530.594 326.82 530.594C326.82 530.594 326.47 544.083 342.456 539.282C342.456 539.282 347.176 541.374 340.629 550.356C340.629 550.356 343.521 563.521 351.77 560.135C351.77 560.135 346.024 561.99 348.979 566.82C351.933 571.65 352.897 576.039 357.905 572.976C362.912 569.913 367.118 573.978 367.118 573.978C367.118 573.978 367.895 603.371 396.687 585.759C425.48 568.148 422.813 558.164 436.747 561.257C438.104 561.553 439.476 561.775 440.858 561.922C449.429 562.796 458.08 561.4 465.942 557.876C473.803 554.351 480.6 548.822 485.651 541.841L531 480Z" fill="#6C63FF"/>
<path d="M523.597 402.555C522.569 402.555 521.542 402.608 520.52 402.713C516.06 403.16 511.761 404.616 507.947 406.971C504.134 409.326 500.907 412.518 498.51 416.305L465.643 467.953C463.411 471.456 462.108 475.469 461.856 479.614C461.604 483.759 462.411 487.9 464.202 491.648C465.992 495.395 468.707 498.625 472.091 501.033C475.474 503.441 479.415 504.948 483.542 505.412L484.186 505.482C488.036 505.873 491.924 505.344 495.53 503.937C499.136 502.53 502.355 500.286 504.923 497.39L545.491 451.75C550.43 446.283 553.13 439.158 553.056 431.791C552.982 424.424 550.138 417.355 545.09 411.989C544.894 411.78 544.697 411.575 544.5 411.373C541.785 408.576 538.536 406.354 534.945 404.839C531.354 403.324 527.494 402.547 523.597 402.555V402.555Z" fill="#2F2E41"/>
<path d="M475.269 347.822C470.075 347.823 464.967 349.138 460.419 351.645C455.871 354.152 452.032 357.769 449.259 362.16L400.795 439.064C398.187 443.156 396.599 447.814 396.163 452.646C395.727 457.479 396.456 462.345 398.289 466.838C400.05 471.304 402.857 475.283 406.474 478.441C410.09 481.599 414.411 483.844 419.074 484.987C419.398 485.066 419.727 485.145 420.06 485.222C425.857 486.526 431.91 486.102 437.469 484.002C443.029 481.902 447.851 478.219 451.339 473.408C465.44 454.103 491 418.32 503.744 395.582C506.731 390.361 508.088 384.367 507.643 378.368C507.197 372.37 504.969 366.642 501.244 361.919V361.919C499.741 360.024 498.128 358.218 496.412 356.513C490.792 350.932 483.189 347.808 475.269 347.822V347.822Z" fill="#2F2E41"/>
<path d="M414.72 304.163C407.694 304.222 400.871 306.528 395.25 310.745C389.63 314.962 385.507 320.867 383.485 327.596C374.138 358.773 354.478 391.737 343.591 408.611C341.785 411.421 340.567 414.567 340.011 417.861C339.455 421.154 339.571 424.526 340.354 427.772C341.087 430.887 342.452 433.818 344.365 436.384C346.278 438.949 348.697 441.094 351.474 442.686C351.86 442.908 352.251 443.122 352.646 443.326C367.425 451.009 385.981 445.61 394.892 431.034L442.126 353.768C444.831 349.381 446.46 344.416 446.879 339.28C447.299 334.143 446.496 328.98 444.538 324.213C442.709 319.588 439.811 315.462 436.082 312.172C432.352 308.882 427.898 306.521 423.081 305.282C422.445 305.118 421.809 304.969 421.171 304.835C419.05 304.388 416.888 304.163 414.72 304.163Z" fill="#2F2E41"/>
<path d="M308.078 295.272C312.382 295.693 317.243 295.99 322.367 296.302C340.611 297.413 361.118 298.663 367.156 306.41L368.35 303.328C369.954 298.697 370.44 293.753 369.769 288.898C369.098 284.044 367.288 279.417 364.488 275.396C361.835 271.474 358.292 268.236 354.148 265.946C350.003 263.656 345.376 262.38 340.644 262.221C340.019 262.199 339.397 262.192 338.778 262.198C322.941 262.366 309.614 275.07 308.437 291.12C308.339 292.459 308.221 293.826 308.078 295.272Z" fill="#2F2E41"/>
<path d="M345.176 381.477C344.826 381.48 344.483 381.582 344.188 381.771V381.771C330.223 390.415 307.329 392.262 294.926 392.593C294.403 392.606 293.895 392.769 293.461 393.061C293.027 393.353 292.685 393.762 292.476 394.242C292.262 394.701 292.186 395.213 292.258 395.715C292.329 396.217 292.545 396.687 292.878 397.069C298.275 403.368 310.896 410.809 322.675 412.358C332.501 413.633 342.052 395.2 346.87 384.086C347.036 383.725 347.079 383.319 346.992 382.931C346.905 382.543 346.692 382.194 346.386 381.939C346.051 381.646 345.622 381.482 345.176 381.477V381.477Z" fill="#2F2E41"/>
<path d="M220.184 329H213.434V277.812H220.184V329ZM238.605 329H232.102V275H238.605V329ZM256.113 329H249.609V275H256.113V329ZM290.039 325.238C287.508 328.215 283.793 329.703 278.895 329.703C274.84 329.703 271.746 328.531 269.613 326.188C267.504 323.82 266.438 320.328 266.414 315.711V290.961H272.918V315.535C272.918 321.301 275.262 324.184 279.949 324.184C284.918 324.184 288.223 322.332 289.863 318.629V290.961H296.367V329H290.18L290.039 325.238ZM328.43 318.91C328.43 317.152 327.762 315.793 326.426 314.832C325.113 313.848 322.805 313.004 319.5 312.301C316.219 311.598 313.605 310.754 311.66 309.77C309.738 308.785 308.309 307.613 307.371 306.254C306.457 304.895 306 303.277 306 301.402C306 298.285 307.312 295.648 309.938 293.492C312.586 291.336 315.961 290.258 320.062 290.258C324.375 290.258 327.867 291.371 330.539 293.598C333.234 295.824 334.582 298.672 334.582 302.141H328.043C328.043 300.359 327.281 298.824 325.758 297.535C324.258 296.246 322.359 295.602 320.062 295.602C317.695 295.602 315.844 296.117 314.508 297.148C313.172 298.18 312.504 299.527 312.504 301.191C312.504 302.762 313.125 303.945 314.367 304.742C315.609 305.539 317.848 306.301 321.082 307.027C324.34 307.754 326.977 308.621 328.992 309.629C331.008 310.637 332.496 311.855 333.457 313.285C334.441 314.691 334.934 316.414 334.934 318.453C334.934 321.852 333.574 324.582 330.855 326.645C328.137 328.684 324.609 329.703 320.273 329.703C317.227 329.703 314.531 329.164 312.188 328.086C309.844 327.008 308.004 325.508 306.668 323.586C305.355 321.641 304.699 319.543 304.699 317.293H311.203C311.32 319.473 312.188 321.207 313.805 322.496C315.445 323.762 317.602 324.395 320.273 324.395C322.734 324.395 324.703 323.902 326.18 322.918C327.68 321.91 328.43 320.574 328.43 318.91ZM352.23 281.75V290.961H359.332V295.988H352.23V319.578C352.23 321.102 352.547 322.25 353.18 323.023C353.812 323.773 354.891 324.148 356.414 324.148C357.164 324.148 358.195 324.008 359.508 323.727V329C357.797 329.469 356.133 329.703 354.516 329.703C351.609 329.703 349.418 328.824 347.941 327.066C346.465 325.309 345.727 322.812 345.727 319.578V295.988H338.801V290.961H345.727V281.75H352.23ZM385.348 296.797C384.363 296.633 383.297 296.551 382.148 296.551C377.883 296.551 374.988 298.367 373.465 302V329H366.961V290.961H373.289L373.395 295.355C375.527 291.957 378.551 290.258 382.465 290.258C383.73 290.258 384.691 290.422 385.348 290.75V296.797ZM413.438 329C413.062 328.25 412.758 326.914 412.523 324.992C409.5 328.133 405.891 329.703 401.695 329.703C397.945 329.703 394.863 328.648 392.449 326.539C390.059 324.406 388.863 321.711 388.863 318.453C388.863 314.492 390.363 311.422 393.363 309.242C396.387 307.039 400.629 305.938 406.09 305.938H412.418V302.949C412.418 300.676 411.738 298.871 410.379 297.535C409.02 296.176 407.016 295.496 404.367 295.496C402.047 295.496 400.102 296.082 398.531 297.254C396.961 298.426 396.176 299.844 396.176 301.508H389.637C389.637 299.609 390.305 297.781 391.641 296.023C393 294.242 394.828 292.836 397.125 291.805C399.445 290.773 401.988 290.258 404.754 290.258C409.137 290.258 412.57 291.359 415.055 293.562C417.539 295.742 418.828 298.754 418.922 302.598V320.105C418.922 323.598 419.367 326.375 420.258 328.438V329H413.438ZM402.645 324.043C404.684 324.043 406.617 323.516 408.445 322.461C410.273 321.406 411.598 320.035 412.418 318.348V310.543H407.32C399.352 310.543 395.367 312.875 395.367 317.539C395.367 319.578 396.047 321.172 397.406 322.32C398.766 323.469 400.512 324.043 402.645 324.043ZM437.941 281.75V290.961H445.043V295.988H437.941V319.578C437.941 321.102 438.258 322.25 438.891 323.023C439.523 323.773 440.602 324.148 442.125 324.148C442.875 324.148 443.906 324.008 445.219 323.727V329C443.508 329.469 441.844 329.703 440.227 329.703C437.32 329.703 435.129 328.824 433.652 327.066C432.176 325.309 431.438 322.812 431.438 319.578V295.988H424.512V290.961H431.438V281.75H437.941ZM459.738 329H453.234V290.961H459.738V329ZM452.707 280.871C452.707 279.816 453.023 278.926 453.656 278.199C454.312 277.473 455.273 277.109 456.539 277.109C457.805 277.109 458.766 277.473 459.422 278.199C460.078 278.926 460.406 279.816 460.406 280.871C460.406 281.926 460.078 282.805 459.422 283.508C458.766 284.211 457.805 284.562 456.539 284.562C455.273 284.562 454.312 284.211 453.656 283.508C453.023 282.805 452.707 281.926 452.707 280.871ZM468.457 309.629C468.457 305.902 469.184 302.551 470.637 299.574C472.113 296.598 474.152 294.301 476.754 292.684C479.379 291.066 482.367 290.258 485.719 290.258C490.898 290.258 495.082 292.051 498.27 295.637C501.48 299.223 503.086 303.992 503.086 309.945V310.402C503.086 314.105 502.371 317.434 500.941 320.387C499.535 323.316 497.508 325.602 494.859 327.242C492.234 328.883 489.211 329.703 485.789 329.703C480.633 329.703 476.449 327.91 473.238 324.324C470.051 320.738 468.457 315.992 468.457 310.086V309.629ZM474.996 310.402C474.996 314.621 475.969 318.008 477.914 320.562C479.883 323.117 482.508 324.395 485.789 324.395C489.094 324.395 491.719 323.105 493.664 320.527C495.609 317.926 496.582 314.293 496.582 309.629C496.582 305.457 495.586 302.082 493.594 299.504C491.625 296.902 489 295.602 485.719 295.602C482.508 295.602 479.918 296.879 477.949 299.434C475.98 301.988 474.996 305.645 474.996 310.402ZM517.395 290.961L517.605 295.742C520.512 292.086 524.309 290.258 528.996 290.258C537.035 290.258 541.09 294.793 541.16 303.863V329H534.656V303.828C534.633 301.086 534 299.059 532.758 297.746C531.539 296.434 529.629 295.777 527.027 295.777C524.918 295.777 523.066 296.34 521.473 297.465C519.879 298.59 518.637 300.066 517.746 301.895V329H511.242V290.961H517.395ZM573.117 318.91C573.117 317.152 572.449 315.793 571.113 314.832C569.801 313.848 567.492 313.004 564.188 312.301C560.906 311.598 558.293 310.754 556.348 309.77C554.426 308.785 552.996 307.613 552.059 306.254C551.145 304.895 550.688 303.277 550.688 301.402C550.688 298.285 552 295.648 554.625 293.492C557.273 291.336 560.648 290.258 564.75 290.258C569.062 290.258 572.555 291.371 575.227 293.598C577.922 295.824 579.27 298.672 579.27 302.141H572.73C572.73 300.359 571.969 298.824 570.445 297.535C568.945 296.246 567.047 295.602 564.75 295.602C562.383 295.602 560.531 296.117 559.195 297.148C557.859 298.18 557.191 299.527 557.191 301.191C557.191 302.762 557.812 303.945 559.055 304.742C560.297 305.539 562.535 306.301 565.77 307.027C569.027 307.754 571.664 308.621 573.68 309.629C575.695 310.637 577.184 311.855 578.145 313.285C579.129 314.691 579.621 316.414 579.621 318.453C579.621 321.852 578.262 324.582 575.543 326.645C572.824 328.684 569.297 329.703 564.961 329.703C561.914 329.703 559.219 329.164 556.875 328.086C554.531 327.008 552.691 325.508 551.355 323.586C550.043 321.641 549.387 319.543 549.387 317.293H555.891C556.008 319.473 556.875 321.207 558.492 322.496C560.133 323.762 562.289 324.395 564.961 324.395C567.422 324.395 569.391 323.902 570.867 322.918C572.367 321.91 573.117 320.574 573.117 318.91Z" fill="black" fill-opacity="0.33"/>
</svg>
