<svg width="1080" height="590" viewBox="0 0 1080 590" fill="none" xmlns="http://www.w3.org/2000/svg">
<rect width="1080" height="590" fill="#E5E5E5"/>
<g clip-path="url(#clip0)">
<path d="M1080 552.48C1080 520.313 1063.68 494.237 1043.54 494.237C1030.89 494.237 1019.74 504.542 1013.21 520.182C1011 519.265 1008.63 518.79 1006.24 518.784C1000.14 518.784 994.51 521.907 989.915 527.192C984.022 507.691 971.528 494.237 957.065 494.237C943.543 494.237 931.749 506.008 925.456 523.477C921.959 520.526 917.553 518.869 912.978 518.784C897.526 518.784 885 538.796 885 563.483C884.936 571.712 886.432 579.879 889.408 587.551H1072.65C1077.26 577.795 1080 565.65 1080 552.48Z" fill="#6C63FF"/>
<path d="M949.299 216.151C920.589 154.044 864.403 101.061 796.528 92.4256C778.581 90.1424 759.844 91.0581 743.193 98.1312C721.336 107.416 705.228 126.156 688.947 143.444C654.476 180.037 615.901 212.534 573.987 240.291C553.3 253.987 531.111 266.766 506.55 270.27C457.304 277.296 408.594 243.714 386.136 199.328C372.106 171.602 365.623 139.049 354.282 110.209C341.221 110.184 325.659 110.189 308.917 110.266C262.64 110.48 224.973 111.163 224.973 111.163C224.973 111.163 269.747 51.856 308.749 73.8289C321.213 80.8508 334.268 87.117 346.266 92.3956C339.45 79.2848 330.852 67.4883 319.025 58.0036C295.704 39.3017 264.118 34.0559 234.256 35.4487C202.9 36.9112 171.255 45.3063 145.775 63.641C100.384 96.303 81.6398 153.794 65.5971 207.364L104.375 226.804C121.008 212.424 145.33 198.199 167.749 210.829C206.752 232.802 251.556 247.391 251.556 247.391C251.556 247.391 214.194 247.053 167.917 247.266C160.145 247.302 152.625 247.351 145.476 247.408L576 463.237C718 465.237 825.068 457.558 960 463.237C967.037 463.533 982.865 426.645 982.918 416.937C983.29 348.516 978.009 278.259 949.299 216.151ZM811.417 234.766C765.14 234.98 727.473 235.663 727.473 235.663C727.473 235.663 772.247 176.356 811.249 198.329C850.252 220.302 895.056 234.891 895.056 234.891C895.056 234.891 857.694 234.553 811.417 234.766L811.417 234.766Z" fill="#F2F2F2"/>
<path opacity="0.3" d="M932 437.737C932 414.348 917.519 395.388 899.657 395.388C888.429 395.388 878.541 402.881 872.742 414.253C870.75 413.581 868.663 413.238 866.561 413.237C861.125 413.329 855.936 415.519 852.078 419.35C846.851 405.171 835.765 395.388 822.935 395.388C810.938 395.388 800.475 403.947 794.891 416.648C791.616 414.45 787.766 413.264 783.822 413.237C770.113 413.237 759 427.788 759 445.737C758.96 451.791 760.297 457.775 762.911 463.237H925.477C929.836 455.45 932.085 446.66 932 437.737V437.737Z" fill="#6C63FF"/>
<path d="M1080 589.237H82V587.237H1079L1080 589.237Z" fill="#2F2E41"/>
<path d="M998 465.237H0V463.237H997L998 465.237Z" fill="#2F2E41"/>
<path d="M423.63 281.137C423.63 281.137 429.915 235.043 440.391 247.614C450.867 260.185 440.391 279.041 440.391 279.041L432.01 289.517L423.63 283.232V281.137Z" fill="#FFB8B8"/>
<path d="M398.488 295.803C398.488 295.803 419.439 272.756 423.63 276.946C427.82 281.137 440.391 283.232 438.296 291.612C436.201 299.993 392.202 327.23 392.202 327.23L398.488 295.803Z" fill="#6C63FF"/>
<path opacity="0.1" d="M398.488 295.803C398.488 295.803 419.439 272.756 423.63 276.946C427.82 281.137 440.391 283.232 438.296 291.612C436.201 299.993 392.202 327.23 392.202 327.23L398.488 295.803Z" fill="black"/>
<path d="M279.064 293.708V310.469C279.064 310.469 276.969 348.182 289.539 346.087C302.11 343.991 295.825 312.564 295.825 312.564L293.73 293.708H279.064Z" fill="#FFB8B8"/>
<path d="M285.349 415.227C285.349 415.227 266.493 444.559 260.207 446.654C253.922 448.749 220.399 467.606 216.209 486.462L186.877 524.175L201.543 543.032C201.543 543.032 268.588 471.796 287.444 465.511C306.301 459.225 325.157 427.798 325.157 427.798L285.349 415.227Z" fill="#FFB8B8"/>
<path d="M434.105 367.038C434.105 367.038 473.913 373.324 467.628 398.466C461.342 423.607 400.583 475.986 400.583 475.986L398.488 488.557L375.441 492.748L364.965 482.272L367.06 475.986C367.06 475.986 392.202 452.94 394.297 444.559C396.393 436.178 419.439 402.656 429.915 400.561L415.249 392.18L434.105 367.038Z" fill="#FFB8B8"/>
<path d="M193.162 524.175C193.162 524.175 201.543 511.604 188.972 513.699C176.401 515.795 168.02 517.89 168.02 526.27C168.02 534.651 178.496 593.315 191.067 589.125C203.638 584.935 193.162 566.078 193.162 566.078C193.162 566.078 199.448 549.317 203.638 547.222C207.828 545.127 207.828 534.651 203.638 534.651C199.448 534.651 191.067 528.365 193.162 524.175Z" fill="#2F2E41"/>
<path d="M371.251 478.082C371.251 478.082 371.251 467.606 362.87 478.082C354.489 488.557 350.299 496.938 358.68 503.224C367.06 509.509 396.393 524.175 396.393 524.175C396.393 524.175 427.82 530.461 423.63 515.794C423.63 515.794 402.678 505.319 402.678 496.938C402.678 488.557 402.678 473.891 396.393 478.082C390.107 482.272 371.251 484.367 371.251 478.082Z" fill="#2F2E41"/>
<path d="M331.443 320.945C331.443 320.945 302.11 325.135 304.206 367.038C304.206 367.038 266.493 404.751 276.969 417.322C287.444 429.893 310.491 452.94 318.872 446.654C327.252 440.369 352.394 392.18 352.394 392.18C352.394 392.18 411.059 413.132 421.534 402.656C432.01 392.18 442.486 367.038 442.486 367.038L390.107 339.801L331.443 320.945Z" fill="#2F2E41"/>
<path d="M413.154 201.521C427.039 201.521 438.296 190.264 438.296 176.379C438.296 162.493 427.039 151.237 413.154 151.237C399.268 151.237 388.012 162.493 388.012 176.379C388.012 190.264 399.268 201.521 413.154 201.521Z" fill="#FFB8B8"/>
<path d="M394.297 178.474C394.297 178.474 379.631 201.521 375.441 203.616C371.251 205.711 404.773 226.663 404.773 226.663C404.773 226.663 404.773 199.425 415.249 193.14L394.297 178.474Z" fill="#FFB8B8"/>
<path d="M392.202 201.521C392.202 201.521 358.68 191.045 352.394 207.806C346.109 224.567 331.443 255.995 333.538 276.946C335.633 297.898 339.823 293.708 333.538 299.993C327.252 306.279 323.062 302.088 325.157 310.469C327.252 318.85 329.347 318.85 327.252 323.04C325.157 327.23 352.394 341.896 375.441 343.991L398.488 346.087C398.488 346.087 398.488 308.374 402.678 299.993C406.868 291.613 415.249 274.851 415.249 268.566V251.935C415.249 240.866 412.36 229.988 406.868 220.377V220.377C406.868 220.377 394.297 201.521 392.202 201.521Z" fill="#6C63FF"/>
<path d="M367.06 209.901C367.06 209.901 289.539 216.187 281.159 237.138C272.778 258.09 268.588 299.993 276.969 299.993C285.349 299.993 295.825 304.183 297.92 299.993C300.015 295.803 308.396 253.9 310.491 253.9C312.586 253.9 375.441 247.614 375.441 247.614C375.441 247.614 402.678 214.092 367.06 209.901Z" fill="#6C63FF"/>
<path d="M414.164 170.146C414.164 170.146 420.836 158.551 429.176 168.622C437.516 178.693 451.083 160.186 449 156.237C446.917 152.288 439.562 156.414 426.958 152.294C414.353 148.174 390.073 139.78 386.007 167.161C381.94 194.543 391.625 191.672 391.625 191.672C391.625 191.672 396.064 167.409 400.076 174.379L404.089 181.348L407.569 182.205L414.164 170.146Z" fill="#2F2E41"/>
<path d="M651.309 105.988C668.25 105.988 681.983 92.2546 681.983 75.3137C681.983 58.3727 668.25 44.6393 651.309 44.6393C634.368 44.6393 620.634 58.3727 620.634 75.3137C620.634 92.2546 634.368 105.988 651.309 105.988Z" fill="#2F2E41"/>
<path d="M641.504 98.0181C641.504 98.0181 643.091 126.59 639.916 126.59C636.742 126.59 659.758 140.083 659.758 140.083L674.044 132.146V122.622C674.044 122.622 654.996 120.241 662.933 99.6054C670.869 78.97 641.504 98.0181 641.504 98.0181Z" fill="#9F616A"/>
<path d="M574.835 411.517L572.454 435.327L580.391 437.708L586.74 431.359L589.121 411.517H574.835Z" fill="#9F616A"/>
<path d="M689.124 425.01L693.092 440.089L704.203 447.232L716.109 440.883L702.616 418.66L689.124 425.01Z" fill="#9F616A"/>
<path d="M649.044 110.32C661.755 110.32 672.06 100.015 672.06 87.3036C672.06 74.592 661.755 64.2872 649.044 64.2872C636.332 64.2872 626.027 74.592 626.027 87.3036C626.027 100.015 636.332 110.32 649.044 110.32Z" fill="#9F616A"/>
<path d="M635.154 173.417L629.599 171.036C629.599 171.036 620.075 165.48 619.281 154.369C618.487 143.257 627.218 128.971 627.218 128.971L639.916 125.003L654.836 137.146L654.996 156.75L635.154 173.417Z" fill="#9F616A"/>
<path d="M629.599 130.559L626.424 128.971C626.424 128.971 610.551 128.178 608.963 147.226C607.376 166.274 601.82 198.02 601.82 198.02C601.82 198.02 589.121 220.243 589.915 244.053L583.566 264.689C583.566 264.689 574.835 294.848 585.153 294.848C595.471 294.848 594.677 262.308 594.677 262.308C594.677 262.308 613.725 216.275 615.313 208.338C616.9 200.401 630.392 163.099 626.424 152.781C622.456 142.464 629.599 130.559 629.599 130.559Z" fill="#9F616A"/>
<path d="M641.504 180.56V189.29C641.504 189.29 647.059 195.639 644.678 199.608C642.297 203.576 639.916 211.513 639.916 211.513L651.028 228.973L688.33 232.148L695.748 182.449L641.504 180.56Z" fill="#9F616A"/>
<path d="M676.425 125.003L682.774 121.828C682.774 121.828 696.267 112.304 707.378 110.717L741.506 87.7004L763.729 34.5246C763.729 34.5246 762.935 5.95252 769.284 9.12719C775.634 12.3019 774.84 36.9056 774.84 36.9056C774.84 36.9056 762.935 86.1131 752.617 99.6054C742.3 113.098 704.997 135.321 704.997 135.321C704.997 135.321 694.679 147.226 695.473 152.781C696.267 158.337 676.425 125.003 676.425 125.003Z" fill="#9F616A"/>
<path d="M647.059 211.513C647.059 211.513 638.329 205.957 632.773 215.481C627.218 225.005 616.9 227.386 610.551 255.958C604.201 284.53 589.122 329.769 585.153 332.944C581.185 336.119 564.518 369.453 574.042 416.279H589.915L603.408 348.817C603.408 348.817 647.059 294.848 650.234 272.625L664.52 355.96C664.52 355.96 665.314 387.707 677.219 402.787L689.917 432.946L706.584 425.01L687.536 348.817C687.536 348.817 697.06 271.832 690.711 250.403L689.799 222.309C689.799 222.309 663.726 223.418 647.059 211.513Z" fill="#2F2E41"/>
<path d="M580.391 431.359H570.867C569.28 431.359 556.581 441.677 562.137 447.232C567.692 452.788 576.423 463.106 576.423 463.106C576.423 463.106 607.376 467.042 608.17 461.487C608.963 455.931 594.677 444.058 594.677 444.058L590.709 431.359C590.709 431.359 582.772 422.629 580.391 431.359Z" fill="#2F2E41"/>
<path d="M706.584 439.296C706.584 439.296 693.092 438.502 690.711 437.708C688.33 436.915 683.568 458.344 690.711 459.931C697.854 461.518 727.22 463.899 727.22 463.899C727.22 463.899 750.236 463.106 748.649 456.756C747.062 450.407 716.109 437.708 716.109 437.708C716.109 437.708 712.14 429.772 706.584 439.296Z" fill="#2F2E41"/>
<path d="M643.885 124.209L639.916 121.828L635.154 125.797C635.154 125.797 649.44 135.321 646.266 144.051C643.091 152.781 629.599 171.036 629.599 171.036C629.599 171.036 641.504 184.528 641.504 189.29C641.504 189.29 672.457 178.179 695.473 189.29C695.473 189.29 695.473 173.417 698.648 170.242C701.822 167.067 703.41 155.956 695.473 146.432C689.882 139.424 684.84 131.994 680.393 124.209L672.457 119.447L668.369 120.744C668.369 120.744 676.425 129.765 668.488 130.559C660.552 131.352 647.853 128.971 643.885 124.209Z" fill="#6C63FF"/>
<path d="M673.728 23.0164C671.031 26.0263 667.337 27.9608 663.328 28.464C656.394 29.4545 661.842 40.3497 661.842 40.3497C661.842 40.3497 659.861 36.3878 663.823 32.9212C667.785 29.4545 673.728 27.4735 673.728 23.0164Z" fill="#2F2E41"/>
<path d="M660.36 51.1765C665.081 51.1765 668.909 47.3491 668.909 42.6279C668.909 37.9066 665.081 34.0793 660.36 34.0793C655.639 34.0793 651.812 37.9066 651.812 42.6279C651.812 47.3491 655.639 51.1765 660.36 51.1765Z" fill="#2F2E41"/>
<path d="M670.34 51.0455C663.736 47.596 652.375 44.8828 646.339 45.0768L647.866 39.2389C653.21 42.8695 664.511 45.6333 671.867 45.2076L670.34 51.0455Z" fill="#6C63FF"/>
<path d="M656.696 51.5593C656.696 51.5593 646.289 64.9395 625.476 67.9129C604.662 70.8863 621.016 103.594 621.016 103.594C621.016 103.594 615.069 91.7001 626.962 81.2932C638.856 70.8863 656.696 64.9395 656.696 51.5593Z" fill="#2F2E41"/>
<path d="M657.49 50.7656C657.49 50.7656 663.437 71.5794 672.357 74.5527C681.277 77.5261 676.817 108.747 661.95 111.72C661.95 111.72 674.587 94.6232 667.154 81.2429C659.72 67.8626 655.26 57.4557 657.49 50.7656Z" fill="#2F2E41"/>
<path d="M797.46 15.8734H742.696V22.2227H797.46V15.8734Z" fill="#2F2E41"/>
<path d="M797.46 38.0961C800.09 38.0961 802.222 29.568 802.222 19.048C802.222 8.5281 800.09 0 797.46 0C794.83 0 792.698 8.5281 792.698 19.048C792.698 29.568 794.83 38.0961 797.46 38.0961Z" fill="#2F2E41"/>
<path d="M742.696 38.0961C745.326 38.0961 747.458 29.568 747.458 19.048C747.458 8.5281 745.326 0 742.696 0C740.066 0 737.934 8.5281 737.934 19.048C737.934 29.568 740.066 38.0961 742.696 38.0961Z" fill="#2F2E41"/>
<path d="M825.238 442.882H770.475V449.232H825.238V442.882Z" fill="#2F2E41"/>
<path d="M825.238 465.105C827.868 465.105 830 456.577 830 446.057C830 435.537 827.868 427.009 825.238 427.009C822.608 427.009 820.476 435.537 820.476 446.057C820.476 456.577 822.608 465.105 825.238 465.105Z" fill="#2F2E41"/>
<path d="M770.475 465.105C773.105 465.105 775.237 456.577 775.237 446.057C775.237 435.537 773.105 427.009 770.475 427.009C767.845 427.009 765.713 435.537 765.713 446.057C765.713 456.577 767.845 465.105 770.475 465.105Z" fill="#2F2E41"/>
<path opacity="0.3" d="M194 437.737C194 414.348 179.519 395.388 161.657 395.388C150.429 395.388 140.541 402.881 134.742 414.253C132.75 413.581 130.663 413.238 128.561 413.237C123.125 413.329 117.936 415.519 114.078 419.35C108.851 405.171 97.7655 395.388 84.9348 395.388C72.9382 395.388 62.475 403.947 56.8914 416.648C53.616 414.45 49.7664 413.264 45.8218 413.237C32.1131 413.237 21 427.788 21 445.737C20.9599 451.791 22.2971 457.775 24.9106 463.237H187.477C191.836 455.45 194.085 446.66 194 437.737V437.737Z" fill="#6C63FF"/>
<path d="M336.184 268H329.434V216.812H336.184V268ZM354.605 268H348.102V214H354.605V268ZM372.113 268H365.609V214H372.113V268ZM406.039 264.238C403.508 267.215 399.793 268.703 394.895 268.703C390.84 268.703 387.746 267.531 385.613 265.188C383.504 262.82 382.438 259.328 382.414 254.711V229.961H388.918V254.535C388.918 260.301 391.262 263.184 395.949 263.184C400.918 263.184 404.223 261.332 405.863 257.629V229.961H412.367V268H406.18L406.039 264.238ZM444.43 257.91C444.43 256.152 443.762 254.793 442.426 253.832C441.113 252.848 438.805 252.004 435.5 251.301C432.219 250.598 429.605 249.754 427.66 248.77C425.738 247.785 424.309 246.613 423.371 245.254C422.457 243.895 422 242.277 422 240.402C422 237.285 423.312 234.648 425.938 232.492C428.586 230.336 431.961 229.258 436.062 229.258C440.375 229.258 443.867 230.371 446.539 232.598C449.234 234.824 450.582 237.672 450.582 241.141H444.043C444.043 239.359 443.281 237.824 441.758 236.535C440.258 235.246 438.359 234.602 436.062 234.602C433.695 234.602 431.844 235.117 430.508 236.148C429.172 237.18 428.504 238.527 428.504 240.191C428.504 241.762 429.125 242.945 430.367 243.742C431.609 244.539 433.848 245.301 437.082 246.027C440.34 246.754 442.977 247.621 444.992 248.629C447.008 249.637 448.496 250.855 449.457 252.285C450.441 253.691 450.934 255.414 450.934 257.453C450.934 260.852 449.574 263.582 446.855 265.645C444.137 267.684 440.609 268.703 436.273 268.703C433.227 268.703 430.531 268.164 428.188 267.086C425.844 266.008 424.004 264.508 422.668 262.586C421.355 260.641 420.699 258.543 420.699 256.293H427.203C427.32 258.473 428.188 260.207 429.805 261.496C431.445 262.762 433.602 263.395 436.273 263.395C438.734 263.395 440.703 262.902 442.18 261.918C443.68 260.91 444.43 259.574 444.43 257.91ZM468.23 220.75V229.961H475.332V234.988H468.23V258.578C468.23 260.102 468.547 261.25 469.18 262.023C469.812 262.773 470.891 263.148 472.414 263.148C473.164 263.148 474.195 263.008 475.508 262.727V268C473.797 268.469 472.133 268.703 470.516 268.703C467.609 268.703 465.418 267.824 463.941 266.066C462.465 264.309 461.727 261.812 461.727 258.578V234.988H454.801V229.961H461.727V220.75H468.23ZM501.348 235.797C500.363 235.633 499.297 235.551 498.148 235.551C493.883 235.551 490.988 237.367 489.465 241V268H482.961V229.961H489.289L489.395 234.355C491.527 230.957 494.551 229.258 498.465 229.258C499.73 229.258 500.691 229.422 501.348 229.75V235.797ZM529.438 268C529.062 267.25 528.758 265.914 528.523 263.992C525.5 267.133 521.891 268.703 517.695 268.703C513.945 268.703 510.863 267.648 508.449 265.539C506.059 263.406 504.863 260.711 504.863 257.453C504.863 253.492 506.363 250.422 509.363 248.242C512.387 246.039 516.629 244.938 522.09 244.938H528.418V241.949C528.418 239.676 527.738 237.871 526.379 236.535C525.02 235.176 523.016 234.496 520.367 234.496C518.047 234.496 516.102 235.082 514.531 236.254C512.961 237.426 512.176 238.844 512.176 240.508H505.637C505.637 238.609 506.305 236.781 507.641 235.023C509 233.242 510.828 231.836 513.125 230.805C515.445 229.773 517.988 229.258 520.754 229.258C525.137 229.258 528.57 230.359 531.055 232.562C533.539 234.742 534.828 237.754 534.922 241.598V259.105C534.922 262.598 535.367 265.375 536.258 267.438V268H529.438ZM518.645 263.043C520.684 263.043 522.617 262.516 524.445 261.461C526.273 260.406 527.598 259.035 528.418 257.348V249.543H523.32C515.352 249.543 511.367 251.875 511.367 256.539C511.367 258.578 512.047 260.172 513.406 261.32C514.766 262.469 516.512 263.043 518.645 263.043ZM553.941 220.75V229.961H561.043V234.988H553.941V258.578C553.941 260.102 554.258 261.25 554.891 262.023C555.523 262.773 556.602 263.148 558.125 263.148C558.875 263.148 559.906 263.008 561.219 262.727V268C559.508 268.469 557.844 268.703 556.227 268.703C553.32 268.703 551.129 267.824 549.652 266.066C548.176 264.309 547.438 261.812 547.438 258.578V234.988H540.512V229.961H547.438V220.75H553.941ZM575.738 268H569.234V229.961H575.738V268ZM568.707 219.871C568.707 218.816 569.023 217.926 569.656 217.199C570.312 216.473 571.273 216.109 572.539 216.109C573.805 216.109 574.766 216.473 575.422 217.199C576.078 217.926 576.406 218.816 576.406 219.871C576.406 220.926 576.078 221.805 575.422 222.508C574.766 223.211 573.805 223.562 572.539 223.562C571.273 223.562 570.312 223.211 569.656 222.508C569.023 221.805 568.707 220.926 568.707 219.871ZM584.457 248.629C584.457 244.902 585.184 241.551 586.637 238.574C588.113 235.598 590.152 233.301 592.754 231.684C595.379 230.066 598.367 229.258 601.719 229.258C606.898 229.258 611.082 231.051 614.27 234.637C617.48 238.223 619.086 242.992 619.086 248.945V249.402C619.086 253.105 618.371 256.434 616.941 259.387C615.535 262.316 613.508 264.602 610.859 266.242C608.234 267.883 605.211 268.703 601.789 268.703C596.633 268.703 592.449 266.91 589.238 263.324C586.051 259.738 584.457 254.992 584.457 249.086V248.629ZM590.996 249.402C590.996 253.621 591.969 257.008 593.914 259.562C595.883 262.117 598.508 263.395 601.789 263.395C605.094 263.395 607.719 262.105 609.664 259.527C611.609 256.926 612.582 253.293 612.582 248.629C612.582 244.457 611.586 241.082 609.594 238.504C607.625 235.902 605 234.602 601.719 234.602C598.508 234.602 595.918 235.879 593.949 238.434C591.98 240.988 590.996 244.645 590.996 249.402ZM633.395 229.961L633.605 234.742C636.512 231.086 640.309 229.258 644.996 229.258C653.035 229.258 657.09 233.793 657.16 242.863V268H650.656V242.828C650.633 240.086 650 238.059 648.758 236.746C647.539 235.434 645.629 234.777 643.027 234.777C640.918 234.777 639.066 235.34 637.473 236.465C635.879 237.59 634.637 239.066 633.746 240.895V268H627.242V229.961H633.395ZM689.117 257.91C689.117 256.152 688.449 254.793 687.113 253.832C685.801 252.848 683.492 252.004 680.188 251.301C676.906 250.598 674.293 249.754 672.348 248.77C670.426 247.785 668.996 246.613 668.059 245.254C667.145 243.895 666.688 242.277 666.688 240.402C666.688 237.285 668 234.648 670.625 232.492C673.273 230.336 676.648 229.258 680.75 229.258C685.062 229.258 688.555 230.371 691.227 232.598C693.922 234.824 695.27 237.672 695.27 241.141H688.73C688.73 239.359 687.969 237.824 686.445 236.535C684.945 235.246 683.047 234.602 680.75 234.602C678.383 234.602 676.531 235.117 675.195 236.148C673.859 237.18 673.191 238.527 673.191 240.191C673.191 241.762 673.812 242.945 675.055 243.742C676.297 244.539 678.535 245.301 681.77 246.027C685.027 246.754 687.664 247.621 689.68 248.629C691.695 249.637 693.184 250.855 694.145 252.285C695.129 253.691 695.621 255.414 695.621 257.453C695.621 260.852 694.262 263.582 691.543 265.645C688.824 267.684 685.297 268.703 680.961 268.703C677.914 268.703 675.219 268.164 672.875 267.086C670.531 266.008 668.691 264.508 667.355 262.586C666.043 260.641 665.387 258.543 665.387 256.293H671.891C672.008 258.473 672.875 260.207 674.492 261.496C676.133 262.762 678.289 263.395 680.961 263.395C683.422 263.395 685.391 262.902 686.867 261.918C688.367 260.91 689.117 259.574 689.117 257.91Z" fill="black" fill-opacity="0.33"/>
</g>
<defs>
<clipPath id="clip0">
<rect width="1080" height="589.339" fill="white"/>
</clipPath>
</defs>
</svg>
