<svg width="995" height="679" viewBox="0 0 995 679" fill="none" xmlns="http://www.w3.org/2000/svg">
<rect width="995" height="679" fill="#E5E5E5"/>
<g clip-path="url(#clip0)">
<path d="M179.883 637.192C279.219 637.032 359.739 631.669 359.729 625.213C359.718 618.757 279.182 613.653 179.845 613.812C80.5092 613.972 -0.0103989 619.335 -3.70123e-05 625.791C0.0103249 632.247 80.5467 637.351 179.883 637.192Z" fill="#E6E6E6"/>
<path d="M560.344 484.018C638.342 483.892 701.566 479.682 701.557 474.612C701.549 469.543 638.313 465.535 560.315 465.661C482.317 465.786 419.093 469.997 419.102 475.066C419.11 480.135 482.346 484.143 560.344 484.018Z" fill="#E6E6E6"/>
<path d="M816.009 642.9C914.563 642.741 994.433 628.495 994.405 611.079C994.377 593.664 914.461 579.674 815.908 579.832C717.354 579.99 637.484 594.237 637.512 611.652C637.54 629.068 717.456 643.058 816.009 642.9Z" fill="#E6E6E6"/>
<path d="M206.553 307.21L226.806 301.571C226.806 301.571 234.738 299.987 229.891 284.494C225.044 269.001 215.43 273.337 215.43 273.337L197.464 278.557L190.371 280.747L200.351 294.749L201.188 304.082L206.553 307.21Z" fill="#3F3D56"/>
<path d="M167.418 266.274L161.064 291.656L193.622 323.209L196.421 323.911L203.888 321.813L210.243 296.433L203.806 289.664L210.385 287.94L196.345 274.31L189.019 275.848L183.142 270.013L187.108 268.428L187.483 266.935L182.678 263.153L167.418 266.274Z" fill="#3F3D56"/>
<path d="M197.922 302.074L193.716 318.87L174.312 300.526L179.171 283.496L197.922 302.074Z" fill="#6C63FF"/>
<path d="M167.418 266.274L166.527 269.833L198.902 301.328L201.701 302.029L208.936 300.071L209.334 300.063L210.243 296.433L203.806 289.664L210.385 287.94L196.345 274.31L189.019 275.848L183.142 270.013L187.108 268.428L187.483 266.935L182.678 263.153L167.418 266.274Z" stroke="#3F3D56" stroke-miterlimit="10"/>
<path d="M184.986 266.607C185.232 265.628 184.261 264.541 182.818 264.18C181.375 263.819 180.006 264.32 179.761 265.299C179.516 266.278 180.487 267.365 181.93 267.726C183.373 268.087 184.741 267.586 184.986 266.607Z" fill="#6C63FF"/>
<path d="M205.554 293.771C205.799 292.792 204.828 291.705 203.385 291.344C201.942 290.983 200.574 291.483 200.329 292.463C200.083 293.442 201.055 294.529 202.498 294.89C203.941 295.251 205.309 294.75 205.554 293.771Z" fill="#6C63FF"/>
<path d="M220.009 338.828L215.592 323.811C215.592 323.811 227.076 296.428 213.826 293.778C200.576 291.128 199.692 319.395 199.692 319.395L204.992 336.178L220.009 338.828Z" fill="#FFB6B6"/>
<path d="M138.008 309.63C157.387 309.63 173.096 293.92 173.096 274.542C173.096 255.163 157.387 239.453 138.008 239.453C118.629 239.453 102.919 255.163 102.919 274.542C102.919 293.92 118.629 309.63 138.008 309.63Z" fill="#FFB6B6"/>
<path d="M149.36 299.31C149.36 299.31 151.424 325.11 156.584 327.174C161.744 329.238 110.45 343.686 110.45 343.686L125.93 326.142C125.93 326.142 119.432 299.31 112.208 293.118L149.36 299.31Z" fill="#FFB6B6"/>
<path d="M198.809 330.878L212.942 329.111C212.942 329.111 229.726 337.945 229.726 349.428C229.726 360.911 239.442 379.461 239.442 379.461C239.442 379.461 246.509 404.195 230.609 405.961C214.709 407.728 200.576 379.461 200.576 379.461L198.809 330.878Z" fill="#6C63FF"/>
<path d="M206.759 471.328L235.25 451.7C239.757 448.538 245.105 446.795 250.609 446.696C256.113 446.597 261.521 448.145 266.138 451.142C270.064 453.759 273.009 457.194 273.009 461.611C273.009 474.861 243.859 505.778 243.859 505.778C243.859 505.778 221.776 554.361 200.576 556.128C186.63 557.392 172.768 559.457 159.059 562.311C159.059 562.311 168.776 597.644 163.476 607.361C158.176 617.077 137.859 628.561 136.092 627.677C134.326 626.794 109.592 603.827 98.9926 571.144C88.3926 538.461 81.3259 513.727 91.0426 511.961C100.759 510.194 206.759 471.328 206.759 471.328Z" fill="#2F2E41"/>
<path d="M270.359 458.961C270.359 458.961 276.542 458.078 275.659 473.094C274.775 488.111 272.125 541.994 267.709 552.594C263.292 563.194 262.409 575.561 264.175 579.977C265.942 584.394 269.475 591.461 263.292 592.344C257.109 593.227 231.492 589.694 228.842 588.811C226.192 587.927 239.442 553.478 237.676 551.711C235.909 549.944 234.142 508.428 234.142 508.428L270.359 458.961Z" fill="#2F2E41"/>
<path d="M261.525 589.694C261.525 589.694 276.542 585.277 278.309 594.994C278.309 594.994 280.959 610.011 269.475 615.311C262.065 618.813 254.972 622.951 248.275 627.677C248.275 627.677 229.725 634.744 228.842 625.911C227.959 617.077 232.376 585.277 232.376 585.277L261.525 589.694Z" fill="#2F2E41"/>
<path d="M161.709 600.294L133.442 577.328C133.442 577.328 138.742 605.594 131.676 610.894L128.448 620.331L137.487 627.725C137.487 627.725 165.242 623.261 161.709 600.294Z" fill="#2F2E41"/>
<path d="M121.959 561.428C121.959 561.428 140.509 566.728 137.859 585.277C135.209 603.827 131.811 623.981 131.811 623.981C131.811 623.981 130.792 673.611 117.543 677.144C104.293 680.677 100.759 673.611 100.759 673.611C100.759 673.611 85.6977 634.828 90.1592 623.261C95.5596 609.259 103.341 593.538 100.759 588.811C98.2183 584.16 102.526 558.778 121.959 561.428Z" fill="#2F2E41"/>
<path d="M111.359 317.628C111.359 317.628 118.426 318.511 129.909 320.278C141.393 322.045 149.342 313.211 155.526 314.978C161.709 316.745 212.942 329.111 212.942 329.111L208.511 363.086C207.058 374.221 203.451 384.884 198.83 395.119C191.379 411.622 202.419 463.321 212.942 473.094C222.096 481.595 234.142 483.694 220.892 498.711C207.642 513.728 184.676 526.978 137.859 522.561C91.0426 518.144 84.8593 519.028 84.8593 511.961C84.8593 504.894 101.52 412.144 96.2203 406.845C90.9203 401.545 88.2703 396.244 88.2703 393.595C88.2703 391.823 82.7445 371.896 79.0804 358.876C76.4187 349.687 77.4092 339.825 81.8449 331.348C83.5032 328.245 85.3994 325.862 87.3869 325.578C93.5702 324.695 89.2758 320.278 93.6925 320.278C98.1092 320.278 100.759 321.161 103.409 320.278L111.359 317.628Z" fill="#6C63FF"/>
<path d="M179.063 250.874C179.063 250.874 178.264 207.514 135.703 228.039C135.703 228.039 102.977 226.885 98.3976 268.282L93.9696 311.621L98.7129 308.055L101.891 312.956L110.559 313.842L113.089 306.218L116.089 314.582L185.535 311.326C185.535 311.326 152.212 297.712 146.941 265.293L153.688 270.603L179.063 250.874Z" fill="#2F2E41"/>
<path d="M99.073 251.255C108.68 251.255 116.468 243.467 116.468 233.859C116.468 224.252 108.68 216.464 99.073 216.464C89.4657 216.464 81.6776 224.252 81.6776 233.859C81.6776 243.467 89.4657 251.255 99.073 251.255Z" fill="#2F2E41"/>
<path d="M116.186 227.035C115.26 222.71 112.72 218.901 109.084 216.383C105.448 213.865 100.989 212.828 96.6152 213.483C96.964 213.385 97.3081 213.279 97.667 213.202C99.901 212.725 102.207 212.693 104.454 213.107C106.7 213.521 108.843 214.373 110.76 215.616C112.677 216.858 114.331 218.466 115.627 220.347C116.922 222.228 117.835 224.346 118.312 226.58C118.789 228.814 118.822 231.121 118.408 233.367C117.994 235.614 117.141 237.757 115.899 239.674C114.656 241.591 113.049 243.244 111.167 244.54C109.286 245.836 107.168 246.748 104.934 247.226C104.575 247.302 104.217 247.345 103.859 247.399C108.119 246.21 111.765 243.442 114.056 239.658C116.346 235.874 117.107 231.36 116.186 227.035Z" fill="#2F2E41"/>
<path d="M541.812 105.14C557.648 105.14 570.486 92.3027 570.486 76.4667C570.486 60.6307 557.648 47.7932 541.812 47.7932C525.976 47.7932 513.139 60.6307 513.139 76.4667C513.139 92.3027 525.976 105.14 541.812 105.14Z" fill="#2F2E41"/>
<path d="M556.909 95.556C556.909 95.556 556.477 113.255 558.204 113.687C559.931 114.119 534.461 121.026 534.461 121.026L531.871 96.8511L556.909 95.556Z" fill="#FFB8B8"/>
<path d="M355.741 246.648C355.741 246.648 336.746 246.648 336.315 244.49C335.883 242.331 331.998 262.189 331.998 262.189L339.768 264.779C339.768 264.779 354.446 258.304 355.741 258.304C357.036 258.304 355.741 246.648 355.741 246.648Z" fill="#FFB8B8"/>
<path d="M335.019 254.418C335.019 254.418 338.473 242.763 342.79 242.331C342.79 242.331 328.112 232.834 327.681 229.812C327.249 226.79 322.069 219.02 319.91 221.61C317.752 224.2 317.752 265.211 321.637 269.528C325.522 273.845 342.79 263.46 342.79 263.46C342.79 263.46 331.998 258.735 335.019 254.418Z" fill="#2F2E41"/>
<path d="M569.428 419.757L572.881 438.319L556.909 440.909V419.757H569.428Z" fill="#FFB8B8"/>
<path d="M569.428 436.161C569.428 436.161 572.018 427.959 573.745 429.254C575.472 430.549 578.062 438.751 577.63 440.909C577.199 443.068 574.177 459.904 575.472 462.926C576.767 465.947 568.996 481.488 559.067 480.193C549.139 478.898 550.002 470.264 550.002 470.264L553.455 456.882L554.751 435.729C554.751 435.729 565.975 434.002 569.428 436.161Z" fill="#2F2E41"/>
<path d="M551.843 58.153C558.395 58.153 563.708 52.8409 563.708 46.288C563.708 39.7352 558.395 34.4231 551.843 34.4231C545.29 34.4231 539.978 39.7352 539.978 46.288C539.978 52.8409 545.29 58.153 551.843 58.153Z" fill="#2F2E41"/>
<path d="M567.663 39.8612C567.662 36.9284 566.576 34.0996 564.613 31.9204C562.651 29.7413 559.95 28.3662 557.034 28.0604C557.444 28.0178 557.857 27.9964 558.27 27.9963C561.414 27.9992 564.429 29.2505 566.652 31.4753C568.875 33.7001 570.124 36.7163 570.124 39.8612C570.124 43.0061 568.875 46.0223 566.652 48.2471C564.429 50.4719 561.414 51.7232 558.27 51.7261C557.857 51.726 557.444 51.7046 557.034 51.662C559.95 51.3562 562.651 49.9811 564.613 47.802C566.576 45.6228 567.662 42.794 567.663 39.8612Z" fill="#2F2E41"/>
<path d="M541.8 107.643C551.813 107.643 559.931 99.5258 559.931 89.5123C559.931 79.4988 551.813 71.3813 541.8 71.3813C531.786 71.3813 523.669 79.4988 523.669 89.5123C523.669 99.5258 531.786 107.643 541.8 107.643Z" fill="#FFB8B8"/>
<path d="M577.63 215.566C577.63 215.566 576.767 237.151 573.313 248.375C569.86 259.599 557.409 339.533 559.999 345.577C562.589 351.62 575.903 418.461 572.882 422.347C569.86 426.232 555.614 424.937 555.614 424.937L536.256 343.85C536.256 343.85 540.073 254.418 508.128 252.26C476.183 250.102 423.948 248.807 423.948 248.807C423.948 248.807 390.276 258.735 375.167 258.304C360.058 257.872 351.424 262.189 351.424 262.189L348.834 244.49L415.746 229.812C415.746 229.812 477.046 208.659 510.718 214.271C544.39 219.883 577.63 215.566 577.63 215.566Z" fill="#2F2E41"/>
<path d="M553.455 108.075C553.455 108.075 558.636 105.053 559.931 108.075C561.226 111.097 570.291 113.687 573.745 111.097C577.198 108.507 585.832 111.96 585.832 111.96L595.33 140.02C595.33 140.02 590.581 164.195 586.264 177.577C581.947 190.96 580.22 218.588 581.947 221.178C583.674 223.769 547.412 234.129 529.712 227.654C512.013 221.178 508.128 213.84 508.128 213.84C508.128 213.84 527.554 186.211 521.079 173.261C514.603 160.31 519.783 145.632 519.783 145.632L517.193 130.955L531.871 122.753C531.871 122.753 532.734 114.982 536.188 114.982C539.641 114.982 553.455 108.075 553.455 108.075Z" fill="#D0CDE1"/>
<path d="M523.669 131.386H517.193C515.397 133.067 514.058 135.178 513.303 137.519C512.548 139.86 512.401 142.355 512.876 144.769C514.603 152.971 522.391 180.164 522.391 180.164L528.849 163.332L523.669 131.386Z" fill="#D0CDE1"/>
<path d="M505.074 200.714C505.074 200.714 492.155 214.703 501.653 222.042C511.15 229.38 513.49 205.206 513.49 205.206L505.074 200.714Z" fill="#FFB8B8"/>
<path d="M523.669 171.534L520.647 183.621L515.467 193.118C515.467 193.118 497.767 204.774 497.767 209.091C497.767 209.091 505.538 199.162 515.467 209.091L524.316 187.722L523.669 171.534Z" fill="#D0CDE1"/>
<path d="M538.477 82.2521C549.398 82.2521 558.251 76.94 558.251 70.3872C558.251 63.8344 549.398 58.5222 538.477 58.5222C527.555 58.5222 518.702 63.8344 518.702 70.3872C518.702 76.94 527.555 82.2521 538.477 82.2521Z" fill="#2F2E41"/>
<path d="M577.63 71.3812C577.63 71.3812 563.816 63.6108 558.204 69.2228C552.592 74.8348 575.04 83.4686 575.04 83.4686L577.63 71.3812Z" fill="#FFB8B8"/>
<path d="M582.81 114.119L585.832 111.96C585.832 111.96 589.286 106.78 592.308 108.507C595.329 110.233 613.029 102.031 613.029 102.031C613.029 102.031 606.553 105.053 606.553 99.8729C606.553 94.6926 605.69 95.556 601.373 95.556C597.056 95.556 597.056 97.7144 595.329 94.6926C593.603 91.6707 594.466 89.9439 591.444 91.6707C588.422 93.3975 584.969 92.1024 584.105 90.8073C583.242 89.5122 567.701 87.3538 567.701 87.3538C567.701 87.3538 573.745 69.6544 575.04 68.3594C576.335 67.0643 609.575 81.7419 609.575 81.7419C609.575 81.7419 651.449 93.3975 640.657 106.78C629.865 120.162 591.013 140.452 591.013 140.452L582.81 114.119Z" fill="#D0CDE1"/>
<path d="M663.61 0L741.49 0.483719C741.49 0.483719 869.679 68.6897 779.705 209.939C779.705 209.939 742.942 201.232 702.308 231.223C702.308 231.223 678.605 5.32104 663.61 0Z" fill="#6C63FF"/>
<path opacity="0.2" d="M686.777 0.707054C700.729 58.9898 716.502 209.312 716.502 209.312C752.805 182.517 785.996 186.609 792.663 187.786C788.73 195.572 784.406 203.154 779.705 210.502C779.705 210.502 742.942 201.795 702.308 231.786C702.308 231.786 678.605 5.88421 663.61 0.563171L686.777 0.707054Z" fill="black"/>
<path d="M780.189 73.043L786.961 105.937L872.069 90.467L872.097 90.457L874.032 51.759H857.586L780.189 73.043Z" fill="#3F3D56"/>
<path opacity="0.2" d="M858.959 51.759L872.069 90.467L872.097 90.457L874.032 51.759H858.959Z" fill="black"/>
<path d="M783.091 109.807C788.434 109.807 792.766 99.8445 792.766 87.5553C792.766 75.266 788.434 65.3036 783.091 65.3036C777.748 65.3036 773.417 75.266 773.417 87.5553C773.417 99.8445 777.748 109.807 783.091 109.807Z" fill="#3F3D56"/>
<path d="M833.399 557.796C833.011 557.796 832.626 557.719 832.268 557.571C831.909 557.422 831.583 557.205 831.308 556.93C831.034 556.655 830.816 556.329 830.667 555.971C830.519 555.612 830.442 555.227 830.442 554.839V87.5554C830.442 86.7711 830.754 86.0189 831.308 85.4643C831.863 84.9098 832.615 84.5982 833.399 84.5982C834.184 84.5982 834.936 84.9098 835.49 85.4643C836.045 86.0189 836.356 86.7711 836.356 87.5554V554.839C836.356 555.227 836.28 555.612 836.131 555.97C835.983 556.329 835.765 556.655 835.491 556.93C835.216 557.204 834.89 557.422 834.531 557.571C834.173 557.719 833.788 557.796 833.4 557.796H833.399Z" fill="#3F3D56"/>
<path d="M792.77 640.031C792.333 640.032 791.902 639.936 791.506 639.75C791.111 639.564 790.762 639.293 790.484 638.956C790.206 638.619 790.006 638.225 789.899 637.801C789.792 637.378 789.78 636.936 789.863 636.508L827.612 442.987L728.484 594.192C728.272 594.517 727.997 594.798 727.676 595.017C727.355 595.236 726.994 595.39 726.613 595.469C726.232 595.548 725.84 595.552 725.458 595.48C725.076 595.407 724.712 595.26 724.387 595.047C724.062 594.834 723.782 594.559 723.563 594.237C723.344 593.916 723.191 593.554 723.113 593.174C723.034 592.793 723.031 592.4 723.104 592.019C723.177 591.637 723.324 591.273 723.538 590.948V590.948L830.926 427.146C831.302 426.573 831.865 426.148 832.52 425.944C833.174 425.741 833.879 425.771 834.514 426.029C835.149 426.287 835.674 426.758 836 427.361C836.326 427.964 836.433 428.661 836.302 429.334L795.669 637.64C795.538 638.312 795.177 638.919 794.648 639.355C794.119 639.791 793.455 640.03 792.77 640.031V640.031Z" fill="#3F3D56"/>
<path d="M945.627 603.267C945.136 603.267 944.652 603.145 944.22 602.912C943.788 602.679 943.42 602.341 943.152 601.93L830.926 430.69C830.712 430.365 830.565 430.001 830.492 429.62C830.419 429.238 830.422 428.845 830.501 428.465C830.58 428.084 830.733 427.723 830.952 427.401C831.171 427.08 831.451 426.805 831.776 426.592C832.101 426.379 832.465 426.232 832.847 426.16C833.229 426.087 833.621 426.091 834.002 426.171C834.382 426.25 834.743 426.404 835.064 426.623C835.385 426.843 835.66 427.123 835.872 427.449V427.449L948.098 598.689C948.39 599.135 948.556 599.651 948.579 600.184C948.601 600.716 948.48 601.245 948.226 601.714C947.973 602.183 947.598 602.575 947.141 602.848C946.683 603.121 946.16 603.266 945.627 603.267V603.267Z" fill="#3F3D56"/>
<path d="M273.184 298H266.434V246.812H273.184V298ZM291.605 298H285.102V244H291.605V298ZM309.113 298H302.609V244H309.113V298ZM343.039 294.238C340.508 297.215 336.793 298.703 331.895 298.703C327.84 298.703 324.746 297.531 322.613 295.188C320.504 292.82 319.438 289.328 319.414 284.711V259.961H325.918V284.535C325.918 290.301 328.262 293.184 332.949 293.184C337.918 293.184 341.223 291.332 342.863 287.629V259.961H349.367V298H343.18L343.039 294.238ZM381.43 287.91C381.43 286.152 380.762 284.793 379.426 283.832C378.113 282.848 375.805 282.004 372.5 281.301C369.219 280.598 366.605 279.754 364.66 278.77C362.738 277.785 361.309 276.613 360.371 275.254C359.457 273.895 359 272.277 359 270.402C359 267.285 360.312 264.648 362.938 262.492C365.586 260.336 368.961 259.258 373.062 259.258C377.375 259.258 380.867 260.371 383.539 262.598C386.234 264.824 387.582 267.672 387.582 271.141H381.043C381.043 269.359 380.281 267.824 378.758 266.535C377.258 265.246 375.359 264.602 373.062 264.602C370.695 264.602 368.844 265.117 367.508 266.148C366.172 267.18 365.504 268.527 365.504 270.191C365.504 271.762 366.125 272.945 367.367 273.742C368.609 274.539 370.848 275.301 374.082 276.027C377.34 276.754 379.977 277.621 381.992 278.629C384.008 279.637 385.496 280.855 386.457 282.285C387.441 283.691 387.934 285.414 387.934 287.453C387.934 290.852 386.574 293.582 383.855 295.645C381.137 297.684 377.609 298.703 373.273 298.703C370.227 298.703 367.531 298.164 365.188 297.086C362.844 296.008 361.004 294.508 359.668 292.586C358.355 290.641 357.699 288.543 357.699 286.293H364.203C364.32 288.473 365.188 290.207 366.805 291.496C368.445 292.762 370.602 293.395 373.273 293.395C375.734 293.395 377.703 292.902 379.18 291.918C380.68 290.91 381.43 289.574 381.43 287.91ZM405.23 250.75V259.961H412.332V264.988H405.23V288.578C405.23 290.102 405.547 291.25 406.18 292.023C406.812 292.773 407.891 293.148 409.414 293.148C410.164 293.148 411.195 293.008 412.508 292.727V298C410.797 298.469 409.133 298.703 407.516 298.703C404.609 298.703 402.418 297.824 400.941 296.066C399.465 294.309 398.727 291.812 398.727 288.578V264.988H391.801V259.961H398.727V250.75H405.23ZM438.348 265.797C437.363 265.633 436.297 265.551 435.148 265.551C430.883 265.551 427.988 267.367 426.465 271V298H419.961V259.961H426.289L426.395 264.355C428.527 260.957 431.551 259.258 435.465 259.258C436.73 259.258 437.691 259.422 438.348 259.75V265.797ZM466.438 298C466.062 297.25 465.758 295.914 465.523 293.992C462.5 297.133 458.891 298.703 454.695 298.703C450.945 298.703 447.863 297.648 445.449 295.539C443.059 293.406 441.863 290.711 441.863 287.453C441.863 283.492 443.363 280.422 446.363 278.242C449.387 276.039 453.629 274.938 459.09 274.938H465.418V271.949C465.418 269.676 464.738 267.871 463.379 266.535C462.02 265.176 460.016 264.496 457.367 264.496C455.047 264.496 453.102 265.082 451.531 266.254C449.961 267.426 449.176 268.844 449.176 270.508H442.637C442.637 268.609 443.305 266.781 444.641 265.023C446 263.242 447.828 261.836 450.125 260.805C452.445 259.773 454.988 259.258 457.754 259.258C462.137 259.258 465.57 260.359 468.055 262.562C470.539 264.742 471.828 267.754 471.922 271.598V289.105C471.922 292.598 472.367 295.375 473.258 297.438V298H466.438ZM455.645 293.043C457.684 293.043 459.617 292.516 461.445 291.461C463.273 290.406 464.598 289.035 465.418 287.348V279.543H460.32C452.352 279.543 448.367 281.875 448.367 286.539C448.367 288.578 449.047 290.172 450.406 291.32C451.766 292.469 453.512 293.043 455.645 293.043ZM490.941 250.75V259.961H498.043V264.988H490.941V288.578C490.941 290.102 491.258 291.25 491.891 292.023C492.523 292.773 493.602 293.148 495.125 293.148C495.875 293.148 496.906 293.008 498.219 292.727V298C496.508 298.469 494.844 298.703 493.227 298.703C490.32 298.703 488.129 297.824 486.652 296.066C485.176 294.309 484.438 291.812 484.438 288.578V264.988H477.512V259.961H484.438V250.75H490.941ZM512.738 298H506.234V259.961H512.738V298ZM505.707 249.871C505.707 248.816 506.023 247.926 506.656 247.199C507.312 246.473 508.273 246.109 509.539 246.109C510.805 246.109 511.766 246.473 512.422 247.199C513.078 247.926 513.406 248.816 513.406 249.871C513.406 250.926 513.078 251.805 512.422 252.508C511.766 253.211 510.805 253.562 509.539 253.562C508.273 253.562 507.312 253.211 506.656 252.508C506.023 251.805 505.707 250.926 505.707 249.871ZM521.457 278.629C521.457 274.902 522.184 271.551 523.637 268.574C525.113 265.598 527.152 263.301 529.754 261.684C532.379 260.066 535.367 259.258 538.719 259.258C543.898 259.258 548.082 261.051 551.27 264.637C554.48 268.223 556.086 272.992 556.086 278.945V279.402C556.086 283.105 555.371 286.434 553.941 289.387C552.535 292.316 550.508 294.602 547.859 296.242C545.234 297.883 542.211 298.703 538.789 298.703C533.633 298.703 529.449 296.91 526.238 293.324C523.051 289.738 521.457 284.992 521.457 279.086V278.629ZM527.996 279.402C527.996 283.621 528.969 287.008 530.914 289.562C532.883 292.117 535.508 293.395 538.789 293.395C542.094 293.395 544.719 292.105 546.664 289.527C548.609 286.926 549.582 283.293 549.582 278.629C549.582 274.457 548.586 271.082 546.594 268.504C544.625 265.902 542 264.602 538.719 264.602C535.508 264.602 532.918 265.879 530.949 268.434C528.98 270.988 527.996 274.645 527.996 279.402ZM570.395 259.961L570.605 264.742C573.512 261.086 577.309 259.258 581.996 259.258C590.035 259.258 594.09 263.793 594.16 272.863V298H587.656V272.828C587.633 270.086 587 268.059 585.758 266.746C584.539 265.434 582.629 264.777 580.027 264.777C577.918 264.777 576.066 265.34 574.473 266.465C572.879 267.59 571.637 269.066 570.746 270.895V298H564.242V259.961H570.395ZM626.117 287.91C626.117 286.152 625.449 284.793 624.113 283.832C622.801 282.848 620.492 282.004 617.188 281.301C613.906 280.598 611.293 279.754 609.348 278.77C607.426 277.785 605.996 276.613 605.059 275.254C604.145 273.895 603.688 272.277 603.688 270.402C603.688 267.285 605 264.648 607.625 262.492C610.273 260.336 613.648 259.258 617.75 259.258C622.062 259.258 625.555 260.371 628.227 262.598C630.922 264.824 632.27 267.672 632.27 271.141H625.73C625.73 269.359 624.969 267.824 623.445 266.535C621.945 265.246 620.047 264.602 617.75 264.602C615.383 264.602 613.531 265.117 612.195 266.148C610.859 267.18 610.191 268.527 610.191 270.191C610.191 271.762 610.812 272.945 612.055 273.742C613.297 274.539 615.535 275.301 618.77 276.027C622.027 276.754 624.664 277.621 626.68 278.629C628.695 279.637 630.184 280.855 631.145 282.285C632.129 283.691 632.621 285.414 632.621 287.453C632.621 290.852 631.262 293.582 628.543 295.645C625.824 297.684 622.297 298.703 617.961 298.703C614.914 298.703 612.219 298.164 609.875 297.086C607.531 296.008 605.691 294.508 604.355 292.586C603.043 290.641 602.387 288.543 602.387 286.293H608.891C609.008 288.473 609.875 290.207 611.492 291.496C613.133 292.762 615.289 293.395 617.961 293.395C620.422 293.395 622.391 292.902 623.867 291.918C625.367 290.91 626.117 289.574 626.117 287.91Z" fill="black" fill-opacity="0.33"/>
</g>
<defs>
<clipPath id="clip0">
<rect width="994.405" height="678.133" fill="white"/>
</clipPath>
</defs>
</svg>
