<svg width="1057" height="532" viewBox="0 0 1057 532" fill="none" xmlns="http://www.w3.org/2000/svg">
<rect width="1057" height="532" fill="#E5E5E5"/>
<g clip-path="url(#clip0)">
<path d="M960.005 279.061L859.879 326.448L948.495 260.186C934.092 237.706 917.912 216.415 900.111 196.518L465.879 304.448L858.113 154.825C840.189 139.01 821.154 124.502 801.155 111.41L139.489 217.988C69.2363 305.838 30.9397 414.963 30.8856 527.448H1026.87C1026.83 440.21 1003.77 354.528 960.005 279.061V279.061Z" fill="#F2F2F2"/>
<path d="M747.002 80.6435C679.069 47.5101 604.462 30.3411 528.879 30.4481C375.05 30.4481 237.518 100.201 146.169 209.797C302.595 175.522 574.946 116.191 747.002 80.6435Z" fill="#F2F2F2"/>
<path d="M132.457 423.441C171.997 496.771 255.916 528.249 255.916 528.249C255.916 528.249 275.727 440.838 236.187 367.508C196.647 294.179 112.728 262.7 112.728 262.7C112.728 262.7 92.9163 350.112 132.457 423.441Z" fill="#2F2E41"/>
<path d="M159.634 399.316C231.021 442.265 258.514 527.573 258.514 527.573C258.514 527.573 170.267 543.247 98.8801 500.298C27.4933 457.35 0 372.042 0 372.042C0 372.042 88.2476 356.368 159.634 399.316Z" fill="#6C63FF"/>
<path d="M695.353 235.546H169.879V246.804H695.353V235.546Z" fill="#3F3D56"/>
<path d="M695.353 291.835H169.879V303.092H695.353V291.835Z" fill="#3F3D56"/>
<path d="M695.353 345.308H169.879V362.195H695.353V345.308Z" fill="#3F3D56"/>
<path d="M252.018 201.34L251.223 527.439L262.9 527.467L263.695 201.368L252.018 201.34Z" fill="#3F3D56"/>
<path d="M596.494 202.18L595.699 528.278L607.376 528.307L608.171 202.208L596.494 202.18Z" fill="#3F3D56"/>
<path d="M1045.15 159.803C1029.41 175.681 991.419 188.264 975.541 172.525C959.663 156.786 971.911 118.686 987.649 102.808C995.207 95.183 1005.48 90.8729 1016.22 90.8256C1026.96 90.7783 1037.27 94.9978 1044.9 102.556C1052.52 110.114 1056.83 120.391 1056.88 131.127C1056.93 141.863 1052.71 152.178 1045.15 159.803V159.803Z" fill="#6C63FF"/>
<path d="M975.565 178.043C975.33 176.663 974.67 175.392 973.676 174.407C972.682 173.422 971.405 172.772 970.023 172.549L975.517 167.007L981.059 172.5L975.565 178.043Z" fill="#6C63FF"/>
<path d="M978.3 175.713C976.914 175.279 975.651 174.522 974.616 173.503C973.581 172.485 972.802 171.235 972.345 169.857L973.457 169.493C973.856 170.695 974.535 171.785 975.438 172.672C976.342 173.56 977.443 174.22 978.652 174.598L978.3 175.713Z" fill="#2F2E41"/>
<path d="M857.795 291.841L856.965 291.017L974.068 173.452L974.899 174.276L857.795 291.841Z" fill="#2F2E41"/>
<path opacity="0.4" d="M1046.43 137.036C1050.41 133.019 1050.92 127.072 1047.58 123.753C1044.23 120.435 1038.29 121.002 1034.3 125.019C1030.32 129.036 1029.81 134.983 1033.16 138.301C1036.5 141.62 1042.45 141.053 1046.43 137.036Z" fill="white"/>
<path d="M993.784 116.502C983.266 136.23 950.487 159.19 930.759 148.672C911.031 138.154 911.825 98.1416 922.343 78.4137C927.394 68.94 936.001 61.8607 946.272 58.7333C956.542 55.6058 967.634 56.6864 977.108 61.7372C986.582 66.7881 993.661 75.3955 996.788 85.6659C999.916 95.9363 998.835 107.028 993.784 116.502V116.502Z" fill="#6C63FF"/>
<path d="M932.367 153.95C931.745 152.697 930.747 151.668 929.513 151.01C928.278 150.352 926.868 150.096 925.481 150.279L929.152 143.393L936.038 147.065L932.367 153.95Z" fill="#6C63FF"/>
<path d="M934.317 150.934C932.865 150.916 931.438 150.553 930.154 149.875C928.87 149.197 927.765 148.223 926.932 147.034L927.892 146.367C928.62 147.403 929.583 148.252 930.703 148.843C931.823 149.434 933.068 149.75 934.334 149.765L934.317 150.934Z" fill="#2F2E41"/>
<path d="M852.224 296.768L851.192 296.218L929.614 149.983L930.646 150.533L852.224 296.768Z" fill="#2F2E41"/>
<path opacity="0.4" d="M988.473 94.3263C991.135 89.3349 989.92 83.4908 985.76 81.2732C981.601 79.0556 976.072 81.3042 973.411 86.2956C970.749 91.287 971.964 97.1311 976.124 99.3487C980.283 101.566 985.812 99.3177 988.473 94.3263Z" fill="white"/>
<path d="M967.951 226.473C952.213 242.351 914.222 254.934 898.344 239.195C882.466 223.457 894.713 185.356 910.452 169.478C914.194 165.703 918.644 162.702 923.546 160.646C928.448 158.59 933.707 157.519 939.023 157.496C944.339 157.473 949.608 158.497 954.528 160.509C959.448 162.522 963.924 165.484 967.699 169.226C971.475 172.969 974.476 177.418 976.532 182.32C978.588 187.222 979.658 192.482 979.681 197.798C979.705 203.113 978.681 208.382 976.668 213.302C974.656 218.222 971.694 222.698 967.951 226.473V226.473Z" fill="#6C63FF"/>
<path d="M898.368 244.713C898.133 243.334 897.472 242.062 896.478 241.077C895.485 240.092 894.207 239.443 892.826 239.22L898.32 233.677L903.862 239.171L898.368 244.713Z" fill="#6C63FF"/>
<path d="M901.102 242.384C899.717 241.95 898.454 241.192 897.418 240.174C896.383 239.156 895.605 237.906 895.148 236.527L896.259 236.164C896.658 237.366 897.338 238.455 898.241 239.343C899.144 240.23 900.246 240.89 901.454 241.268L901.102 242.384Z" fill="#2F2E41"/>
<path d="M896.878 240.129L844.677 292.765L845.507 293.588L897.708 240.953L896.878 240.129Z" fill="#2F2E41"/>
<path opacity="0.4" d="M969.231 203.706C973.213 199.689 973.727 193.742 970.379 190.424C967.031 187.105 961.089 187.672 957.107 191.689C953.125 195.707 952.611 201.653 955.959 204.972C959.306 208.29 965.248 207.724 969.231 203.706Z" fill="white"/>
<path d="M803.361 55.272C791.459 35.1614 767.912 34.2242 767.912 34.2242C767.912 34.2242 744.967 31.29 730.247 61.9186C716.528 90.467 697.593 118.031 727.199 124.714L732.547 108.07L735.859 125.953C740.074 126.256 744.303 126.329 748.526 126.17C780.231 125.146 810.426 126.469 809.454 115.092C808.161 99.9675 814.813 74.6223 803.361 55.272Z" fill="#2F2E41"/>
<path d="M776.079 496.257C775.053 500.842 773.219 505.305 773.121 510.002C773.022 514.7 775.291 519.932 779.784 521.304C781.933 521.791 784.161 521.811 786.318 521.361C788.698 521.039 791.226 520.652 793.033 519.071C795.569 516.853 795.863 513.073 795.886 509.704C796 492.942 793.961 476.249 791.926 459.612C791.895 459.355 781.012 459.101 779.919 459.602C776.747 461.059 777.033 464.635 776.991 467.673C776.86 477.198 778.184 486.854 776.079 496.257Z" fill="#2F2E41"/>
<path d="M702.247 496.257C703.273 500.842 705.107 505.305 705.206 510.002C705.304 514.7 703.036 519.932 698.542 521.304C696.393 521.791 694.165 521.811 692.008 521.361C689.629 521.039 687.1 520.652 685.293 519.071C682.757 516.853 682.463 513.073 682.44 509.704C682.326 492.942 684.365 476.249 686.4 459.612C686.431 459.355 697.315 459.101 698.407 459.602C701.579 461.059 701.293 464.635 701.335 467.673C701.466 477.198 700.142 486.854 702.247 496.257Z" fill="#2F2E41"/>
<path d="M738.681 238.719C743.973 241.245 750.026 241.574 755.889 241.509C768.881 241.363 781.797 239.505 794.303 235.983C796.7 235.415 798.997 234.487 801.116 233.23C801.649 232.944 802.071 232.487 802.312 231.932C802.42 231.485 802.423 231.019 802.32 230.571L800.294 217.082C800.314 216.824 800.272 216.566 800.171 216.328C800.07 216.09 799.914 215.879 799.716 215.714C799.518 215.548 799.282 215.433 799.03 215.377C798.778 215.321 798.516 215.326 798.266 215.391C787.252 215.44 776.248 216.085 765.303 217.323C759.742 217.952 754.201 218.733 748.68 219.666C745.756 220.161 737.263 220.255 735.785 223.378C734.905 225.236 736.684 228.506 737.135 230.314C737.385 231.317 738.077 238.43 738.681 238.719Z" fill="#FFB8B8"/>
<path d="M763.384 235.384C754.085 235.038 744.905 233.18 736.204 229.883C735.822 229.738 735.324 229.617 735.061 229.929C734.954 230.084 734.894 230.266 734.886 230.454L732.652 247.332C730.335 264.837 724.224 282.143 720.231 299.344C717.78 309.902 715.328 320.461 712.767 330.993C710.159 341.72 707.433 352.43 703.988 362.919C694.545 391.613 679.842 418.297 660.631 441.609C658.412 444.299 655.99 447.399 656.447 450.856C657.04 455.335 661.964 457.67 666.212 459.207C662.282 460.944 662.525 467.145 665.663 470.08C668.801 473.015 673.416 473.565 677.694 473.969L692.33 475.352C696.077 475.705 700.015 476.031 703.458 474.512C705.681 473.532 707.524 471.849 709.682 470.731C717.314 466.778 726.417 470.634 734.534 473.462C745.858 477.402 757.8 479.269 769.786 478.975C774.795 478.85 780.636 477.811 782.922 473.353C783.805 471.632 783.996 469.638 784.739 467.852C785.296 466.665 786.082 465.6 787.053 464.718C788.025 463.837 789.161 463.157 790.397 462.718C791.632 462.279 792.943 462.09 794.252 462.161C795.562 462.232 796.844 462.562 798.025 463.132C802.172 465.365 804.165 470.333 808.097 472.926C811.256 475.009 815.231 475.289 819.008 475.507L840.499 476.746C841.339 475.244 841.735 473.535 841.642 471.817C841.549 470.099 840.97 468.443 839.973 467.041C844.126 467.118 848.213 465.984 851.732 463.777C855.251 461.569 858.05 458.384 859.788 454.611C861.526 450.837 862.127 446.64 861.517 442.53C860.907 438.421 859.113 434.579 856.355 431.473C853.309 428.048 851.075 423.98 849.818 419.573C842.825 393.388 842.238 365.859 835.8 339.533C834.511 334.261 832.986 329.033 832.168 323.668C831.133 316.879 831.245 309.976 830.981 303.113C830.359 286.961 827.652 270.957 822.93 255.499C819.74 245.067 815.53 234.73 808.548 226.349C806.835 224.072 804.617 222.224 802.068 220.95C799.466 219.815 796.221 219.8 793.979 221.541C792.681 222.549 791.839 224.025 790.706 225.216C788.265 227.782 784.683 228.846 781.275 229.809C774.411 231.748 770.511 235.647 763.384 235.384Z" fill="#3F3D56"/>
<path d="M703.459 232.231C703.015 234.456 702.51 236.668 702.002 238.88C698.963 252.106 695.821 265.307 692.576 278.485C692.013 281.171 691.166 283.789 690.049 286.296C688.023 290.448 684.592 293.753 682.289 297.759C679.987 301.764 679.035 307.218 682.002 310.759C683.901 313.024 686.924 313.946 689.79 314.669C692.51 315.356 695.602 315.909 697.952 314.375C700.454 312.742 701.105 309.42 701.471 306.454C703.024 293.865 703.446 281.043 706.92 268.843C708.081 264.768 709.574 260.797 711.065 256.831L719.876 233.392C722.075 227.544 724.303 221.541 724.326 215.294C724.394 214.696 724.339 214.091 724.163 213.516C723.987 212.941 723.695 212.409 723.304 211.952C722.839 211.576 722.299 211.303 721.72 211.151C718.004 209.953 708.461 208.973 705.95 213.045C704.71 215.055 705.313 219.698 705.046 222.057C704.659 225.468 704.131 228.86 703.459 232.231Z" fill="#FFB8B8"/>
<path d="M813.763 217.923C819.604 234.456 826.064 250.753 833.141 266.815C834.041 268.713 834.79 270.678 835.382 272.694C835.856 274.489 836.07 276.341 836.378 278.172C837.984 287.702 842.673 297.262 851.046 302.086C852.502 303.042 854.203 303.555 855.944 303.564C859.403 303.364 861.866 300.002 862.817 296.671C863.481 294.339 863.664 291.897 863.357 289.493C863.325 288.878 863.118 288.286 862.761 287.785C862.341 287.368 861.825 287.061 861.259 286.89C856.145 284.863 850.93 282.04 848.349 277.181C847.213 274.761 846.438 272.186 846.05 269.541L841.055 244.161C840.462 241.143 839.867 238.122 839.046 235.158C838.374 232.731 837.552 230.349 836.731 227.968L831.275 212.156L827.259 200.514C827.233 200.279 827.159 200.052 827.041 199.848C826.923 199.643 826.764 199.465 826.574 199.324C826.383 199.184 826.166 199.085 825.936 199.033C825.705 198.981 825.466 198.977 825.234 199.022L813.998 199.013C806.547 199.006 812.391 214.039 813.763 217.923Z" fill="#FFB8B8"/>
<path d="M761.387 106.205C775.598 106.205 787.119 94.6841 787.119 80.4725C787.119 66.2608 775.598 54.74 761.387 54.74C747.175 54.74 735.654 66.2608 735.654 80.4725C735.654 94.6841 747.175 106.205 761.387 106.205Z" fill="#FFB8B8"/>
<path d="M747.877 111.73C746.405 113.999 744.004 115.466 741.684 116.856C737.334 119.641 732.742 122.031 727.965 123.995C723.664 125.614 719.019 126.588 715.278 129.256C711.351 132.056 708.826 136.484 707.441 141.103C706.056 145.722 705.704 150.578 705.361 155.388C705.215 156.38 705.296 157.393 705.598 158.349C706.174 159.777 707.645 160.612 709.054 161.235C716.228 164.404 724.262 164.883 732.099 165.185C747.789 165.789 763.494 165.87 779.195 165.95C785.31 166.366 791.438 165.343 797.086 162.963L807.842 159.099C809.357 158.633 810.799 157.957 812.126 157.091C816.677 153.806 816.849 147.054 815.438 141.622C814.367 137.498 812.459 133.312 808.884 130.994C806.814 129.832 804.596 128.956 802.291 128.39C794.606 125.978 787.428 122.177 781.114 117.175C779.592 116.075 778.278 114.712 777.234 113.151C775.307 109.958 775.555 105.974 775.553 102.245C775.625 101.66 775.577 101.067 775.411 100.502C775.246 99.9371 774.967 99.4118 774.591 98.9584C773.834 98.4072 772.92 98.1117 771.983 98.1145C765.878 97.5072 759.55 97.0449 753.536 98.5707C749.794 99.5202 749.425 99.7306 749.577 103.393C749.696 106.259 749.48 109.258 747.877 111.73Z" fill="#FFB8B8"/>
<path d="M798.099 53.333L774.835 41.148L742.71 46.133L736.063 75.489L752.609 74.853L757.231 64.067V74.675L764.865 74.381L769.297 57.211L772.066 75.489L799.207 74.935L798.099 53.333Z" fill="#2F2E41"/>
<path opacity="0.1" d="M770.267 163.552C769.235 147.929 750.157 146.57 749.965 146.558L750 145.974C750.185 145.985 767.195 147.191 770.383 160.403C770.819 155.466 772.742 146.406 780.963 145.974L780.994 146.558C770.3 147.121 770.844 163.357 770.851 163.521L770.267 163.552Z" fill="black"/>
<path d="M764.696 159.043L706.675 147.642C706.378 147.526 706.058 147.478 705.74 147.5C705.421 147.522 705.111 147.614 704.832 147.769C704.553 147.925 704.312 148.14 704.126 148.399C703.939 148.658 703.812 148.955 703.754 149.269L701.651 153.62C699.806 156.98 698.696 160.694 698.396 164.516L697.104 174.228C697.041 175.864 696.509 177.448 695.572 178.79C694.941 179.452 694.203 180.004 693.39 180.422C691.434 181.386 689.664 182.688 688.161 184.268C686.775 185.946 686.09 188.41 687.111 190.332C688.76 193.434 693.451 193.308 695.87 195.856C698.097 198.204 697.665 202.026 696.381 204.997C695.552 206.915 694.408 208.824 694.504 210.911C694.636 212.08 695.063 213.196 695.745 214.155C696.427 215.113 697.341 215.883 698.402 216.391C700.535 217.383 702.84 217.95 705.19 218.062C710.172 218.564 715.184 218.71 720.187 218.499C722.703 218.534 725.2 218.049 727.52 217.074C729.772 215.969 731.656 213.778 731.697 211.27C731.765 207.135 727.067 203.867 727.661 199.774C727.701 199.369 727.85 198.982 728.091 198.654C728.895 197.663 730.473 198.071 731.704 197.73C733.659 197.188 734.466 194.712 734.03 192.73C733.593 190.749 732.303 189.085 731.321 187.31C729.568 184.151 728.8 180.54 729.113 176.941C733.575 178.032 727.806 182.146 728.44 186.695C729.994 197.86 735.02 210.624 732.999 221.714C732.837 222.205 732.783 222.726 732.843 223.24C732.903 223.754 733.074 224.248 733.345 224.689C733.76 225.1 734.281 225.388 734.849 225.522C742.241 227.841 750.082 224.734 757.697 223.307C763.005 222.43 768.38 222.027 773.76 222.105C781.693 222.049 789.622 222.281 797.546 222.802C799.544 222.934 801.645 223.066 803.455 222.209C805.264 221.352 806.597 219.13 805.759 217.311C811.994 217.192 817.86 221.119 824.074 220.593C830.771 220.026 835.858 214.559 840.244 209.467C841.463 208.281 842.34 206.789 842.784 205.148C843.108 203.276 842.29 201.424 841.658 199.633C840.953 197.635 840.462 195.569 840.193 193.468C839.91 192.154 840.068 190.783 840.642 189.568C841.451 188.2 843.112 187.558 844.069 186.29C846.006 183.725 844.21 179.919 841.674 177.945C839.137 175.971 835.92 174.896 833.704 172.568C830.604 169.313 830.168 164.448 829.39 160.021C828.705 156.117 827.556 152.139 824.951 149.153C822.345 146.166 817.968 144.434 814.288 145.904C813.158 146.443 812.059 147.043 810.995 147.702C808.816 148.742 806.507 149.484 804.13 149.911C790.9 152.896 778.004 161.658 764.696 159.043Z" fill="#FF6584"/>
<path d="M678.899 291.162C678.899 291.162 709.262 303.752 699.635 311.157C690.007 318.563 670.013 302.271 670.753 300.049C671.494 297.827 667.791 292.643 667.791 292.643L678.899 291.162Z" fill="#9F616A"/>
<path d="M652.239 191.928L661.866 200.815L664.088 226.734L671.494 254.135C671.494 254.135 684.083 280.054 681.861 285.238C679.64 290.422 684.083 291.903 684.083 291.903L667.05 298.568C667.05 298.568 648.536 277.832 648.536 273.389C648.536 268.946 652.239 191.928 652.239 191.928Z" fill="#575A88"/>
<path opacity="0.1" d="M652.239 191.928L661.866 200.815L664.088 226.734L671.494 254.135C671.494 254.135 684.083 280.054 681.861 285.238C679.64 290.422 684.083 291.903 684.083 291.903L667.05 298.568C667.05 298.568 648.536 277.832 648.536 273.389C648.536 268.946 652.239 191.928 652.239 191.928Z" fill="black"/>
<path d="M743.327 480.164C743.327 480.164 739.625 497.197 738.884 498.678C738.143 500.159 752.955 505.343 752.955 505.343L770.728 492.754C770.728 492.754 763.322 476.462 763.322 473.499L743.327 480.164Z" fill="#575A88"/>
<path d="M646.315 292.643L651.499 298.568C651.499 298.568 758.879 311.898 761.101 332.633C763.322 353.369 778.874 472.759 769.987 475.721C761.101 478.683 738.144 489.791 738.144 483.867C738.144 477.943 723.332 374.845 726.295 360.034C726.295 360.034 598.179 343.742 595.217 325.228C592.254 306.714 598.179 298.568 598.179 298.568L646.315 292.643Z" fill="#2F2E41"/>
<path opacity="0.1" d="M646.315 292.643L651.499 298.568C651.499 298.568 758.879 311.898 761.101 332.633C763.322 353.369 778.874 472.759 769.987 475.721C761.101 478.683 738.144 489.791 738.144 483.867C738.144 477.943 723.332 374.845 726.295 360.034C726.295 360.034 598.179 343.742 595.217 325.228C592.254 306.714 598.179 298.568 598.179 298.568L646.315 292.643Z" fill="black"/>
<path d="M741.846 497.197C741.846 497.197 738.884 490.532 737.403 492.754C735.922 494.975 730.738 520.895 735.922 520.895C741.106 520.895 788.501 532.744 795.166 531.262C801.831 529.781 814.42 532.003 812.939 524.597C811.458 517.192 804.053 516.451 804.053 516.451C804.053 516.451 776.652 500.159 775.171 492.013C773.69 483.867 765.544 488.31 765.544 488.31V493.494C765.544 493.494 749.992 505.343 741.846 497.197Z" fill="#2F2E41"/>
<path d="M601.141 135.646C601.141 135.646 606.325 160.825 595.217 163.047C584.108 165.268 609.287 180.079 609.287 180.079L625.579 188.966L637.428 177.117C637.428 177.117 626.69 155.271 634.836 138.979C642.982 122.686 601.141 135.646 601.141 135.646Z" fill="#9F616A"/>
<path d="M637.428 177.117L625.579 188.966L609.287 180.079C609.287 180.079 584.108 165.268 595.217 163.047C602.363 161.617 602.763 150.687 602.148 143.074C601.948 140.581 601.611 138.102 601.141 135.646C601.141 135.646 642.982 122.686 634.836 138.979C633.598 141.494 632.74 144.18 632.289 146.947C629.793 161.588 637.428 177.117 637.428 177.117Z" fill="#9F616A"/>
<path d="M678.899 480.003V497.036H707.04L709.262 490.371L706.3 472.598L678.899 480.003Z" fill="#575A88"/>
<path d="M562.632 307.454C562.632 307.454 562.632 351.147 580.406 352.628C598.179 354.109 661.866 362.255 661.866 362.255C661.866 362.255 665.569 434.83 672.234 458.527C678.899 482.225 672.975 483.706 678.899 485.187C684.824 486.668 710.002 481.485 709.262 476.301C708.521 471.117 705.559 340.039 705.559 340.039C705.559 340.039 712.224 311.898 623.358 298.568L562.632 307.454Z" fill="#2F2E41"/>
<path d="M681.121 491.852C681.121 491.852 676.678 482.225 675.937 485.187C675.196 488.15 666.31 514.069 675.196 516.291C684.083 518.512 712.224 530.361 730.738 529.621C749.252 528.88 751.473 528.139 751.473 528.139C751.473 528.139 756.657 520.734 749.992 516.291C743.327 511.847 715.927 485.928 714.446 482.966C712.965 480.003 701.856 477.782 701.856 482.966C701.856 488.15 686.305 498.517 681.121 491.852Z" fill="#2F2E41"/>
<path opacity="0.1" d="M634.836 144.979C633.598 147.494 632.74 150.18 632.289 152.947C628.601 155.176 626.135 154.606 621.506 154.606C614.641 154.606 611.872 145.83 607.436 141.276C607.088 137.047 601.141 141.646 601.141 141.646C601.141 141.646 642.982 128.686 634.836 144.979Z" fill="black"/>
<path d="M620.519 153.13C636.182 153.13 648.879 140.433 648.879 124.769C648.879 109.106 636.182 96.4091 620.519 96.4091C604.856 96.4091 592.158 109.106 592.158 124.769C592.158 140.433 604.856 153.13 620.519 153.13Z" fill="#9F616A"/>
<path d="M661.866 200.815C661.866 200.815 658.164 227.475 655.942 237.102C653.72 246.729 650.758 291.162 649.277 297.087C647.796 303.011 638.909 304.492 621.136 302.271C620.02 302.13 618.898 302.046 617.774 302.019C606.828 301.671 594.306 305.766 582.716 308.98C576.051 310.831 569.69 312.387 564.113 312.638C555.671 313.023 553.198 303.663 553.486 293.532C553.76 284.105 556.434 273.996 558.929 270.427C563.425 263.999 559.003 206.287 560.662 187.255V187.248C560.914 184.345 561.307 182.345 561.892 181.56C566.335 175.636 595.217 160.825 598.453 161.425C601.682 162.025 629.282 179.339 629.282 179.339C635.947 179.339 635.732 172.111 635.732 172.111C635.732 172.111 640.39 180.82 649.277 183.041C658.164 185.263 661.866 200.815 661.866 200.815Z" fill="#575A88"/>
<path d="M612.362 296.822C612.362 296.822 660.066 298.341 651.709 304.009C643.353 309.676 606.325 314.86 605.584 307.454C604.844 300.049 612.362 296.822 612.362 296.822Z" fill="#9F616A"/>
<path opacity="0.1" d="M617.774 302.019C617.929 304.863 610.279 311.268 607.806 315.601C606.436 318 595.831 314.838 582.716 308.98C572.652 304.463 562.888 299.303 553.486 293.532C553.76 284.105 556.434 273.996 558.929 270.427C563.425 263.999 559.003 206.287 560.662 187.255V187.248C561.058 187.047 561.469 186.879 561.892 186.744H570.778C601.141 200.815 566.335 261.54 566.335 261.54C566.335 261.54 612.249 299.308 616.693 300.789C616.984 300.845 617.249 300.996 617.444 301.218C617.64 301.441 617.756 301.723 617.774 302.019V302.019Z" fill="black"/>
<path d="M570.778 182.301H561.892C561.892 182.301 553.746 184.523 547.081 199.334C540.416 214.145 515.977 260.059 537.453 277.832C558.929 295.606 604.844 316.341 607.806 311.157C610.768 305.973 621.136 297.827 616.693 296.346C612.249 294.865 566.335 257.097 566.335 257.097C566.335 257.097 601.141 196.371 570.778 182.301Z" fill="#575A88"/>
<path d="M616.156 111.573C616.156 111.573 617.4 94.3436 632.754 101.369C648.108 108.394 647.106 89.0304 642.466 85.6087C637.827 82.187 637.973 81.3403 621.004 83.6296C604.034 85.919 571.088 89.7978 581.741 123.919C592.394 158.04 602.042 149.263 602.042 149.263C602.042 149.263 593.574 118.558 602.154 124.408L610.734 130.257L615.261 129.298L616.156 111.573Z" fill="#2F2E41"/>
<path opacity="0.4" d="M437.631 62.4958C454.889 62.4958 468.879 48.5056 468.879 31.2479C468.879 13.9902 454.889 0 437.631 0C420.374 0 406.384 13.9902 406.384 31.2479C406.384 48.5056 420.374 62.4958 437.631 62.4958Z" fill="#6C63FF"/>
<path opacity="0.4" d="M379.799 68.0924C391.906 68.0924 401.72 58.2785 401.72 46.1723C401.72 34.0661 391.906 24.2521 379.799 24.2521C367.693 24.2521 357.879 34.0661 357.879 46.1723C357.879 58.2785 367.693 68.0924 379.799 68.0924Z" fill="#6C63FF"/>
<path opacity="0.4" d="M926.799 391.092C938.906 391.092 948.72 381.278 948.72 369.172C948.72 357.066 938.906 347.252 926.799 347.252C914.693 347.252 904.879 357.066 904.879 369.172C904.879 381.278 914.693 391.092 926.799 391.092Z" fill="#6C63FF"/>
<path d="M1028.88 529.448H30.879V527.448H1027.88L1028.88 529.448Z" fill="#2F2E41"/>
<path d="M367.184 258H360.434V206.812H367.184V258ZM385.605 258H379.102V204H385.605V258ZM403.113 258H396.609V204H403.113V258ZM437.039 254.238C434.508 257.215 430.793 258.703 425.895 258.703C421.84 258.703 418.746 257.531 416.613 255.188C414.504 252.82 413.438 249.328 413.414 244.711V219.961H419.918V244.535C419.918 250.301 422.262 253.184 426.949 253.184C431.918 253.184 435.223 251.332 436.863 247.629V219.961H443.367V258H437.18L437.039 254.238ZM475.43 247.91C475.43 246.152 474.762 244.793 473.426 243.832C472.113 242.848 469.805 242.004 466.5 241.301C463.219 240.598 460.605 239.754 458.66 238.77C456.738 237.785 455.309 236.613 454.371 235.254C453.457 233.895 453 232.277 453 230.402C453 227.285 454.312 224.648 456.938 222.492C459.586 220.336 462.961 219.258 467.062 219.258C471.375 219.258 474.867 220.371 477.539 222.598C480.234 224.824 481.582 227.672 481.582 231.141H475.043C475.043 229.359 474.281 227.824 472.758 226.535C471.258 225.246 469.359 224.602 467.062 224.602C464.695 224.602 462.844 225.117 461.508 226.148C460.172 227.18 459.504 228.527 459.504 230.191C459.504 231.762 460.125 232.945 461.367 233.742C462.609 234.539 464.848 235.301 468.082 236.027C471.34 236.754 473.977 237.621 475.992 238.629C478.008 239.637 479.496 240.855 480.457 242.285C481.441 243.691 481.934 245.414 481.934 247.453C481.934 250.852 480.574 253.582 477.855 255.645C475.137 257.684 471.609 258.703 467.273 258.703C464.227 258.703 461.531 258.164 459.188 257.086C456.844 256.008 455.004 254.508 453.668 252.586C452.355 250.641 451.699 248.543 451.699 246.293H458.203C458.32 248.473 459.188 250.207 460.805 251.496C462.445 252.762 464.602 253.395 467.273 253.395C469.734 253.395 471.703 252.902 473.18 251.918C474.68 250.91 475.43 249.574 475.43 247.91ZM499.23 210.75V219.961H506.332V224.988H499.23V248.578C499.23 250.102 499.547 251.25 500.18 252.023C500.812 252.773 501.891 253.148 503.414 253.148C504.164 253.148 505.195 253.008 506.508 252.727V258C504.797 258.469 503.133 258.703 501.516 258.703C498.609 258.703 496.418 257.824 494.941 256.066C493.465 254.309 492.727 251.812 492.727 248.578V224.988H485.801V219.961H492.727V210.75H499.23ZM532.348 225.797C531.363 225.633 530.297 225.551 529.148 225.551C524.883 225.551 521.988 227.367 520.465 231V258H513.961V219.961H520.289L520.395 224.355C522.527 220.957 525.551 219.258 529.465 219.258C530.73 219.258 531.691 219.422 532.348 219.75V225.797ZM560.438 258C560.062 257.25 559.758 255.914 559.523 253.992C556.5 257.133 552.891 258.703 548.695 258.703C544.945 258.703 541.863 257.648 539.449 255.539C537.059 253.406 535.863 250.711 535.863 247.453C535.863 243.492 537.363 240.422 540.363 238.242C543.387 236.039 547.629 234.938 553.09 234.938H559.418V231.949C559.418 229.676 558.738 227.871 557.379 226.535C556.02 225.176 554.016 224.496 551.367 224.496C549.047 224.496 547.102 225.082 545.531 226.254C543.961 227.426 543.176 228.844 543.176 230.508H536.637C536.637 228.609 537.305 226.781 538.641 225.023C540 223.242 541.828 221.836 544.125 220.805C546.445 219.773 548.988 219.258 551.754 219.258C556.137 219.258 559.57 220.359 562.055 222.562C564.539 224.742 565.828 227.754 565.922 231.598V249.105C565.922 252.598 566.367 255.375 567.258 257.438V258H560.438ZM549.645 253.043C551.684 253.043 553.617 252.516 555.445 251.461C557.273 250.406 558.598 249.035 559.418 247.348V239.543H554.32C546.352 239.543 542.367 241.875 542.367 246.539C542.367 248.578 543.047 250.172 544.406 251.32C545.766 252.469 547.512 253.043 549.645 253.043ZM584.941 210.75V219.961H592.043V224.988H584.941V248.578C584.941 250.102 585.258 251.25 585.891 252.023C586.523 252.773 587.602 253.148 589.125 253.148C589.875 253.148 590.906 253.008 592.219 252.727V258C590.508 258.469 588.844 258.703 587.227 258.703C584.32 258.703 582.129 257.824 580.652 256.066C579.176 254.309 578.438 251.812 578.438 248.578V224.988H571.512V219.961H578.438V210.75H584.941ZM606.738 258H600.234V219.961H606.738V258ZM599.707 209.871C599.707 208.816 600.023 207.926 600.656 207.199C601.312 206.473 602.273 206.109 603.539 206.109C604.805 206.109 605.766 206.473 606.422 207.199C607.078 207.926 607.406 208.816 607.406 209.871C607.406 210.926 607.078 211.805 606.422 212.508C605.766 213.211 604.805 213.562 603.539 213.562C602.273 213.562 601.312 213.211 600.656 212.508C600.023 211.805 599.707 210.926 599.707 209.871ZM615.457 238.629C615.457 234.902 616.184 231.551 617.637 228.574C619.113 225.598 621.152 223.301 623.754 221.684C626.379 220.066 629.367 219.258 632.719 219.258C637.898 219.258 642.082 221.051 645.27 224.637C648.48 228.223 650.086 232.992 650.086 238.945V239.402C650.086 243.105 649.371 246.434 647.941 249.387C646.535 252.316 644.508 254.602 641.859 256.242C639.234 257.883 636.211 258.703 632.789 258.703C627.633 258.703 623.449 256.91 620.238 253.324C617.051 249.738 615.457 244.992 615.457 239.086V238.629ZM621.996 239.402C621.996 243.621 622.969 247.008 624.914 249.562C626.883 252.117 629.508 253.395 632.789 253.395C636.094 253.395 638.719 252.105 640.664 249.527C642.609 246.926 643.582 243.293 643.582 238.629C643.582 234.457 642.586 231.082 640.594 228.504C638.625 225.902 636 224.602 632.719 224.602C629.508 224.602 626.918 225.879 624.949 228.434C622.98 230.988 621.996 234.645 621.996 239.402ZM664.395 219.961L664.605 224.742C667.512 221.086 671.309 219.258 675.996 219.258C684.035 219.258 688.09 223.793 688.16 232.863V258H681.656V232.828C681.633 230.086 681 228.059 679.758 226.746C678.539 225.434 676.629 224.777 674.027 224.777C671.918 224.777 670.066 225.34 668.473 226.465C666.879 227.59 665.637 229.066 664.746 230.895V258H658.242V219.961H664.395ZM720.117 247.91C720.117 246.152 719.449 244.793 718.113 243.832C716.801 242.848 714.492 242.004 711.188 241.301C707.906 240.598 705.293 239.754 703.348 238.77C701.426 237.785 699.996 236.613 699.059 235.254C698.145 233.895 697.688 232.277 697.688 230.402C697.688 227.285 699 224.648 701.625 222.492C704.273 220.336 707.648 219.258 711.75 219.258C716.062 219.258 719.555 220.371 722.227 222.598C724.922 224.824 726.27 227.672 726.27 231.141H719.73C719.73 229.359 718.969 227.824 717.445 226.535C715.945 225.246 714.047 224.602 711.75 224.602C709.383 224.602 707.531 225.117 706.195 226.148C704.859 227.18 704.191 228.527 704.191 230.191C704.191 231.762 704.812 232.945 706.055 233.742C707.297 234.539 709.535 235.301 712.77 236.027C716.027 236.754 718.664 237.621 720.68 238.629C722.695 239.637 724.184 240.855 725.145 242.285C726.129 243.691 726.621 245.414 726.621 247.453C726.621 250.852 725.262 253.582 722.543 255.645C719.824 257.684 716.297 258.703 711.961 258.703C708.914 258.703 706.219 258.164 703.875 257.086C701.531 256.008 699.691 254.508 698.355 252.586C697.043 250.641 696.387 248.543 696.387 246.293H702.891C703.008 248.473 703.875 250.207 705.492 251.496C707.133 252.762 709.289 253.395 711.961 253.395C714.422 253.395 716.391 252.902 717.867 251.918C719.367 250.91 720.117 249.574 720.117 247.91Z" fill="black" fill-opacity="0.33"/>
</g>
<defs>
<clipPath id="clip0">
<rect width="1056.88" height="531.391" fill="white"/>
</clipPath>
</defs>
</svg>
